<?xml version="1.0" encoding="utf-8"?>
<!-- Generator: Adobe Illustrator 19.2.0, SVG Export Plug-In . SVG Version: 6.00 Build 0)  -->
<svg version="1.1" id="Layer_1" xmlns="http://www.w3.org/2000/svg" xmlns:xlink="http://www.w3.org/1999/xlink" x="0px" y="0px"
	 viewBox="0 0 200 160" style="enable-background:new 0 0 200 160;" xml:space="preserve">
<style type="text/css">
	.st0{fill:none;stroke:#4C65AF;stroke-width:5;stroke-miterlimit:10;}
	.st1{fill:#4C65AF;}
	.st2{fill:#399846;stroke:#399846;stroke-miterlimit:10;}
	.st3{fill:#FFFFFF;}
	.st4{fill:#CB3C33;stroke:#CB3C33;stroke-miterlimit:10;}
	.st5{fill:#925AA5;stroke:#925AA4;stroke-miterlimit:10;}
</style>
<g>
	<g>
		<line class="st0" x1="167.9" y1="76.1" x2="186.1" y2="76.1"/>
		<g>
			<polygon class="st1" points="183.9,83.6 196.8,76.1 183.9,68.6 			"/>
		</g>
	</g>
</g>
<g>
	<g>
		<line class="st0" x1="74.7" y1="44.9" x2="106.7" y2="59.1"/>
		<g>
			<polygon class="st1" points="101.7,65 116.6,63.4 107.8,51.3 			"/>
		</g>
	</g>
</g>
<g>
	<g>
		<line class="st0" x1="74.7" y1="114.3" x2="107.4" y2="94.5"/>
		<g>
			<polygon class="st1" points="109.4,102 116.6,88.9 101.7,89.2 			"/>
		</g>
	</g>
</g>
<circle class="st2" cx="52.9" cy="28.7" r="27.2"/>
<g>
	<path class="st3" d="M57.8,26.3L58,22h-0.2l-4.5,7.3h-1L47.7,22h-0.2l0.2,3.9v15.4h-5.2v-28h5.6l4.8,7.8H53l4.8-7.8h5.5v28h-5.5
		V26.3z"/>
</g>
<circle class="st4" cx="52.9" cy="130.5" r="27.2"/>
<g>
	<path class="st3" d="M57.5,131.3h5v11.4H44v-28h5.5v23.1h8V131.3z"/>
</g>
<circle class="st5" cx="140.7" cy="76.1" r="27.2"/>
<g>
	<path class="st3" d="M132.3,61.2h16.7V79c0,1.5-0.2,2.9-0.6,4.3c-0.4,1.3-1.1,2.5-2.1,3.6c-0.6,0.6-1.3,1.1-2.1,1.5
		c-0.7,0.4-1.4,0.7-2.1,0.8s-1.3,0.3-2,0.4c-0.6,0.1-1.1,0.1-1.5,0.1c-1.3,0-2.5-0.1-3.7-0.4c-1.2-0.3-2.4-0.8-3.6-1.5l2-4.4
		c1,0.6,1.9,1,2.6,1.2s1.6,0.3,2.5,0.3c0.6,0,1.2-0.1,1.9-0.3c0.7-0.2,1.3-0.6,1.8-1.1c0.9-1,1.4-2.4,1.4-4.2V66h-11.2V61.2z"/>
</g>
<g>
	<g>
		<line class="st0" x1="1.5" y1="28.7" x2="14.9" y2="28.7"/>
		<g>
			<polygon class="st1" points="12.7,36.1 25.7,28.7 12.7,21.2 			"/>
		</g>
	</g>
</g>
<g>
	<g>
		<line class="st0" x1="1.5" y1="130.5" x2="14.9" y2="130.5"/>
		<g>
			<polygon class="st1" points="12.7,138 25.7,130.5 12.7,123.1 			"/>
		</g>
	</g>
</g>
<g>
</g>
<g>
</g>
<g>
</g>
<g>
</g>
<g>
</g>
<g>
</g>
<g>
</g>
</svg>
