<?xml version="1.0" encoding="utf-8"?>
<!DOCTYPE svg PUBLIC "-//W3C//DTD SVG 1.1//EN" "http://www.w3.org/Graphics/SVG/1.1/DTD/svg11.dtd">
<svg class="marks" width="290" height="242" viewBox="0 0 290 242" version="1.1" xmlns="http://www.w3.org/2000/svg" xmlns:xlink="http://www.w3.org/1999/xlink"><rect width="290" height="242" fill="white"></rect><g fill="none" stroke-miterlimit="10" transform="translate(45,5)"><g class="mark-group role-frame root" role="graphics-object" aria-roledescription="group mark container"><g transform="translate(0,0)"><path class="background" aria-hidden="true" d="M0.5,0.5h200v200h-200Z" stroke="#ddd"></path><g><g class="mark-group role-axis" aria-hidden="true"><g transform="translate(0.5,200.5)"><path class="background" aria-hidden="true" d="M0,0h0v0h0Z" pointer-events="none"></path><g><g class="mark-rule role-axis-grid" pointer-events="none"><line transform="translate(25,-200)" x2="0" y2="200" stroke="#ddd" stroke-width="1" opacity="1"></line><line transform="translate(75,-200)" x2="0" y2="200" stroke="#ddd" stroke-width="1" opacity="1"></line><line transform="translate(125,-200)" x2="0" y2="200" stroke="#ddd" stroke-width="1" opacity="1"></line><line transform="translate(175,-200)" x2="0" y2="200" stroke="#ddd" stroke-width="1" opacity="1"></line></g></g><path class="foreground" aria-hidden="true" d="" pointer-events="none" display="none"></path></g></g><g class="mark-group role-axis" aria-hidden="true"><g transform="translate(0.5,0.5)"><path class="background" aria-hidden="true" d="M0,0h0v0h0Z" pointer-events="none"></path><g><g class="mark-rule role-axis-grid" pointer-events="none"><line transform="translate(0,170)" x2="200" y2="0" stroke="#ddd" stroke-width="1" opacity="1"></line><line transform="translate(0,120)" x2="200" y2="0" stroke="#ddd" stroke-width="1" opacity="1"></line><line transform="translate(0,70)" x2="200" y2="0" stroke="#ddd" stroke-width="1" opacity="1"></line><line transform="translate(0,20)" x2="200" y2="0" stroke="#ddd" stroke-width="1" opacity="1"></line></g></g><path class="foreground" aria-hidden="true" d="" pointer-events="none" display="none"></path></g></g><g class="mark-group role-axis" role="graphics-symbol" aria-roledescription="axis" aria-label="X-axis titled 'x1' for a linear scale with values from -2 to 3"><g transform="translate(0.5,200.5)"><path class="background" aria-hidden="true" d="M0,0h0v0h0Z" pointer-events="none"></path><g><g class="mark-rule role-axis-tick" pointer-events="none"><line transform="translate(25,0)" x2="0" y2="5" stroke="#888" stroke-width="1" opacity="1"></line><line transform="translate(75,0)" x2="0" y2="5" stroke="#888" stroke-width="1" opacity="1"></line><line transform="translate(125,0)" x2="0" y2="5" stroke="#888" stroke-width="1" opacity="1"></line><line transform="translate(175,0)" x2="0" y2="5" stroke="#888" stroke-width="1" opacity="1"></line></g><g class="mark-text role-axis-label" pointer-events="none"><text text-anchor="middle" transform="translate(25,15)" font-family="sans-serif" font-size="10px" fill="#000" opacity="1">-1</text><text text-anchor="middle" transform="translate(75,15)" font-family="sans-serif" font-size="10px" fill="#000" opacity="1">0</text><text text-anchor="middle" transform="translate(125,15)" font-family="sans-serif" font-size="10px" fill="#000" opacity="1">1</text><text text-anchor="middle" transform="translate(175,15)" font-family="sans-serif" font-size="10px" fill="#000" opacity="1">2</text></g><g class="mark-rule role-axis-domain" pointer-events="none"><line transform="translate(0,0)" x2="200" y2="0" stroke="#888" stroke-width="1" opacity="1"></line></g><g class="mark-text role-axis-title" pointer-events="none"><text text-anchor="middle" transform="translate(100,30)" font-family="sans-serif" font-size="11px" font-weight="bold" fill="#000" opacity="1">x1</text></g></g><path class="foreground" aria-hidden="true" d="" pointer-events="none" display="none"></path></g></g><g class="mark-group role-axis" role="graphics-symbol" aria-roledescription="axis" aria-label="Y-axis titled 'x2' for a linear scale with values from -0.8 to 1.2"><g transform="translate(0.5,0.5)"><path class="background" aria-hidden="true" d="M0,0h0v0h0Z" pointer-events="none"></path><g><g class="mark-rule role-axis-tick" pointer-events="none"><line transform="translate(0,170)" x2="-5" y2="0" stroke="#888" stroke-width="1" opacity="1"></line><line transform="translate(0,120)" x2="-5" y2="0" stroke="#888" stroke-width="1" opacity="1"></line><line transform="translate(0,70)" x2="-5" y2="0" stroke="#888" stroke-width="1" opacity="1"></line><line transform="translate(0,20)" x2="-5" y2="0" stroke="#888" stroke-width="1" opacity="1"></line></g><g class="mark-text role-axis-label" pointer-events="none"><text text-anchor="end" transform="translate(-7,173)" font-family="sans-serif" font-size="10px" fill="#000" opacity="1">-0.5</text><text text-anchor="end" transform="translate(-7,123)" font-family="sans-serif" font-size="10px" fill="#000" opacity="1">0.0</text><text text-anchor="end" transform="translate(-7,73)" font-family="sans-serif" font-size="10px" fill="#000" opacity="1">0.5</text><text text-anchor="end" transform="translate(-7,22.999999999999996)" font-family="sans-serif" font-size="10px" fill="#000" opacity="1">1.0</text></g><g class="mark-rule role-axis-domain" pointer-events="none"><line transform="translate(0,200)" x2="0" y2="-200" stroke="#888" stroke-width="1" opacity="1"></line></g><g class="mark-text role-axis-title" pointer-events="none"><text text-anchor="middle" transform="translate(-29,100) rotate(-90) translate(0,-2)" font-family="sans-serif" font-size="11px" font-weight="bold" fill="#000" opacity="1">x2</text></g></g><path class="foreground" aria-hidden="true" d="" pointer-events="none" display="none"></path></g></g><g class="mark-symbol role-mark marks" role="graphics-object" aria-roledescription="symbol mark container"><path aria-label="x1: 1.24069421747; x2: -0.667500080434; y: 1" role="graphics-symbol" aria-roledescription="circle" transform="translate(137.03471087367367,186.7500080433837)" d="M2.7386127875258306,0A2.7386127875258306,2.7386127875258306,0,1,1,-2.7386127875258306,0A2.7386127875258306,2.7386127875258306,0,1,1,2.7386127875258306,0" fill="#f58518" stroke-width="2" opacity="0.7"></path><path aria-label="x1: 1.24100150867; x2: -0.632259373637; y: 1" role="graphics-symbol" aria-roledescription="circle" transform="translate(137.05007543371585,183.22593736369717)" d="M2.7386127875258306,0A2.7386127875258306,2.7386127875258306,0,1,1,-2.7386127875258306,0A2.7386127875258306,2.7386127875258306,0,1,1,2.7386127875258306,0" fill="#f58518" stroke-width="2" opacity="0.7"></path><path aria-label="x1: 0.0699098103788; x2: 1.06216201466; y: 0" role="graphics-symbol" aria-roledescription="circle" transform="translate(78.49549051893891,13.783798534474535)" d="M2.7386127875258306,0A2.7386127875258306,2.7386127875258306,0,1,1,-2.7386127875258306,0A2.7386127875258306,2.7386127875258306,0,1,1,2.7386127875258306,0" fill="#4c78a8" stroke-width="2" opacity="0.7"></path><path aria-label="x1: -0.859431724659; x2: 0.505012627432; y: 0" role="graphics-symbol" aria-roledescription="circle" transform="translate(32.02841376702616,69.49873725679589)" d="M2.7386127875258306,0A2.7386127875258306,2.7386127875258306,0,1,1,-2.7386127875258306,0A2.7386127875258306,2.7386127875258306,0,1,1,2.7386127875258306,0" fill="#4c78a8" stroke-width="2" opacity="0.7"></path><path aria-label="x1: 0.891371467272; x2: -0.723063674865; y: 1" role="graphics-symbol" aria-roledescription="circle" transform="translate(119.56857336361213,192.30636748651122)" d="M2.7386127875258306,0A2.7386127875258306,2.7386127875258306,0,1,1,-2.7386127875258306,0A2.7386127875258306,2.7386127875258306,0,1,1,2.7386127875258306,0" fill="#f58518" stroke-width="2" opacity="0.7"></path><path aria-label="x1: -0.116655207747; x2: 0.217942948971; y: 1" role="graphics-symbol" aria-roledescription="circle" transform="translate(69.16723961266382,98.2057051028812)" d="M2.7386127875258306,0A2.7386127875258306,2.7386127875258306,0,1,1,-2.7386127875258306,0A2.7386127875258306,2.7386127875258306,0,1,1,2.7386127875258306,0" fill="#f58518" stroke-width="2" opacity="0.7"></path><path aria-label="x1: 1.70001988679; x2: -0.504752076093; y: 1" role="graphics-symbol" aria-roledescription="circle" transform="translate(160.00099433973247,170.4752076093317)" d="M2.7386127875258306,0A2.7386127875258306,2.7386127875258306,0,1,1,-2.7386127875258306,0A2.7386127875258306,2.7386127875258306,0,1,1,2.7386127875258306,0" fill="#f58518" stroke-width="2" opacity="0.7"></path><path aria-label="x1: 0.208364689729; x2: 1.00185730526; y: 0" role="graphics-symbol" aria-roledescription="circle" transform="translate(85.41823448647418,19.81426947422129)" d="M2.7386127875258306,0A2.7386127875258306,2.7386127875258306,0,1,1,-2.7386127875258306,0A2.7386127875258306,2.7386127875258306,0,1,1,2.7386127875258306,0" fill="#4c78a8" stroke-width="2" opacity="0.7"></path><path aria-label="x1: -0.721440882354; x2: 0.575399162431; y: 0" role="graphics-symbol" aria-roledescription="circle" transform="translate(38.92795588231381,62.46008375690095)" d="M2.7386127875258306,0A2.7386127875258306,2.7386127875258306,0,1,1,-2.7386127875258306,0A2.7386127875258306,2.7386127875258306,0,1,1,2.7386127875258306,0" fill="#4c78a8" stroke-width="2" opacity="0.7"></path><path aria-label="x1: 2.00525894036; x2: 0.255014724581; y: 1" role="graphics-symbol" aria-roledescription="circle" transform="translate(175.2629470180266,94.4985275418809)" d="M2.7386127875258306,0A2.7386127875258306,2.7386127875258306,0,1,1,-2.7386127875258306,0A2.7386127875258306,2.7386127875258306,0,1,1,2.7386127875258306,0" fill="#f58518" stroke-width="2" opacity="0.7"></path><path aria-label="x1: -0.517210495676; x2: 0.89444606889; y: 0" role="graphics-symbol" aria-roledescription="circle" transform="translate(49.13947521621949,30.555393111042694)" d="M2.7386127875258306,0A2.7386127875258306,2.7386127875258306,0,1,1,-2.7386127875258306,0A2.7386127875258306,2.7386127875258306,0,1,1,2.7386127875258306,0" fill="#4c78a8" stroke-width="2" opacity="0.7"></path><path aria-label="x1: 1.26013887291; x2: -0.758476405762; y: 1" role="graphics-symbol" aria-roledescription="circle" transform="translate(138.00694364564657,195.84764057619643)" d="M2.7386127875258306,0A2.7386127875258306,2.7386127875258306,0,1,1,-2.7386127875258306,0A2.7386127875258306,2.7386127875258306,0,1,1,2.7386127875258306,0" fill="#f58518" stroke-width="2" opacity="0.7"></path><path aria-label="x1: 0.756228663753; x2: 0.570680296651; y: 0" role="graphics-symbol" aria-roledescription="circle" transform="translate(112.8114331876422,62.93197033489473)" d="M2.7386127875258306,0A2.7386127875258306,2.7386127875258306,0,1,1,-2.7386127875258306,0A2.7386127875258306,2.7386127875258306,0,1,1,2.7386127875258306,0" fill="#4c78a8" stroke-width="2" opacity="0.7"></path><path aria-label="x1: 0.937920357112; x2: 0.43986602048; y: 0" role="graphics-symbol" aria-roledescription="circle" transform="translate(121.89601785562219,76.01339795200002)" d="M2.7386127875258306,0A2.7386127875258306,2.7386127875258306,0,1,1,-2.7386127875258306,0A2.7386127875258306,2.7386127875258306,0,1,1,2.7386127875258306,0" fill="#4c78a8" stroke-width="2" opacity="0.7"></path><path aria-label="x1: 0.135004053336; x2: -0.134146618139; y: 1" role="graphics-symbol" aria-roledescription="circle" transform="translate(81.7502026668073,133.41466181394347)" d="M2.7386127875258306,0A2.7386127875258306,2.7386127875258306,0,1,1,-2.7386127875258306,0A2.7386127875258306,2.7386127875258306,0,1,1,2.7386127875258306,0" fill="#f58518" stroke-width="2" opacity="0.7"></path><path aria-label="x1: 0.451149864192; x2: -0.507676865899; y: 1" role="graphics-symbol" aria-roledescription="circle" transform="translate(97.55749320959866,170.7676865899234)" d="M2.7386127875258306,0A2.7386127875258306,2.7386127875258306,0,1,1,-2.7386127875258306,0A2.7386127875258306,2.7386127875258306,0,1,1,2.7386127875258306,0" fill="#f58518" stroke-width="2" opacity="0.7"></path><path aria-label="x1: 0.830617062866; x2: -0.753866540862; y: 1" role="graphics-symbol" aria-roledescription="circle" transform="translate(116.53085314327907,195.38665408619784)" d="M2.7386127875258306,0A2.7386127875258306,2.7386127875258306,0,1,1,-2.7386127875258306,0A2.7386127875258306,2.7386127875258306,0,1,1,2.7386127875258306,0" fill="#f58518" stroke-width="2" opacity="0.7"></path><path aria-label="x1: -0.830423585333; x2: 0.462157995795; y: 0" role="graphics-symbol" aria-roledescription="circle" transform="translate(33.47882073335399,73.78420042048901)" d="M2.7386127875258306,0A2.7386127875258306,2.7386127875258306,0,1,1,-2.7386127875258306,0A2.7386127875258306,2.7386127875258306,0,1,1,2.7386127875258306,0" fill="#4c78a8" stroke-width="2" opacity="0.7"></path><path aria-label="x1: 0.463187156108; x2: 0.850339835688; y: 0" role="graphics-symbol" aria-roledescription="circle" transform="translate(98.15935780540204,34.966016431244284)" d="M2.7386127875258306,0A2.7386127875258306,2.7386127875258306,0,1,1,-2.7386127875258306,0A2.7386127875258306,2.7386127875258306,0,1,1,2.7386127875258306,0" fill="#4c78a8" stroke-width="2" opacity="0.7"></path><path aria-label="x1: -0.134468923382; x2: 0.949006707663; y: 0" role="graphics-symbol" aria-roledescription="circle" transform="translate(68.27655383089072,25.099329233661514)" d="M2.7386127875258306,0A2.7386127875258306,2.7386127875258306,0,1,1,-2.7386127875258306,0A2.7386127875258306,2.7386127875258306,0,1,1,2.7386127875258306,0" fill="#4c78a8" stroke-width="2" opacity="0.7"></path><path aria-label="x1: 0.0319650398306; x2: -0.204522770623; y: 1" role="graphics-symbol" aria-roledescription="circle" transform="translate(76.59825199152861,140.45227706231066)" d="M2.7386127875258306,0A2.7386127875258306,2.7386127875258306,0,1,1,-2.7386127875258306,0A2.7386127875258306,2.7386127875258306,0,1,1,2.7386127875258306,0" fill="#f58518" stroke-width="2" opacity="0.7"></path><path aria-label="x1: 0.388540696486; x2: 0.908013507924; y: 0" role="graphics-symbol" aria-roledescription="circle" transform="translate(94.42703482430306,29.198649207620875)" d="M2.7386127875258306,0A2.7386127875258306,2.7386127875258306,0,1,1,-2.7386127875258306,0A2.7386127875258306,2.7386127875258306,0,1,1,2.7386127875258306,0" fill="#4c78a8" stroke-width="2" opacity="0.7"></path><path aria-label="x1: -0.974505194344; x2: 0.346560193158; y: 0" role="graphics-symbol" aria-roledescription="circle" transform="translate(26.274740282792752,85.3439806842406)" d="M2.7386127875258306,0A2.7386127875258306,2.7386127875258306,0,1,1,-2.7386127875258306,0A2.7386127875258306,2.7386127875258306,0,1,1,2.7386127875258306,0" fill="#4c78a8" stroke-width="2" opacity="0.7"></path><path aria-label="x1: 0.143844155497; x2: -0.162364526537; y: 1" role="graphics-symbol" aria-roledescription="circle" transform="translate(82.19220777484493,136.23645265374606)" d="M2.7386127875258306,0A2.7386127875258306,2.7386127875258306,0,1,1,-2.7386127875258306,0A2.7386127875258306,2.7386127875258306,0,1,1,2.7386127875258306,0" fill="#f58518" stroke-width="2" opacity="0.7"></path><path aria-label="x1: 0.128134315223; x2: -0.269044780791; y: 1" role="graphics-symbol" aria-roledescription="circle" transform="translate(81.406715761154,146.90447807905184)" d="M2.7386127875258306,0A2.7386127875258306,2.7386127875258306,0,1,1,-2.7386127875258306,0A2.7386127875258306,2.7386127875258306,0,1,1,2.7386127875258306,0" fill="#f58518" stroke-width="2" opacity="0.7"></path><path aria-label="x1: 1.29387987754; x2: -0.703554985594; y: 1" role="graphics-symbol" aria-roledescription="circle" transform="translate(139.6939938767658,190.3554985593622)" d="M2.7386127875258306,0A2.7386127875258306,2.7386127875258306,0,1,1,-2.7386127875258306,0A2.7386127875258306,2.7386127875258306,0,1,1,2.7386127875258306,0" fill="#f58518" stroke-width="2" opacity="0.7"></path><path aria-label="x1: -0.630220796718; x2: 0.78241176995; y: 0" role="graphics-symbol" aria-roledescription="circle" transform="translate(43.488960164107915,41.758823004980286)" d="M2.7386127875258306,0A2.7386127875258306,2.7386127875258306,0,1,1,-2.7386127875258306,0A2.7386127875258306,2.7386127875258306,0,1,1,2.7386127875258306,0" fill="#4c78a8" stroke-width="2" opacity="0.7"></path><path aria-label="x1: -0.00870499649673; x2: 0.0894089448985; y: 1" role="graphics-symbol" aria-roledescription="circle" transform="translate(74.56475017516372,111.05910551014617)" d="M2.7386127875258306,0A2.7386127875258306,2.7386127875258306,0,1,1,-2.7386127875258306,0A2.7386127875258306,2.7386127875258306,0,1,1,2.7386127875258306,0" fill="#f58518" stroke-width="2" opacity="0.7"></path><path aria-label="x1: 1.31696843334; x2: -0.657289753984; y: 1" role="graphics-symbol" aria-roledescription="circle" transform="translate(140.84842166706758,185.72897539840403)" d="M2.7386127875258306,0A2.7386127875258306,2.7386127875258306,0,1,1,-2.7386127875258306,0A2.7386127875258306,2.7386127875258306,0,1,1,2.7386127875258306,0" fill="#f58518" stroke-width="2" opacity="0.7"></path><path aria-label="x1: -0.933246510427; x2: 0.218740014945; y: 0" role="graphics-symbol" aria-roledescription="circle" transform="translate(28.337674478674064,98.12599850553458)" d="M2.7386127875258306,0A2.7386127875258306,2.7386127875258306,0,1,1,-2.7386127875258306,0A2.7386127875258306,2.7386127875258306,0,1,1,2.7386127875258306,0" fill="#4c78a8" stroke-width="2" opacity="0.7"></path><path aria-label="x1: 0.275426804934; x2: -0.351493580134; y: 1" role="graphics-symbol" aria-roledescription="circle" transform="translate(88.77134024667517,155.14935801340326)" d="M2.7386127875258306,0A2.7386127875258306,2.7386127875258306,0,1,1,-2.7386127875258306,0A2.7386127875258306,2.7386127875258306,0,1,1,2.7386127875258306,0" fill="#f58518" stroke-width="2" opacity="0.7"></path><path aria-label="x1: 0.919091677783; x2: 0.381183819156; y: 0" role="graphics-symbol" aria-roledescription="circle" transform="translate(120.9545838891715,81.88161808438016)" d="M2.7386127875258306,0A2.7386127875258306,2.7386127875258306,0,1,1,-2.7386127875258306,0A2.7386127875258306,2.7386127875258306,0,1,1,2.7386127875258306,0" fill="#4c78a8" stroke-width="2" opacity="0.7"></path><path aria-label="x1: 0.00782034407709; x2: 0.18752871031; y: 1" role="graphics-symbol" aria-roledescription="circle" transform="translate(75.39101720385443,101.24712896896892)" d="M2.7386127875258306,0A2.7386127875258306,2.7386127875258306,0,1,1,-2.7386127875258306,0A2.7386127875258306,2.7386127875258306,0,1,1,2.7386127875258306,0" fill="#f58518" stroke-width="2" opacity="0.7"></path><path aria-label="x1: -0.946110568651; x2: 0.253107980183; y: 0" role="graphics-symbol" aria-roledescription="circle" transform="translate(27.694471567461854,94.6892019817342)" d="M2.7386127875258306,0A2.7386127875258306,2.7386127875258306,0,1,1,-2.7386127875258306,0A2.7386127875258306,2.7386127875258306,0,1,1,2.7386127875258306,0" fill="#4c78a8" stroke-width="2" opacity="0.7"></path><path aria-label="x1: 0.901038959065; x2: -0.664177696262; y: 1" role="graphics-symbol" aria-roledescription="circle" transform="translate(120.05194795325865,186.41776962617305)" d="M2.7386127875258306,0A2.7386127875258306,2.7386127875258306,0,1,1,-2.7386127875258306,0A2.7386127875258306,2.7386127875258306,0,1,1,2.7386127875258306,0" fill="#f58518" stroke-width="2" opacity="0.7"></path><path aria-label="x1: -0.859423402168; x2: 0.41006512397; y: 0" role="graphics-symbol" aria-roledescription="circle" transform="translate(32.028829891582596,78.99348760297298)" d="M2.7386127875258306,0A2.7386127875258306,2.7386127875258306,0,1,1,-2.7386127875258306,0A2.7386127875258306,2.7386127875258306,0,1,1,2.7386127875258306,0" fill="#4c78a8" stroke-width="2" opacity="0.7"></path><path aria-label="x1: 1.08191894179; x2: -0.586996529754; y: 1" role="graphics-symbol" aria-roledescription="circle" transform="translate(129.09594708940233,178.69965297536288)" d="M2.7386127875258306,0A2.7386127875258306,2.7386127875258306,0,1,1,-2.7386127875258306,0A2.7386127875258306,2.7386127875258306,0,1,1,2.7386127875258306,0" fill="#f58518" stroke-width="2" opacity="0.7"></path><path aria-label="x1: 0.636994045343; x2: 0.732576582375; y: 0" role="graphics-symbol" aria-roledescription="circle" transform="translate(106.84970226714144,46.74234176248624)" d="M2.7386127875258306,0A2.7386127875258306,2.7386127875258306,0,1,1,-2.7386127875258306,0A2.7386127875258306,2.7386127875258306,0,1,1,2.7386127875258306,0" fill="#4c78a8" stroke-width="2" opacity="0.7"></path><path aria-label="x1: -0.500620885316; x2: 0.838845225086; y: 0" role="graphics-symbol" aria-roledescription="circle" transform="translate(49.96895573418797,36.11547749136839)" d="M2.7386127875258306,0A2.7386127875258306,2.7386127875258306,0,1,1,-2.7386127875258306,0A2.7386127875258306,2.7386127875258306,0,1,1,2.7386127875258306,0" fill="#4c78a8" stroke-width="2" opacity="0.7"></path><path aria-label="x1: 1.03636094048; x2: -0.746994569119; y: 1" role="graphics-symbol" aria-roledescription="circle" transform="translate(126.81804702397574,194.69945691192092)" d="M2.7386127875258306,0A2.7386127875258306,2.7386127875258306,0,1,1,-2.7386127875258306,0A2.7386127875258306,2.7386127875258306,0,1,1,2.7386127875258306,0" fill="#f58518" stroke-width="2" opacity="0.7"></path><path aria-label="x1: 0.759016663116; x2: -0.590599496489; y: 1" role="graphics-symbol" aria-roledescription="circle" transform="translate(112.95083315579619,179.05994964892133)" d="M2.7386127875258306,0A2.7386127875258306,2.7386127875258306,0,1,1,-2.7386127875258306,0A2.7386127875258306,2.7386127875258306,0,1,1,2.7386127875258306,0" fill="#f58518" stroke-width="2" opacity="0.7"></path><path aria-label="x1: -0.072544693026; x2: 0.0326790554693; y: 1" role="graphics-symbol" aria-roledescription="circle" transform="translate(71.37276534870125,116.73209445306603)" d="M2.7386127875258306,0A2.7386127875258306,2.7386127875258306,0,1,1,-2.7386127875258306,0A2.7386127875258306,2.7386127875258306,0,1,1,2.7386127875258306,0" fill="#f58518" stroke-width="2" opacity="0.7"></path><path aria-label="x1: 1.9965625649; x2: 0.110212641908; y: 1" role="graphics-symbol" aria-roledescription="circle" transform="translate(174.82812824518078,108.97873580915854)" d="M2.7386127875258306,0A2.7386127875258306,2.7386127875258306,0,1,1,-2.7386127875258306,0A2.7386127875258306,2.7386127875258306,0,1,1,2.7386127875258306,0" fill="#f58518" stroke-width="2" opacity="0.7"></path><path aria-label="x1: 1.97801643244; x2: 0.0935446121489; y: 1" role="graphics-symbol" aria-roledescription="circle" transform="translate(173.90082162216268,110.64553878511059)" d="M2.7386127875258306,0A2.7386127875258306,2.7386127875258306,0,1,1,-2.7386127875258306,0A2.7386127875258306,2.7386127875258306,0,1,1,2.7386127875258306,0" fill="#f58518" stroke-width="2" opacity="0.7"></path><path aria-label="x1: -0.992086060606; x2: 0.250055519359; y: 0" role="graphics-symbol" aria-roledescription="circle" transform="translate(25.395696969706155,94.9944480640839)" d="M2.7386127875258306,0A2.7386127875258306,2.7386127875258306,0,1,1,-2.7386127875258306,0A2.7386127875258306,2.7386127875258306,0,1,1,2.7386127875258306,0" fill="#4c78a8" stroke-width="2" opacity="0.7"></path><path aria-label="x1: 1.81813514664; x2: -0.0598038092967; y: 1" role="graphics-symbol" aria-roledescription="circle" transform="translate(165.9067573320758,125.98038092967434)" d="M2.7386127875258306,0A2.7386127875258306,2.7386127875258306,0,1,1,-2.7386127875258306,0A2.7386127875258306,2.7386127875258306,0,1,1,2.7386127875258306,0" fill="#f58518" stroke-width="2" opacity="0.7"></path><path aria-label="x1: 0.258067051861; x2: 0.95267713973; y: 0" role="graphics-symbol" aria-roledescription="circle" transform="translate(87.90335259307136,24.732286027009167)" d="M2.7386127875258306,0A2.7386127875258306,2.7386127875258306,0,1,1,-2.7386127875258306,0A2.7386127875258306,2.7386127875258306,0,1,1,2.7386127875258306,0" fill="#4c78a8" stroke-width="2" opacity="0.7"></path><path aria-label="x1: 1.66821766327; x2: -0.342094930111; y: 1" role="graphics-symbol" aria-roledescription="circle" transform="translate(158.41088316329416,154.20949301110323)" d="M2.7386127875258306,0A2.7386127875258306,2.7386127875258306,0,1,1,-2.7386127875258306,0A2.7386127875258306,2.7386127875258306,0,1,1,2.7386127875258306,0" fill="#f58518" stroke-width="2" opacity="0.7"></path><path aria-label="x1: 0.0441905018421; x2: 0.00380009595741; y: 1" role="graphics-symbol" aria-roledescription="circle" transform="translate(77.20952509210738,119.6199904042594)" d="M2.7386127875258306,0A2.7386127875258306,2.7386127875258306,0,1,1,-2.7386127875258306,0A2.7386127875258306,2.7386127875258306,0,1,1,2.7386127875258306,0" fill="#f58518" stroke-width="2" opacity="0.7"></path><path aria-label="x1: 0.372284206419; x2: -0.425654427948; y: 1" role="graphics-symbol" aria-roledescription="circle" transform="translate(93.6142103209449,162.56544279483424)" d="M2.7386127875258306,0A2.7386127875258306,2.7386127875258306,0,1,1,-2.7386127875258306,0A2.7386127875258306,2.7386127875258306,0,1,1,2.7386127875258306,0" fill="#f58518" stroke-width="2" opacity="0.7"></path><path aria-label="x1: -0.0603407894112; x2: 0.318622437415; y: 1" role="graphics-symbol" aria-roledescription="circle" transform="translate(71.98296052943783,88.13775625851447)" d="M2.7386127875258306,0A2.7386127875258306,2.7386127875258306,0,1,1,-2.7386127875258306,0A2.7386127875258306,2.7386127875258306,0,1,1,2.7386127875258306,0" fill="#f58518" stroke-width="2" opacity="0.7"></path><path aria-label="x1: -0.927148956166; x2: 0.189560893332; y: 0" role="graphics-symbol" aria-roledescription="circle" transform="translate(28.642552191708504,101.04391066675011)" d="M2.7386127875258306,0A2.7386127875258306,2.7386127875258306,0,1,1,-2.7386127875258306,0A2.7386127875258306,2.7386127875258306,0,1,1,2.7386127875258306,0" fill="#4c78a8" stroke-width="2" opacity="0.7"></path><path aria-label="x1: 0.891981854335; x2: 0.426014553217; y: 0" role="graphics-symbol" aria-roledescription="circle" transform="translate(119.5990927167366,77.3985446782823)" d="M2.7386127875258306,0A2.7386127875258306,2.7386127875258306,0,1,1,-2.7386127875258306,0A2.7386127875258306,2.7386127875258306,0,1,1,2.7386127875258306,0" fill="#4c78a8" stroke-width="2" opacity="0.7"></path><path aria-label="x1: 0.957276965978; x2: -0.59158018915; y: 1" role="graphics-symbol" aria-roledescription="circle" transform="translate(122.86384829891772,179.15801891502272)" d="M2.7386127875258306,0A2.7386127875258306,2.7386127875258306,0,1,1,-2.7386127875258306,0A2.7386127875258306,2.7386127875258306,0,1,1,2.7386127875258306,0" fill="#f58518" stroke-width="2" opacity="0.7"></path><path aria-label="x1: -0.423024859058; x2: 0.94184162738; y: 0" role="graphics-symbol" aria-roledescription="circle" transform="translate(53.84875704711825,25.815837261991348)" d="M2.7386127875258306,0A2.7386127875258306,2.7386127875258306,0,1,1,-2.7386127875258306,0A2.7386127875258306,2.7386127875258306,0,1,1,2.7386127875258306,0" fill="#4c78a8" stroke-width="2" opacity="0.7"></path><path aria-label="x1: -0.0270094433886; x2: 0.883239676737; y: 0" role="graphics-symbol" aria-roledescription="circle" transform="translate(73.64952783057241,31.676032326259662)" d="M2.7386127875258306,0A2.7386127875258306,2.7386127875258306,0,1,1,-2.7386127875258306,0A2.7386127875258306,2.7386127875258306,0,1,1,2.7386127875258306,0" fill="#4c78a8" stroke-width="2" opacity="0.7"></path><path aria-label="x1: 1.07028692551; x2: 0.23066474523; y: 0" role="graphics-symbol" aria-roledescription="circle" transform="translate(128.51434627574614,96.93352547695606)" d="M2.7386127875258306,0A2.7386127875258306,2.7386127875258306,0,1,1,-2.7386127875258306,0A2.7386127875258306,2.7386127875258306,0,1,1,2.7386127875258306,0" fill="#4c78a8" stroke-width="2" opacity="0.7"></path><path aria-label="x1: 0.43784039095; x2: 1.00521472978; y: 0" role="graphics-symbol" aria-roledescription="circle" transform="translate(96.89201954750474,19.478527022003323)" d="M2.7386127875258306,0A2.7386127875258306,2.7386127875258306,0,1,1,-2.7386127875258306,0A2.7386127875258306,2.7386127875258306,0,1,1,2.7386127875258306,0" fill="#4c78a8" stroke-width="2" opacity="0.7"></path><path aria-label="x1: 0.828557374493; x2: -0.725528260258; y: 1" role="graphics-symbol" aria-roledescription="circle" transform="translate(116.42786872467225,192.55282602578933)" d="M2.7386127875258306,0A2.7386127875258306,2.7386127875258306,0,1,1,-2.7386127875258306,0A2.7386127875258306,2.7386127875258306,0,1,1,2.7386127875258306,0" fill="#f58518" stroke-width="2" opacity="0.7"></path><path aria-label="x1: 0.0239496082388; x2: -0.0777462272233; y: 1" role="graphics-symbol" aria-roledescription="circle" transform="translate(76.19748041193968,127.77462272232864)" d="M2.7386127875258306,0A2.7386127875258306,2.7386127875258306,0,1,1,-2.7386127875258306,0A2.7386127875258306,2.7386127875258306,0,1,1,2.7386127875258306,0" fill="#f58518" stroke-width="2" opacity="0.7"></path><path aria-label="x1: 0.774970451726; x2: 0.666295961091; y: 0" role="graphics-symbol" aria-roledescription="circle" transform="translate(113.7485225862933,53.37040389090566)" d="M2.7386127875258306,0A2.7386127875258306,2.7386127875258306,0,1,1,-2.7386127875258306,0A2.7386127875258306,2.7386127875258306,0,1,1,2.7386127875258306,0" fill="#4c78a8" stroke-width="2" opacity="0.7"></path><path aria-label="x1: 1.76336551444; x2: -0.474378407669; y: 1" role="graphics-symbol" aria-roledescription="circle" transform="translate(163.16827572212412,167.437840766877)" d="M2.7386127875258306,0A2.7386127875258306,2.7386127875258306,0,1,1,-2.7386127875258306,0A2.7386127875258306,2.7386127875258306,0,1,1,2.7386127875258306,0" fill="#f58518" stroke-width="2" opacity="0.7"></path><path aria-label="x1: -1.01232861612; x2: 0.0972268910724; y: 0" role="graphics-symbol" aria-roledescription="circle" transform="translate(24.383569194016673,110.27731089276011)" d="M2.7386127875258306,0A2.7386127875258306,2.7386127875258306,0,1,1,-2.7386127875258306,0A2.7386127875258306,2.7386127875258306,0,1,1,2.7386127875258306,0" fill="#4c78a8" stroke-width="2" opacity="0.7"></path><path aria-label="x1: 1.79291821925; x2: -0.30709462352; y: 1" role="graphics-symbol" aria-roledescription="circle" transform="translate(164.64591096272082,150.70946235199432)" d="M2.7386127875258306,0A2.7386127875258306,2.7386127875258306,0,1,1,-2.7386127875258306,0A2.7386127875258306,2.7386127875258306,0,1,1,2.7386127875258306,0" fill="#f58518" stroke-width="2" opacity="0.7"></path><path aria-label="x1: 1.36724054082; x2: -0.594650291262; y: 1" role="graphics-symbol" aria-roledescription="circle" transform="translate(143.36202704124327,179.46502912623467)" d="M2.7386127875258306,0A2.7386127875258306,2.7386127875258306,0,1,1,-2.7386127875258306,0A2.7386127875258306,2.7386127875258306,0,1,1,2.7386127875258306,0" fill="#f58518" stroke-width="2" opacity="0.7"></path><path aria-label="x1: -0.737468770814; x2: 0.663319133986; y: 0" role="graphics-symbol" aria-roledescription="circle" transform="translate(38.12656145932078,53.66808660136111)" d="M2.7386127875258306,0A2.7386127875258306,2.7386127875258306,0,1,1,-2.7386127875258306,0A2.7386127875258306,2.7386127875258306,0,1,1,2.7386127875258306,0" fill="#4c78a8" stroke-width="2" opacity="0.7"></path><path aria-label="x1: 0.464269588845; x2: -0.527841524915; y: 1" role="graphics-symbol" aria-roledescription="circle" transform="translate(98.21347944222568,172.7841524915178)" d="M2.7386127875258306,0A2.7386127875258306,2.7386127875258306,0,1,1,-2.7386127875258306,0A2.7386127875258306,2.7386127875258306,0,1,1,2.7386127875258306,0" fill="#f58518" stroke-width="2" opacity="0.7"></path><path aria-label="x1: -1.04113890138; x2: 0.0881858509051; y: 0" role="graphics-symbol" aria-roledescription="circle" transform="translate(22.943054931045182,111.1814149094859)" d="M2.7386127875258306,0A2.7386127875258306,2.7386127875258306,0,1,1,-2.7386127875258306,0A2.7386127875258306,2.7386127875258306,0,1,1,2.7386127875258306,0" fill="#4c78a8" stroke-width="2" opacity="0.7"></path><path aria-label="x1: -0.828049782481; x2: 0.468484485531; y: 0" role="graphics-symbol" aria-roledescription="circle" transform="translate(33.59751087595372,73.15155144690802)" d="M2.7386127875258306,0A2.7386127875258306,2.7386127875258306,0,1,1,-2.7386127875258306,0A2.7386127875258306,2.7386127875258306,0,1,1,2.7386127875258306,0" fill="#4c78a8" stroke-width="2" opacity="0.7"></path><path aria-label="x1: 0.00825342417445; x2: 1.03754941366; y: 0" role="graphics-symbol" aria-roledescription="circle" transform="translate(75.4126712087226,16.24505863442902)" d="M2.7386127875258306,0A2.7386127875258306,2.7386127875258306,0,1,1,-2.7386127875258306,0A2.7386127875258306,2.7386127875258306,0,1,1,2.7386127875258306,0" fill="#4c78a8" stroke-width="2" opacity="0.7"></path><path aria-label="x1: -0.854522121096; x2: 0.64932346087; y: 0" role="graphics-symbol" aria-roledescription="circle" transform="translate(32.27389394519884,55.06765391302113)" d="M2.7386127875258306,0A2.7386127875258306,2.7386127875258306,0,1,1,-2.7386127875258306,0A2.7386127875258306,2.7386127875258306,0,1,1,2.7386127875258306,0" fill="#4c78a8" stroke-width="2" opacity="0.7"></path><path aria-label="x1: -0.420567506971; x2: 0.886319349286; y: 0" role="graphics-symbol" aria-roledescription="circle" transform="translate(53.971624651471004,31.368065071386162)" d="M2.7386127875258306,0A2.7386127875258306,2.7386127875258306,0,1,1,-2.7386127875258306,0A2.7386127875258306,2.7386127875258306,0,1,1,2.7386127875258306,0" fill="#4c78a8" stroke-width="2" opacity="0.7"></path><path aria-label="x1: 1.97258134548; x2: -0.0252811984229; y: 1" role="graphics-symbol" aria-roledescription="circle" transform="translate(173.62906727417987,122.52811984228602)" d="M2.7386127875258306,0A2.7386127875258306,2.7386127875258306,0,1,1,-2.7386127875258306,0A2.7386127875258306,2.7386127875258306,0,1,1,2.7386127875258306,0" fill="#f58518" stroke-width="2" opacity="0.7"></path><path aria-label="x1: -0.328753835511; x2: 0.812742184132; y: 0" role="graphics-symbol" aria-roledescription="circle" transform="translate(58.56230822446874,38.72578158678086)" d="M2.7386127875258306,0A2.7386127875258306,2.7386127875258306,0,1,1,-2.7386127875258306,0A2.7386127875258306,2.7386127875258306,0,1,1,2.7386127875258306,0" fill="#4c78a8" stroke-width="2" opacity="0.7"></path><path aria-label="x1: 0.507286739544; x2: 0.816319733468; y: 0" role="graphics-symbol" aria-roledescription="circle" transform="translate(100.36433697719313,38.36802665315129)" d="M2.7386127875258306,0A2.7386127875258306,2.7386127875258306,0,1,1,-2.7386127875258306,0A2.7386127875258306,2.7386127875258306,0,1,1,2.7386127875258306,0" fill="#4c78a8" stroke-width="2" opacity="0.7"></path><path aria-label="x1: 0.966072241277; x2: -0.699925619415; y: 1" role="graphics-symbol" aria-roledescription="circle" transform="translate(123.30361206382739,189.99256194148808)" d="M2.7386127875258306,0A2.7386127875258306,2.7386127875258306,0,1,1,-2.7386127875258306,0A2.7386127875258306,2.7386127875258306,0,1,1,2.7386127875258306,0" fill="#f58518" stroke-width="2" opacity="0.7"></path><path aria-label="x1: 0.214199932881; x2: 1.02274124764; y: 0" role="graphics-symbol" aria-roledescription="circle" transform="translate(85.70999664403718,17.72587523582192)" d="M2.7386127875258306,0A2.7386127875258306,2.7386127875258306,0,1,1,-2.7386127875258306,0A2.7386127875258306,2.7386127875258306,0,1,1,2.7386127875258306,0" fill="#4c78a8" stroke-width="2" opacity="0.7"></path><path aria-label="x1: -0.252331165646; x2: 0.997601937918; y: 0" role="graphics-symbol" aria-roledescription="circle" transform="translate(62.38344171769425,20.239806208222788)" d="M2.7386127875258306,0A2.7386127875258306,2.7386127875258306,0,1,1,-2.7386127875258306,0A2.7386127875258306,2.7386127875258306,0,1,1,2.7386127875258306,0" fill="#4c78a8" stroke-width="2" opacity="0.7"></path><path aria-label="x1: 1.53197566602; x2: -0.531007960475; y: 1" role="graphics-symbol" aria-roledescription="circle" transform="translate(151.5987833010186,173.10079604750354)" d="M2.7386127875258306,0A2.7386127875258306,2.7386127875258306,0,1,1,-2.7386127875258306,0A2.7386127875258306,2.7386127875258306,0,1,1,2.7386127875258306,0" fill="#f58518" stroke-width="2" opacity="0.7"></path><path aria-label="x1: 0.888528149904; x2: 0.402575914279; y: 0" role="graphics-symbol" aria-roledescription="circle" transform="translate(119.42640749520012,79.74240857210926)" d="M2.7386127875258306,0A2.7386127875258306,2.7386127875258306,0,1,1,-2.7386127875258306,0A2.7386127875258306,2.7386127875258306,0,1,1,2.7386127875258306,0" fill="#4c78a8" stroke-width="2" opacity="0.7"></path><path aria-label="x1: 0.19623440766; x2: -0.299845868198; y: 1" role="graphics-symbol" aria-roledescription="circle" transform="translate(84.81172038299091,149.98458681983232)" d="M2.7386127875258306,0A2.7386127875258306,2.7386127875258306,0,1,1,-2.7386127875258306,0A2.7386127875258306,2.7386127875258306,0,1,1,2.7386127875258306,0" fill="#f58518" stroke-width="2" opacity="0.7"></path><path aria-label="x1: 0.515926825361; x2: -0.535153835632; y: 1" role="graphics-symbol" aria-roledescription="circle" transform="translate(100.79634126803727,173.5153835631856)" d="M2.7386127875258306,0A2.7386127875258306,2.7386127875258306,0,1,1,-2.7386127875258306,0A2.7386127875258306,2.7386127875258306,0,1,1,2.7386127875258306,0" fill="#f58518" stroke-width="2" opacity="0.7"></path><path aria-label="x1: -0.209583195192; x2: 0.989539140056; y: 0" role="graphics-symbol" aria-roledescription="circle" transform="translate(64.52084024037696,21.046085994352982)" d="M2.7386127875258306,0A2.7386127875258306,2.7386127875258306,0,1,1,-2.7386127875258306,0A2.7386127875258306,2.7386127875258306,0,1,1,2.7386127875258306,0" fill="#4c78a8" stroke-width="2" opacity="0.7"></path><path aria-label="x1: 1.91676301561; x2: -0.172011292216; y: 1" role="graphics-symbol" aria-roledescription="circle" transform="translate(170.83815078057305,137.201129221609)" d="M2.7386127875258306,0A2.7386127875258306,2.7386127875258306,0,1,1,-2.7386127875258306,0A2.7386127875258306,2.7386127875258306,0,1,1,2.7386127875258306,0" fill="#f58518" stroke-width="2" opacity="0.7"></path><path aria-label="x1: -0.566409925475; x2: 0.805765968568; y: 0" role="graphics-symbol" aria-roledescription="circle" transform="translate(46.67950372626022,39.42340314320525)" d="M2.7386127875258306,0A2.7386127875258306,2.7386127875258306,0,1,1,-2.7386127875258306,0A2.7386127875258306,2.7386127875258306,0,1,1,2.7386127875258306,0" fill="#4c78a8" stroke-width="2" opacity="0.7"></path><path aria-label="x1: -0.0374114669973; x2: 0.186383038371; y: 1" role="graphics-symbol" aria-roledescription="circle" transform="translate(73.1294266501343,101.36169616294114)" d="M2.7386127875258306,0A2.7386127875258306,2.7386127875258306,0,1,1,-2.7386127875258306,0A2.7386127875258306,2.7386127875258306,0,1,1,2.7386127875258306,0" fill="#f58518" stroke-width="2" opacity="0.7"></path><path aria-label="x1: -0.763099576659; x2: 0.620368066798; y: 0" role="graphics-symbol" aria-roledescription="circle" transform="translate(36.84502116706887,57.96319332020303)" d="M2.7386127875258306,0A2.7386127875258306,2.7386127875258306,0,1,1,-2.7386127875258306,0A2.7386127875258306,2.7386127875258306,0,1,1,2.7386127875258306,0" fill="#4c78a8" stroke-width="2" opacity="0.7"></path><path aria-label="x1: 0.970488631642; x2: 0.253634123149; y: 0" role="graphics-symbol" aria-roledescription="circle" transform="translate(123.52443158212176,94.63658768514563)" d="M2.7386127875258306,0A2.7386127875258306,2.7386127875258306,0,1,1,-2.7386127875258306,0A2.7386127875258306,2.7386127875258306,0,1,1,2.7386127875258306,0" fill="#4c78a8" stroke-width="2" opacity="0.7"></path><path aria-label="x1: 1.27844501728; x2: -0.672436342524; y: 1" role="graphics-symbol" aria-roledescription="circle" transform="translate(138.92225086405892,187.24363425235614)" d="M2.7386127875258306,0A2.7386127875258306,2.7386127875258306,0,1,1,-2.7386127875258306,0A2.7386127875258306,2.7386127875258306,0,1,1,2.7386127875258306,0" fill="#f58518" stroke-width="2" opacity="0.7"></path><path aria-label="x1: 0.889890733693; x2: 0.420386337646; y: 0" role="graphics-symbol" aria-roledescription="circle" transform="translate(119.49453668462586,77.96136623543799)" d="M2.7386127875258306,0A2.7386127875258306,2.7386127875258306,0,1,1,-2.7386127875258306,0A2.7386127875258306,2.7386127875258306,0,1,1,2.7386127875258306,0" fill="#4c78a8" stroke-width="2" opacity="0.7"></path><path aria-label="x1: 0.922548338867; x2: 0.371434819159; y: 0" role="graphics-symbol" aria-roledescription="circle" transform="translate(121.12741694335418,82.85651808411876)" d="M2.7386127875258306,0A2.7386127875258306,2.7386127875258306,0,1,1,-2.7386127875258306,0A2.7386127875258306,2.7386127875258306,0,1,1,2.7386127875258306,0" fill="#4c78a8" stroke-width="2" opacity="0.7"></path><path aria-label="x1: 1.43764382977; x2: -0.720172316644; y: 1" role="graphics-symbol" aria-roledescription="circle" transform="translate(146.88219148850922,192.0172316644443)" d="M2.7386127875258306,0A2.7386127875258306,2.7386127875258306,0,1,1,-2.7386127875258306,0A2.7386127875258306,2.7386127875258306,0,1,1,2.7386127875258306,0" fill="#f58518" stroke-width="2" opacity="0.7"></path><path aria-label="x1: -0.48354696893; x2: 0.755299933873; y: 0" role="graphics-symbol" aria-roledescription="circle" transform="translate(50.8226515535158,44.47000661271932)" d="M2.7386127875258306,0A2.7386127875258306,2.7386127875258306,0,1,1,-2.7386127875258306,0A2.7386127875258306,2.7386127875258306,0,1,1,2.7386127875258306,0" fill="#4c78a8" stroke-width="2" opacity="0.7"></path><path aria-label="x1: -0.0626288230886; x2: 1.04808512867; y: 0" role="graphics-symbol" aria-roledescription="circle" transform="translate(71.8685588455692,15.191487133185188)" d="M2.7386127875258306,0A2.7386127875258306,2.7386127875258306,0,1,1,-2.7386127875258306,0A2.7386127875258306,2.7386127875258306,0,1,1,2.7386127875258306,0" fill="#4c78a8" stroke-width="2" opacity="0.7"></path><path aria-label="x1: 1.94349728478; x2: 0.202096144816; y: 1" role="graphics-symbol" aria-roledescription="circle" transform="translate(172.1748642391778,99.79038551840284)" d="M2.7386127875258306,0A2.7386127875258306,2.7386127875258306,0,1,1,-2.7386127875258306,0A2.7386127875258306,2.7386127875258306,0,1,1,2.7386127875258306,0" fill="#f58518" stroke-width="2" opacity="0.7"></path><path aria-label="x1: -0.539521164257; x2: 0.887977172324; y: 0" role="graphics-symbol" aria-roledescription="circle" transform="translate(48.02394178714144,31.202282767618918)" d="M2.7386127875258306,0A2.7386127875258306,2.7386127875258306,0,1,1,-2.7386127875258306,0A2.7386127875258306,2.7386127875258306,0,1,1,2.7386127875258306,0" fill="#4c78a8" stroke-width="2" opacity="0.7"></path><path aria-label="x1: 0.212716078905; x2: -0.26871126246; y: 1" role="graphics-symbol" aria-roledescription="circle" transform="translate(85.63580394523993,146.8711262460233)" d="M2.7386127875258306,0A2.7386127875258306,2.7386127875258306,0,1,1,-2.7386127875258306,0A2.7386127875258306,2.7386127875258306,0,1,1,2.7386127875258306,0" fill="#f58518" stroke-width="2" opacity="0.7"></path><path aria-label="x1: 1.93074090317; x2: -0.0533880260751; y: 1" role="graphics-symbol" aria-roledescription="circle" transform="translate(171.53704515848608,125.33880260750534)" d="M2.7386127875258306,0A2.7386127875258306,2.7386127875258306,0,1,1,-2.7386127875258306,0A2.7386127875258306,2.7386127875258306,0,1,1,2.7386127875258306,0" fill="#f58518" stroke-width="2" opacity="0.7"></path><path aria-label="x1: 1.30960639158; x2: -0.600792575591; y: 1" role="graphics-symbol" aria-roledescription="circle" transform="translate(140.48031957879732,180.07925755906533)" d="M2.7386127875258306,0A2.7386127875258306,2.7386127875258306,0,1,1,-2.7386127875258306,0A2.7386127875258306,2.7386127875258306,0,1,1,2.7386127875258306,0" fill="#f58518" stroke-width="2" opacity="0.7"></path><path aria-label="x1: -0.538846734372; x2: 0.81128596432; y: 0" role="graphics-symbol" aria-roledescription="circle" transform="translate(48.05766328139115,38.87140356797172)" d="M2.7386127875258306,0A2.7386127875258306,2.7386127875258306,0,1,1,-2.7386127875258306,0A2.7386127875258306,2.7386127875258306,0,1,1,2.7386127875258306,0" fill="#4c78a8" stroke-width="2" opacity="0.7"></path></g><g class="mark-group role-legend" role="graphics-symbol" aria-roledescription="legend" aria-label="Symbol legend titled 'y' for fill color with 2 values: 0, 1"><g transform="translate(218,0)"><path class="background" aria-hidden="true" d="M0,0h22v40h-22Z" pointer-events="none"></path><g><g class="mark-group role-legend-entry"><g transform="translate(0,16)"><path class="background" aria-hidden="true" d="M0,0h0v0h0Z" pointer-events="none"></path><g><g class="mark-group role-scope" role="graphics-object" aria-roledescription="group mark container"><g transform="translate(0,0)"><path class="background" aria-hidden="true" d="M0,0h22v11h-22Z" pointer-events="none" opacity="1"></path><g><g class="mark-symbol role-legend-symbol" pointer-events="none"><path transform="translate(6,6)" d="M5,0A5,5,0,1,1,-5,0A5,5,0,1,1,5,0" fill="#4c78a8" stroke-width="1.5" opacity="0.7"></path></g><g class="mark-text role-legend-label" pointer-events="none"><text text-anchor="start" transform="translate(16,9)" font-family="sans-serif" font-size="10px" fill="#000" opacity="1">0</text></g></g><path class="foreground" aria-hidden="true" d="" pointer-events="none" display="none"></path></g><g transform="translate(0,13)"><path class="background" aria-hidden="true" d="M0,0h22v11h-22Z" pointer-events="none" opacity="1"></path><g><g class="mark-symbol role-legend-symbol" pointer-events="none"><path transform="translate(6,6)" d="M5,0A5,5,0,1,1,-5,0A5,5,0,1,1,5,0" fill="#f58518" stroke-width="1.5" opacity="0.7"></path></g><g class="mark-text role-legend-label" pointer-events="none"><text text-anchor="start" transform="translate(16,9)" font-family="sans-serif" font-size="10px" fill="#000" opacity="1">1</text></g></g><path class="foreground" aria-hidden="true" d="" pointer-events="none" display="none"></path></g></g></g><path class="foreground" aria-hidden="true" d="" pointer-events="none" display="none"></path></g></g><g class="mark-text role-legend-title" pointer-events="none"><text text-anchor="start" transform="translate(0,9)" font-family="sans-serif" font-size="11px" font-weight="bold" fill="#000" opacity="1">y</text></g></g><path class="foreground" aria-hidden="true" d="" pointer-events="none" display="none"></path></g></g></g><path class="foreground" aria-hidden="true" d="" display="none"></path></g></g></g></svg>
