<?xml version="1.0" encoding="utf-8"?>
<!DOCTYPE svg PUBLIC "-//W3C//DTD SVG 1.1//EN" "http://www.w3.org/Graphics/SVG/1.1/DTD/svg11.dtd">
<svg class="marks" width="284" height="242" viewBox="0 0 284 242" version="1.1" xmlns="http://www.w3.org/2000/svg" xmlns:xlink="http://www.w3.org/1999/xlink"><rect width="284" height="242" fill="white"></rect><g fill="none" stroke-miterlimit="10" transform="translate(39,5)"><g class="mark-group role-frame root" role="graphics-object" aria-roledescription="group mark container"><g transform="translate(0,0)"><path class="background" aria-hidden="true" d="M0.5,0.5h200v200h-200Z" stroke="#ddd"></path><g><g class="mark-group role-axis" aria-hidden="true"><g transform="translate(0.5,200.5)"><path class="background" aria-hidden="true" d="M0,0h0v0h0Z" pointer-events="none"></path><g><g class="mark-rule role-axis-grid" pointer-events="none"><line transform="translate(31,-200)" x2="0" y2="200" stroke="#ddd" stroke-width="1" opacity="1"></line><line transform="translate(69,-200)" x2="0" y2="200" stroke="#ddd" stroke-width="1" opacity="1"></line><line transform="translate(108,-200)" x2="0" y2="200" stroke="#ddd" stroke-width="1" opacity="1"></line><line transform="translate(146,-200)" x2="0" y2="200" stroke="#ddd" stroke-width="1" opacity="1"></line><line transform="translate(185,-200)" x2="0" y2="200" stroke="#ddd" stroke-width="1" opacity="1"></line></g></g><path class="foreground" aria-hidden="true" d="" pointer-events="none" display="none"></path></g></g><g class="mark-group role-axis" aria-hidden="true"><g transform="translate(0.5,0.5)"><path class="background" aria-hidden="true" d="M0,0h0v0h0Z" pointer-events="none"></path><g><g class="mark-rule role-axis-grid" pointer-events="none"><line transform="translate(0,178)" x2="200" y2="0" stroke="#ddd" stroke-width="1" opacity="1"></line><line transform="translate(0,122)" x2="200" y2="0" stroke="#ddd" stroke-width="1" opacity="1"></line><line transform="translate(0,67)" x2="200" y2="0" stroke="#ddd" stroke-width="1" opacity="1"></line><line transform="translate(0,11)" x2="200" y2="0" stroke="#ddd" stroke-width="1" opacity="1"></line></g></g><path class="foreground" aria-hidden="true" d="" pointer-events="none" display="none"></path></g></g><g class="mark-group role-axis" role="graphics-symbol" aria-roledescription="axis" aria-label="X-axis titled 'x1' for a linear scale with values from -14 to 12"><g transform="translate(0.5,200.5)"><path class="background" aria-hidden="true" d="M0,0h0v0h0Z" pointer-events="none"></path><g><g class="mark-rule role-axis-tick" pointer-events="none"><line transform="translate(31,0)" x2="0" y2="5" stroke="#888" stroke-width="1" opacity="1"></line><line transform="translate(69,0)" x2="0" y2="5" stroke="#888" stroke-width="1" opacity="1"></line><line transform="translate(108,0)" x2="0" y2="5" stroke="#888" stroke-width="1" opacity="1"></line><line transform="translate(146,0)" x2="0" y2="5" stroke="#888" stroke-width="1" opacity="1"></line><line transform="translate(185,0)" x2="0" y2="5" stroke="#888" stroke-width="1" opacity="1"></line></g><g class="mark-text role-axis-label" pointer-events="none"><text text-anchor="middle" transform="translate(30.76923076923077,15)" font-family="sans-serif" font-size="10px" fill="#000" opacity="1">-10</text><text text-anchor="middle" transform="translate(69.23076923076923,15)" font-family="sans-serif" font-size="10px" fill="#000" opacity="1">-5</text><text text-anchor="middle" transform="translate(107.6923076923077,15)" font-family="sans-serif" font-size="10px" fill="#000" opacity="1">0</text><text text-anchor="middle" transform="translate(146.15384615384613,15)" font-family="sans-serif" font-size="10px" fill="#000" opacity="1">5</text><text text-anchor="middle" transform="translate(184.6153846153846,15)" font-family="sans-serif" font-size="10px" fill="#000" opacity="1">10</text></g><g class="mark-rule role-axis-domain" pointer-events="none"><line transform="translate(0,0)" x2="200" y2="0" stroke="#888" stroke-width="1" opacity="1"></line></g><g class="mark-text role-axis-title" pointer-events="none"><text text-anchor="middle" transform="translate(100,30)" font-family="sans-serif" font-size="11px" font-weight="bold" fill="#000" opacity="1">x1</text></g></g><path class="foreground" aria-hidden="true" d="" pointer-events="none" display="none"></path></g></g><g class="mark-group role-axis" role="graphics-symbol" aria-roledescription="axis" aria-label="Y-axis titled 'x2' for a linear scale with values from -2 to 16"><g transform="translate(0.5,0.5)"><path class="background" aria-hidden="true" d="M0,0h0v0h0Z" pointer-events="none"></path><g><g class="mark-rule role-axis-tick" pointer-events="none"><line transform="translate(0,178)" x2="-5" y2="0" stroke="#888" stroke-width="1" opacity="1"></line><line transform="translate(0,122)" x2="-5" y2="0" stroke="#888" stroke-width="1" opacity="1"></line><line transform="translate(0,67)" x2="-5" y2="0" stroke="#888" stroke-width="1" opacity="1"></line><line transform="translate(0,11)" x2="-5" y2="0" stroke="#888" stroke-width="1" opacity="1"></line></g><g class="mark-text role-axis-label" pointer-events="none"><text text-anchor="end" transform="translate(-7,180.77777777777777)" font-family="sans-serif" font-size="10px" fill="#000" opacity="1">0</text><text text-anchor="end" transform="translate(-7,125.22222222222223)" font-family="sans-serif" font-size="10px" fill="#000" opacity="1">5</text><text text-anchor="end" transform="translate(-7,69.66666666666667)" font-family="sans-serif" font-size="10px" fill="#000" opacity="1">10</text><text text-anchor="end" transform="translate(-7,14.111111111111116)" font-family="sans-serif" font-size="10px" fill="#000" opacity="1">15</text></g><g class="mark-rule role-axis-domain" pointer-events="none"><line transform="translate(0,200)" x2="0" y2="-200" stroke="#888" stroke-width="1" opacity="1"></line></g><g class="mark-text role-axis-title" pointer-events="none"><text text-anchor="middle" transform="translate(-23,100) rotate(-90) translate(0,-2)" font-family="sans-serif" font-size="11px" font-weight="bold" fill="#000" opacity="1">x2</text></g></g><path class="foreground" aria-hidden="true" d="" pointer-events="none" display="none"></path></g></g><g class="mark-symbol role-mark marks" role="graphics-object" aria-roledescription="symbol mark container"><path aria-label="x1: 5.30600502196; x2: 7.33548262419; y: 2" role="graphics-symbol" aria-roledescription="point" transform="translate(148.50773093814996,96.27241528678047)" d="M2.7386127875258306,0A2.7386127875258306,2.7386127875258306,0,1,1,-2.7386127875258306,0A2.7386127875258306,2.7386127875258306,0,1,1,2.7386127875258306,0" stroke="#f58518" stroke-width="2" opacity="0.7"></path><path aria-label="x1: 5.1475689215; x2: 5.88130345327; y: 2" role="graphics-symbol" aria-roledescription="point" transform="translate(147.288991703877,112.42996163028111)" d="M2.7386127875258306,0A2.7386127875258306,2.7386127875258306,0,1,1,-2.7386127875258306,0A2.7386127875258306,2.7386127875258306,0,1,1,2.7386127875258306,0" stroke="#f58518" stroke-width="2" opacity="0.7"></path><path aria-label="x1: 3.34118087269; x2: 9.36617263135; y: 2" role="graphics-symbol" aria-roledescription="point" transform="translate(133.39369902065667,73.70919298502758)" d="M2.7386127875258306,0A2.7386127875258306,2.7386127875258306,0,1,1,-2.7386127875258306,0A2.7386127875258306,2.7386127875258306,0,1,1,2.7386127875258306,0" stroke="#f58518" stroke-width="2" opacity="0.7"></path><path aria-label="x1: 2.69324274927; x2: 3.87553328778; y: 2" role="graphics-symbol" aria-roledescription="point" transform="translate(128.40955960980546,134.71629680249703)" d="M2.7386127875258306,0A2.7386127875258306,2.7386127875258306,0,1,1,-2.7386127875258306,0A2.7386127875258306,2.7386127875258306,0,1,1,2.7386127875258306,0" stroke="#f58518" stroke-width="2" opacity="0.7"></path><path aria-label="x1: 0.67705314372; x2: 10.2646236319; y: 2" role="graphics-symbol" aria-roledescription="point" transform="translate(112.90040879784911,63.7264040899866)" d="M2.7386127875258306,0A2.7386127875258306,2.7386127875258306,0,1,1,-2.7386127875258306,0A2.7386127875258306,2.7386127875258306,0,1,1,2.7386127875258306,0" stroke="#f58518" stroke-width="2" opacity="0.7"></path><path aria-label="x1: 5.96885219325; x2: 8.35757534125; y: 2" role="graphics-symbol" aria-roledescription="point" transform="translate(153.60655533268604,84.91582954169299)" d="M2.7386127875258306,0A2.7386127875258306,2.7386127875258306,0,1,1,-2.7386127875258306,0A2.7386127875258306,2.7386127875258306,0,1,1,2.7386127875258306,0" stroke="#f58518" stroke-width="2" opacity="0.7"></path><path aria-label="x1: -4.39743258847; x2: 0.225791215872; y: 1" role="graphics-symbol" aria-roledescription="point" transform="translate(73.8659031656073,175.26898649031233)" d="M2.7386127875258306,0A2.7386127875258306,2.7386127875258306,0,1,1,-2.7386127875258306,0A2.7386127875258306,2.7386127875258306,0,1,1,2.7386127875258306,0" stroke="#4c78a8" stroke-width="2" opacity="0.7"></path><path aria-label="x1: 4.09852883091; x2: 7.61260253599; y: 2" role="graphics-symbol" aria-roledescription="point" transform="translate(139.21945254546662,93.19330515568981)" d="M2.7386127875258306,0A2.7386127875258306,2.7386127875258306,0,1,1,-2.7386127875258306,0A2.7386127875258306,2.7386127875258306,0,1,1,2.7386127875258306,0" stroke="#f58518" stroke-width="2" opacity="0.7"></path><path aria-label="x1: -7.32436702303; x2: 0.0778041721399; y: 1" role="graphics-symbol" aria-roledescription="point" transform="translate(51.351022899770705,176.91328697622347)" d="M2.7386127875258306,0A2.7386127875258306,2.7386127875258306,0,1,1,-2.7386127875258306,0A2.7386127875258306,2.7386127875258306,0,1,1,2.7386127875258306,0" stroke="#4c78a8" stroke-width="2" opacity="0.7"></path><path aria-label="x1: -8.74556135644; x2: 2.55290947168; y: 1" role="graphics-symbol" aria-roledescription="point" transform="translate(40.41875879665048,149.41211698134097)" d="M2.7386127875258306,0A2.7386127875258306,2.7386127875258306,0,1,1,-2.7386127875258306,0A2.7386127875258306,2.7386127875258306,0,1,1,2.7386127875258306,0" stroke="#4c78a8" stroke-width="2" opacity="0.7"></path><path aria-label="x1: 7.61697784785; x2: 9.82225276655; y: 2" role="graphics-symbol" aria-roledescription="point" transform="translate(166.28444498348998,68.641635927209)" d="M2.7386127875258306,0A2.7386127875258306,2.7386127875258306,0,1,1,-2.7386127875258306,0A2.7386127875258306,2.7386127875258306,0,1,1,2.7386127875258306,0" stroke="#f58518" stroke-width="2" opacity="0.7"></path><path aria-label="x1: 8.07177232637; x2: 8.98316404463; y: 2" role="graphics-symbol" aria-roledescription="point" transform="translate(169.7828640490233,77.96484394853908)" d="M2.7386127875258306,0A2.7386127875258306,2.7386127875258306,0,1,1,-2.7386127875258306,0A2.7386127875258306,2.7386127875258306,0,1,1,2.7386127875258306,0" stroke="#f58518" stroke-width="2" opacity="0.7"></path><path aria-label="x1: -7.04645015044; x2: 0.244826824334; y: 1" role="graphics-symbol" aria-roledescription="point" transform="translate(53.488844996620735,175.05747972962408)" d="M2.7386127875258306,0A2.7386127875258306,2.7386127875258306,0,1,1,-2.7386127875258306,0A2.7386127875258306,2.7386127875258306,0,1,1,2.7386127875258306,0" stroke="#4c78a8" stroke-width="2" opacity="0.7"></path><path aria-label="x1: -4.70549648834; x2: -0.450496662031; y: 1" role="graphics-symbol" aria-roledescription="point" transform="translate(71.496180858915,182.783296244789)" d="M2.7386127875258306,0A2.7386127875258306,2.7386127875258306,0,1,1,-2.7386127875258306,0A2.7386127875258306,2.7386127875258306,0,1,1,2.7386127875258306,0" stroke="#4c78a8" stroke-width="2" opacity="0.7"></path><path aria-label="x1: 11.5951525606; x2: 9.22814018913; y: 2" role="graphics-symbol" aria-roledescription="point" transform="translate(196.88578892750462,75.2428867874797)" d="M2.7386127875258306,0A2.7386127875258306,2.7386127875258306,0,1,1,-2.7386127875258306,0A2.7386127875258306,2.7386127875258306,0,1,1,2.7386127875258306,0" stroke="#f58518" stroke-width="2" opacity="0.7"></path><path aria-label="x1: -6.06942496002; x2: 1.29117253821; y: 1" role="graphics-symbol" aria-roledescription="point" transform="translate(61.004423384450455,163.43141624212728)" d="M2.7386127875258306,0A2.7386127875258306,2.7386127875258306,0,1,1,-2.7386127875258306,0A2.7386127875258306,2.7386127875258306,0,1,1,2.7386127875258306,0" stroke="#4c78a8" stroke-width="2" opacity="0.7"></path><path aria-label="x1: -5.74492778144; x2: 1.04722640313; y: 1" role="graphics-symbol" aria-roledescription="point" transform="translate(63.50055552741859,166.1419288541512)" d="M2.7386127875258306,0A2.7386127875258306,2.7386127875258306,0,1,1,-2.7386127875258306,0A2.7386127875258306,2.7386127875258306,0,1,1,2.7386127875258306,0" stroke="#4c78a8" stroke-width="2" opacity="0.7"></path><path aria-label="x1: 1.11138800319; x2: 11.1333629444; y: 2" role="graphics-symbol" aria-roledescription="point" transform="translate(116.24144617840963,54.07374506167852)" d="M2.7386127875258306,0A2.7386127875258306,2.7386127875258306,0,1,1,-2.7386127875258306,0A2.7386127875258306,2.7386127875258306,0,1,1,2.7386127875258306,0" stroke="#f58518" stroke-width="2" opacity="0.7"></path><path aria-label="x1: 6.15936148403; x2: 3.38636411635; y: 2" role="graphics-symbol" aria-roledescription="point" transform="translate(155.0720114156335,140.15150981828603)" d="M2.7386127875258306,0A2.7386127875258306,2.7386127875258306,0,1,1,-2.7386127875258306,0A2.7386127875258306,2.7386127875258306,0,1,1,2.7386127875258306,0" stroke="#f58518" stroke-width="2" opacity="0.7"></path><path aria-label="x1: -8.10534530378; x2: 0.595289566027; y: 1" role="graphics-symbol" aria-roledescription="point" transform="translate(45.343497663255825,171.1634492663664)" d="M2.7386127875258306,0A2.7386127875258306,2.7386127875258306,0,1,1,-2.7386127875258306,0A2.7386127875258306,2.7386127875258306,0,1,1,2.7386127875258306,0" stroke="#4c78a8" stroke-width="2" opacity="0.7"></path><path aria-label="x1: -6.42303289735; x2: 0.581477975018; y: 1" role="graphics-symbol" aria-roledescription="point" transform="translate(58.28436232809449,171.31691138869428)" d="M2.7386127875258306,0A2.7386127875258306,2.7386127875258306,0,1,1,-2.7386127875258306,0A2.7386127875258306,2.7386127875258306,0,1,1,2.7386127875258306,0" stroke="#4c78a8" stroke-width="2" opacity="0.7"></path><path aria-label="x1: 8.37221728871; x2: 6.63661376428; y: 2" role="graphics-symbol" aria-roledescription="point" transform="translate(172.09397914390883,104.03762484129277)" d="M2.7386127875258306,0A2.7386127875258306,2.7386127875258306,0,1,1,-2.7386127875258306,0A2.7386127875258306,2.7386127875258306,0,1,1,2.7386127875258306,0" stroke="#f58518" stroke-width="2" opacity="0.7"></path><path aria-label="x1: -5.34899338382; x2: 0.329770548933; y: 1" role="graphics-symbol" aria-roledescription="point" transform="translate(66.54620473985544,174.11366056740704)" d="M2.7386127875258306,0A2.7386127875258306,2.7386127875258306,0,1,1,-2.7386127875258306,0A2.7386127875258306,2.7386127875258306,0,1,1,2.7386127875258306,0" stroke="#4c78a8" stroke-width="2" opacity="0.7"></path><path aria-label="x1: 2.08588144501; x2: 7.93357453727; y: 2" role="graphics-symbol" aria-roledescription="point" transform="translate(123.73754957701087,89.62694958584629)" d="M2.7386127875258306,0A2.7386127875258306,2.7386127875258306,0,1,1,-2.7386127875258306,0A2.7386127875258306,2.7386127875258306,0,1,1,2.7386127875258306,0" stroke="#f58518" stroke-width="2" opacity="0.7"></path><path aria-label="x1: -9.01798726506; x2: 1.85093577166; y: 1" role="graphics-symbol" aria-roledescription="point" transform="translate(38.32317488418404,157.21182475932804)" d="M2.7386127875258306,0A2.7386127875258306,2.7386127875258306,0,1,1,-2.7386127875258306,0A2.7386127875258306,2.7386127875258306,0,1,1,2.7386127875258306,0" stroke="#4c78a8" stroke-width="2" opacity="0.7"></path><path aria-label="x1: 9.64625340788; x2: 5.8000052098; y: 2" role="graphics-symbol" aria-roledescription="point" transform="translate(181.89425698367435,113.33327544665623)" d="M2.7386127875258306,0A2.7386127875258306,2.7386127875258306,0,1,1,-2.7386127875258306,0A2.7386127875258306,2.7386127875258306,0,1,1,2.7386127875258306,0" stroke="#f58518" stroke-width="2" opacity="0.7"></path><path aria-label="x1: 8.8647020337; x2: 8.92532437361; y: 2" role="graphics-symbol" aria-roledescription="point" transform="translate(175.88232333617415,78.60750695990247)" d="M2.7386127875258306,0A2.7386127875258306,2.7386127875258306,0,1,1,-2.7386127875258306,0A2.7386127875258306,2.7386127875258306,0,1,1,2.7386127875258306,0" stroke="#f58518" stroke-width="2" opacity="0.7"></path><path aria-label="x1: 0.181565835547; x2: 13.5490880069; y: 2" role="graphics-symbol" aria-roledescription="point" transform="translate(109.08896796574959,27.23235547871521)" d="M2.7386127875258306,0A2.7386127875258306,2.7386127875258306,0,1,1,-2.7386127875258306,0A2.7386127875258306,2.7386127875258306,0,1,1,2.7386127875258306,0" stroke="#f58518" stroke-width="2" opacity="0.7"></path><path aria-label="x1: 1.14396319886; x2: 8.31047926189; y: 2" role="graphics-symbol" aria-roledescription="point" transform="translate(116.49202460657919,85.43911931237496)" d="M2.7386127875258306,0A2.7386127875258306,2.7386127875258306,0,1,1,-2.7386127875258306,0A2.7386127875258306,2.7386127875258306,0,1,1,2.7386127875258306,0" stroke="#f58518" stroke-width="2" opacity="0.7"></path><path aria-label="x1: -6.49616231571; x2: 0.779810552017; y: 1" role="graphics-symbol" aria-roledescription="point" transform="translate(57.721828340713635,169.1132160887013)" d="M2.7386127875258306,0A2.7386127875258306,2.7386127875258306,0,1,1,-2.7386127875258306,0A2.7386127875258306,2.7386127875258306,0,1,1,2.7386127875258306,0" stroke="#4c78a8" stroke-width="2" opacity="0.7"></path><path aria-label="x1: -4.9429951886; x2: 0.450562588473; y: 1" role="graphics-symbol" aria-roledescription="point" transform="translate(69.66926778003271,172.77152679474378)" d="M2.7386127875258306,0A2.7386127875258306,2.7386127875258306,0,1,1,-2.7386127875258306,0A2.7386127875258306,2.7386127875258306,0,1,1,2.7386127875258306,0" stroke="#4c78a8" stroke-width="2" opacity="0.7"></path><path aria-label="x1: 0.992702282382; x2: 11.9656356103; y: 2" role="graphics-symbol" aria-roledescription="point" transform="translate(115.32847909524983,44.82627099657934)" d="M2.7386127875258306,0A2.7386127875258306,2.7386127875258306,0,1,1,-2.7386127875258306,0A2.7386127875258306,2.7386127875258306,0,1,1,2.7386127875258306,0" stroke="#f58518" stroke-width="2" opacity="0.7"></path><path aria-label="x1: 4.03781439174; x2: 5.69449409927; y: 2" role="graphics-symbol" aria-roledescription="point" transform="translate(138.75241839797522,114.50562111923203)" d="M2.7386127875258306,0A2.7386127875258306,2.7386127875258306,0,1,1,-2.7386127875258306,0A2.7386127875258306,2.7386127875258306,0,1,1,2.7386127875258306,0" stroke="#f58518" stroke-width="2" opacity="0.7"></path><path aria-label="x1: -7.0229982973; x2: 0.0522469456309; y: 1" role="graphics-symbol" aria-roledescription="point" transform="translate(53.669243866918436,177.19725615965686)" d="M2.7386127875258306,0A2.7386127875258306,2.7386127875258306,0,1,1,-2.7386127875258306,0A2.7386127875258306,2.7386127875258306,0,1,1,2.7386127875258306,0" stroke="#4c78a8" stroke-width="2" opacity="0.7"></path><path aria-label="x1: -6.33290824567; x2: 3.47661825201; y: 1" role="graphics-symbol" aria-roledescription="point" transform="translate(58.977628879492464,139.14868608881955)" d="M2.7386127875258306,0A2.7386127875258306,2.7386127875258306,0,1,1,-2.7386127875258306,0A2.7386127875258306,2.7386127875258306,0,1,1,2.7386127875258306,0" stroke="#4c78a8" stroke-width="2" opacity="0.7"></path><path aria-label="x1: -5.88514073455; x2: 1.2215416489; y: 1" role="graphics-symbol" aria-roledescription="point" transform="translate(62.421994349609555,164.20509278995848)" d="M2.7386127875258306,0A2.7386127875258306,2.7386127875258306,0,1,1,-2.7386127875258306,0A2.7386127875258306,2.7386127875258306,0,1,1,2.7386127875258306,0" stroke="#4c78a8" stroke-width="2" opacity="0.7"></path><path aria-label="x1: -7.81322311014; x2: 0.235258947946; y: 1" role="graphics-symbol" aria-roledescription="point" transform="translate(47.590591460486124,175.1637894672673)" d="M2.7386127875258306,0A2.7386127875258306,2.7386127875258306,0,1,1,-2.7386127875258306,0A2.7386127875258306,2.7386127875258306,0,1,1,2.7386127875258306,0" stroke="#4c78a8" stroke-width="2" opacity="0.7"></path><path aria-label="x1: 8.30470695981; x2: 6.57464456533; y: 2" role="graphics-symbol" aria-roledescription="point" transform="translate(171.57466892161338,104.72617149633723)" d="M2.7386127875258306,0A2.7386127875258306,2.7386127875258306,0,1,1,-2.7386127875258306,0A2.7386127875258306,2.7386127875258306,0,1,1,2.7386127875258306,0" stroke="#f58518" stroke-width="2" opacity="0.7"></path><path aria-label="x1: -6.6034236925; x2: 1.42511214663; y: 1" role="graphics-symbol" aria-roledescription="point" transform="translate(56.89674082691576,161.9431983707966)" d="M2.7386127875258306,0A2.7386127875258306,2.7386127875258306,0,1,1,-2.7386127875258306,0A2.7386127875258306,2.7386127875258306,0,1,1,2.7386127875258306,0" stroke="#4c78a8" stroke-width="2" opacity="0.7"></path><path aria-label="x1: 5.51975488687; x2: 6.48077512426; y: 2" role="graphics-symbol" aria-roledescription="point" transform="translate(150.15196066822048,105.7691652860398)" d="M2.7386127875258306,0A2.7386127875258306,2.7386127875258306,0,1,1,-2.7386127875258306,0A2.7386127875258306,2.7386127875258306,0,1,1,2.7386127875258306,0" stroke="#f58518" stroke-width="2" opacity="0.7"></path><path aria-label="x1: 7.51485847229; x2: 9.00140784101; y: 2" role="graphics-symbol" aria-roledescription="point" transform="translate(165.49891132533904,77.76213509983651)" d="M2.7386127875258306,0A2.7386127875258306,2.7386127875258306,0,1,1,-2.7386127875258306,0A2.7386127875258306,2.7386127875258306,0,1,1,2.7386127875258306,0" stroke="#f58518" stroke-width="2" opacity="0.7"></path><path aria-label="x1: -6.12368261491; x2: 1.22716388448; y: 1" role="graphics-symbol" aria-roledescription="point" transform="translate(60.587056808365894,164.14262350578437)" d="M2.7386127875258306,0A2.7386127875258306,2.7386127875258306,0,1,1,-2.7386127875258306,0A2.7386127875258306,2.7386127875258306,0,1,1,2.7386127875258306,0" stroke="#4c78a8" stroke-width="2" opacity="0.7"></path><path aria-label="x1: -6.72619832662; x2: 0.40929686309; y: 1" role="graphics-symbol" aria-roledescription="point" transform="translate(55.95232056442979,173.23003485455325)" d="M2.7386127875258306,0A2.7386127875258306,2.7386127875258306,0,1,1,-2.7386127875258306,0A2.7386127875258306,2.7386127875258306,0,1,1,2.7386127875258306,0" stroke="#4c78a8" stroke-width="2" opacity="0.7"></path><path aria-label="x1: 5.93019431117; x2: 10.7200838195; y: 2" role="graphics-symbol" aria-roledescription="point" transform="translate(153.30918700900529,58.66573533898689)" d="M2.7386127875258306,0A2.7386127875258306,2.7386127875258306,0,1,1,-2.7386127875258306,0A2.7386127875258306,2.7386127875258306,0,1,1,2.7386127875258306,0" stroke="#f58518" stroke-width="2" opacity="0.7"></path><path aria-label="x1: 4.10620227243; x2: 6.58025238603; y: 2" role="graphics-symbol" aria-roledescription="point" transform="translate(139.27847901867668,104.66386237748635)" d="M2.7386127875258306,0A2.7386127875258306,2.7386127875258306,0,1,1,-2.7386127875258306,0A2.7386127875258306,2.7386127875258306,0,1,1,2.7386127875258306,0" stroke="#f58518" stroke-width="2" opacity="0.7"></path><path aria-label="x1: -3.31797349442; x2: 10.9126768148; y: 2" role="graphics-symbol" aria-roledescription="point" transform="translate(82.1694346582877,56.52581316906318)" d="M2.7386127875258306,0A2.7386127875258306,2.7386127875258306,0,1,1,-2.7386127875258306,0A2.7386127875258306,2.7386127875258306,0,1,1,2.7386127875258306,0" stroke="#f58518" stroke-width="2" opacity="0.7"></path><path aria-label="x1: 6.90935406295; x2: 5.04623034935; y: 2" role="graphics-symbol" aria-roledescription="point" transform="translate(160.84118509964955,121.70855167385697)" d="M2.7386127875258306,0A2.7386127875258306,2.7386127875258306,0,1,1,-2.7386127875258306,0A2.7386127875258306,2.7386127875258306,0,1,1,2.7386127875258306,0" stroke="#f58518" stroke-width="2" opacity="0.7"></path><path aria-label="x1: 3.0718701931; x2: 7.36718962935; y: 2" role="graphics-symbol" aria-roledescription="point" transform="translate(131.3220784084995,95.92011522941925)" d="M2.7386127875258306,0A2.7386127875258306,2.7386127875258306,0,1,1,-2.7386127875258306,0A2.7386127875258306,2.7386127875258306,0,1,1,2.7386127875258306,0" stroke="#f58518" stroke-width="2" opacity="0.7"></path><path aria-label="x1: -5.98461623635; x2: 1.52150151111; y: 1" role="graphics-symbol" aria-roledescription="point" transform="translate(61.65679818196139,160.87220543205993)" d="M2.7386127875258306,0A2.7386127875258306,2.7386127875258306,0,1,1,-2.7386127875258306,0A2.7386127875258306,2.7386127875258306,0,1,1,2.7386127875258306,0" stroke="#4c78a8" stroke-width="2" opacity="0.7"></path><path aria-label="x1: 5.49440038119; x2: 8.29968830182; y: 2" role="graphics-symbol" aria-roledescription="point" transform="translate(149.95692600915729,85.5590188687056)" d="M2.7386127875258306,0A2.7386127875258306,2.7386127875258306,0,1,1,-2.7386127875258306,0A2.7386127875258306,2.7386127875258306,0,1,1,2.7386127875258306,0" stroke="#f58518" stroke-width="2" opacity="0.7"></path><path aria-label="x1: 1.94809604269; x2: 14.1084271328; y: 2" role="graphics-symbol" aria-roledescription="point" transform="translate(122.6776618668166,21.017476301931225)" d="M2.7386127875258306,0A2.7386127875258306,2.7386127875258306,0,1,1,-2.7386127875258306,0A2.7386127875258306,2.7386127875258306,0,1,1,2.7386127875258306,0" stroke="#f58518" stroke-width="2" opacity="0.7"></path><path aria-label="x1: -8.01895143351; x2: -0.143959320022; y: 1" role="graphics-symbol" aria-roledescription="point" transform="translate(46.008065896043796,179.37732577802458)" d="M2.7386127875258306,0A2.7386127875258306,2.7386127875258306,0,1,1,-2.7386127875258306,0A2.7386127875258306,2.7386127875258306,0,1,1,2.7386127875258306,0" stroke="#4c78a8" stroke-width="2" opacity="0.7"></path><path aria-label="x1: 7.44551006734; x2: 2.04832515786; y: 2" role="graphics-symbol" aria-roledescription="point" transform="translate(164.96546205648278,155.0186093571398)" d="M2.7386127875258306,0A2.7386127875258306,2.7386127875258306,0,1,1,-2.7386127875258306,0A2.7386127875258306,2.7386127875258306,0,1,1,2.7386127875258306,0" stroke="#f58518" stroke-width="2" opacity="0.7"></path><path aria-label="x1: 6.79970738398; x2: 6.24883613171; y: 2" role="graphics-symbol" aria-roledescription="point" transform="translate(159.9977491075646,108.34626520327362)" d="M2.7386127875258306,0A2.7386127875258306,2.7386127875258306,0,1,1,-2.7386127875258306,0A2.7386127875258306,2.7386127875258306,0,1,1,2.7386127875258306,0" stroke="#f58518" stroke-width="2" opacity="0.7"></path><path aria-label="x1: -5.01437330203; x2: 0.886339288912; y: 1" role="graphics-symbol" aria-roledescription="point" transform="translate(69.12020536898262,167.92956345653369)" d="M2.7386127875258306,0A2.7386127875258306,2.7386127875258306,0,1,1,-2.7386127875258306,0A2.7386127875258306,2.7386127875258306,0,1,1,2.7386127875258306,0" stroke="#4c78a8" stroke-width="2" opacity="0.7"></path><path aria-label="x1: -5.69033155277; x2: 0.422751396624; y: 1" role="graphics-symbol" aria-roledescription="point" transform="translate(63.92052651713649,173.08054003750925)" d="M2.7386127875258306,0A2.7386127875258306,2.7386127875258306,0,1,1,-2.7386127875258306,0A2.7386127875258306,2.7386127875258306,0,1,1,2.7386127875258306,0" stroke="#4c78a8" stroke-width="2" opacity="0.7"></path><path aria-label="x1: -6.41678268532; x2: 0.467753098395; y: 1" role="graphics-symbol" aria-roledescription="point" transform="translate(58.33244088216533,172.58052112893998)" d="M2.7386127875258306,0A2.7386127875258306,2.7386127875258306,0,1,1,-2.7386127875258306,0A2.7386127875258306,2.7386127875258306,0,1,1,2.7386127875258306,0" stroke="#4c78a8" stroke-width="2" opacity="0.7"></path><path aria-label="x1: -6.72458162506; x2: 1.07139076864; y: 1" role="graphics-symbol" aria-roledescription="point" transform="translate(55.964756730270416,165.87343590402634)" d="M2.7386127875258306,0A2.7386127875258306,2.7386127875258306,0,1,1,-2.7386127875258306,0A2.7386127875258306,2.7386127875258306,0,1,1,2.7386127875258306,0" stroke="#4c78a8" stroke-width="2" opacity="0.7"></path><path aria-label="x1: -4.99326690011; x2: 0.680293286169; y: 1" role="graphics-symbol" aria-roledescription="point" transform="translate(69.28256230683998,170.21896348700605)" d="M2.7386127875258306,0A2.7386127875258306,2.7386127875258306,0,1,1,-2.7386127875258306,0A2.7386127875258306,2.7386127875258306,0,1,1,2.7386127875258306,0" stroke="#4c78a8" stroke-width="2" opacity="0.7"></path><path aria-label="x1: 10.5792781793; x2: 14.0171960073; y: 2" role="graphics-symbol" aria-roledescription="point" transform="translate(189.07137060983658,22.03115547436889)" d="M2.7386127875258306,0A2.7386127875258306,2.7386127875258306,0,1,1,-2.7386127875258306,0A2.7386127875258306,2.7386127875258306,0,1,1,2.7386127875258306,0" stroke="#f58518" stroke-width="2" opacity="0.7"></path><path aria-label="x1: -6.90762247941; x2: 0.702497386409; y: 1" role="graphics-symbol" aria-roledescription="point" transform="translate(54.556750158422496,169.9722512621215)" d="M2.7386127875258306,0A2.7386127875258306,2.7386127875258306,0,1,1,-2.7386127875258306,0A2.7386127875258306,2.7386127875258306,0,1,1,2.7386127875258306,0" stroke="#4c78a8" stroke-width="2" opacity="0.7"></path><path aria-label="x1: -7.00677153307; x2: 0.0612221088755; y: 1" role="graphics-symbol" aria-roledescription="point" transform="translate(53.79406513023256,177.09753212360522)" d="M2.7386127875258306,0A2.7386127875258306,2.7386127875258306,0,1,1,-2.7386127875258306,0A2.7386127875258306,2.7386127875258306,0,1,1,2.7386127875258306,0" stroke="#4c78a8" stroke-width="2" opacity="0.7"></path><path aria-label="x1: -7.41771297815; x2: 1.19382444086; y: 1" role="graphics-symbol" aria-roledescription="point" transform="translate(50.632977091115464,164.5130617681851)" d="M2.7386127875258306,0A2.7386127875258306,2.7386127875258306,0,1,1,-2.7386127875258306,0A2.7386127875258306,2.7386127875258306,0,1,1,2.7386127875258306,0" stroke="#4c78a8" stroke-width="2" opacity="0.7"></path><path aria-label="x1: 6.46170864746; x2: 6.36232655337; y: 2" role="graphics-symbol" aria-roledescription="point" transform="translate(157.3977588266368,107.08526051808269)" d="M2.7386127875258306,0A2.7386127875258306,2.7386127875258306,0,1,1,-2.7386127875258306,0A2.7386127875258306,2.7386127875258306,0,1,1,2.7386127875258306,0" stroke="#f58518" stroke-width="2" opacity="0.7"></path><path aria-label="x1: 5.80564835856; x2: 6.91509518258; y: 2" role="graphics-symbol" aria-roledescription="point" transform="translate(152.3511412197267,100.94338686020015)" d="M2.7386127875258306,0A2.7386127875258306,2.7386127875258306,0,1,1,-2.7386127875258306,0A2.7386127875258306,2.7386127875258306,0,1,1,2.7386127875258306,0" stroke="#f58518" stroke-width="2" opacity="0.7"></path><path aria-label="x1: -6.16762414759; x2: 0.581065267643; y: 1" role="graphics-symbol" aria-roledescription="point" transform="translate(60.249045018555826,171.32149702618435)" d="M2.7386127875258306,0A2.7386127875258306,2.7386127875258306,0,1,1,-2.7386127875258306,0A2.7386127875258306,2.7386127875258306,0,1,1,2.7386127875258306,0" stroke="#4c78a8" stroke-width="2" opacity="0.7"></path><path aria-label="x1: 1.0867390891; x2: 13.428551195; y: 2" role="graphics-symbol" aria-roledescription="point" transform="translate(116.05183914689556,28.571653388359366)" d="M2.7386127875258306,0A2.7386127875258306,2.7386127875258306,0,1,1,-2.7386127875258306,0A2.7386127875258306,2.7386127875258306,0,1,1,2.7386127875258306,0" stroke="#f58518" stroke-width="2" opacity="0.7"></path><path aria-label="x1: 6.07383219656; x2: 9.26212408976; y: 2" role="graphics-symbol" aria-roledescription="point" transform="translate(154.41409381972483,74.86528789153581)" d="M2.7386127875258306,0A2.7386127875258306,2.7386127875258306,0,1,1,-2.7386127875258306,0A2.7386127875258306,2.7386127875258306,0,1,1,2.7386127875258306,0" stroke="#f58518" stroke-width="2" opacity="0.7"></path><path aria-label="x1: -7.02369179926; x2: 2.12596074157; y: 1" role="graphics-symbol" aria-roledescription="point" transform="translate(53.663909236480535,154.15599176033882)" d="M2.7386127875258306,0A2.7386127875258306,2.7386127875258306,0,1,1,-2.7386127875258306,0A2.7386127875258306,2.7386127875258306,0,1,1,2.7386127875258306,0" stroke="#4c78a8" stroke-width="2" opacity="0.7"></path><path aria-label="x1: -6.06620206121; x2: -0.349930576194; y: 1" role="graphics-symbol" aria-roledescription="point" transform="translate(61.029214913749726,181.6658952910461)" d="M2.7386127875258306,0A2.7386127875258306,2.7386127875258306,0,1,1,-2.7386127875258306,0A2.7386127875258306,2.7386127875258306,0,1,1,2.7386127875258306,0" stroke="#4c78a8" stroke-width="2" opacity="0.7"></path><path aria-label="x1: -6.96002981779; x2: 1.16032866768; y: 1" role="graphics-symbol" aria-roledescription="point" transform="translate(54.15361678624029,164.88523702583015)" d="M2.7386127875258306,0A2.7386127875258306,2.7386127875258306,0,1,1,-2.7386127875258306,0A2.7386127875258306,2.7386127875258306,0,1,1,2.7386127875258306,0" stroke="#4c78a8" stroke-width="2" opacity="0.7"></path><path aria-label="x1: -6.8381673094; x2: 1.12860433898; y: 1" role="graphics-symbol" aria-roledescription="point" transform="translate(55.09102069691119,165.23772956693995)" d="M2.7386127875258306,0A2.7386127875258306,2.7386127875258306,0,1,1,-2.7386127875258306,0A2.7386127875258306,2.7386127875258306,0,1,1,2.7386127875258306,0" stroke="#4c78a8" stroke-width="2" opacity="0.7"></path><path aria-label="x1: 9.04678614978; x2: 10.2340668554; y: 2" role="graphics-symbol" aria-roledescription="point" transform="translate(177.28297038294457,64.06592382921339)" d="M2.7386127875258306,0A2.7386127875258306,2.7386127875258306,0,1,1,-2.7386127875258306,0A2.7386127875258306,2.7386127875258306,0,1,1,2.7386127875258306,0" stroke="#f58518" stroke-width="2" opacity="0.7"></path><path aria-label="x1: 3.75726886577; x2: 8.3677244503; y: 2" role="graphics-symbol" aria-roledescription="point" transform="translate(136.5943758905217,84.80306166329632)" d="M2.7386127875258306,0A2.7386127875258306,2.7386127875258306,0,1,1,-2.7386127875258306,0A2.7386127875258306,2.7386127875258306,0,1,1,2.7386127875258306,0" stroke="#f58518" stroke-width="2" opacity="0.7"></path><path aria-label="x1: -2.73411830602; x2: 6.37507005737; y: 2" role="graphics-symbol" aria-roledescription="point" transform="translate(86.66062841522634,106.94366602925038)" d="M2.7386127875258306,0A2.7386127875258306,2.7386127875258306,0,1,1,-2.7386127875258306,0A2.7386127875258306,2.7386127875258306,0,1,1,2.7386127875258306,0" stroke="#f58518" stroke-width="2" opacity="0.7"></path><path aria-label="x1: -6.68009915274; x2: 1.02337727789; y: 1" role="graphics-symbol" aria-roledescription="point" transform="translate(56.30692959427945,166.40691913458284)" d="M2.7386127875258306,0A2.7386127875258306,2.7386127875258306,0,1,1,-2.7386127875258306,0A2.7386127875258306,2.7386127875258306,0,1,1,2.7386127875258306,0" stroke="#4c78a8" stroke-width="2" opacity="0.7"></path><path aria-label="x1: 6.83198192413; x2: 6.9595823299; y: 2" role="graphics-symbol" aria-roledescription="point" transform="translate(160.24601480100733,100.44908522329072)" d="M2.7386127875258306,0A2.7386127875258306,2.7386127875258306,0,1,1,-2.7386127875258306,0A2.7386127875258306,2.7386127875258306,0,1,1,2.7386127875258306,0" stroke="#f58518" stroke-width="2" opacity="0.7"></path><path aria-label="x1: -6.50917984106; x2: 0.439814448433; y: 1" role="graphics-symbol" aria-roledescription="point" transform="translate(57.621693530303716,172.89095057296313)" d="M2.7386127875258306,0A2.7386127875258306,2.7386127875258306,0,1,1,-2.7386127875258306,0A2.7386127875258306,2.7386127875258306,0,1,1,2.7386127875258306,0" stroke="#4c78a8" stroke-width="2" opacity="0.7"></path><path aria-label="x1: 0.113506079729; x2: 9.5995405891; y: 2" role="graphics-symbol" aria-roledescription="point" transform="translate(108.56543138253278,71.11621567669415)" d="M2.7386127875258306,0A2.7386127875258306,2.7386127875258306,0,1,1,-2.7386127875258306,0A2.7386127875258306,2.7386127875258306,0,1,1,2.7386127875258306,0" stroke="#f58518" stroke-width="2" opacity="0.7"></path><path aria-label="x1: 2.67137411295; x2: 12.3955836674; y: 2" role="graphics-symbol" aria-roledescription="point" transform="translate(128.24133933035154,40.04907036184322)" d="M2.7386127875258306,0A2.7386127875258306,2.7386127875258306,0,1,1,-2.7386127875258306,0A2.7386127875258306,2.7386127875258306,0,1,1,2.7386127875258306,0" stroke="#f58518" stroke-width="2" opacity="0.7"></path><path aria-label="x1: -5.52579042115; x2: 1.66790810008; y: 1" role="graphics-symbol" aria-roledescription="point" transform="translate(65.1862275295844,159.24546555465656)" d="M2.7386127875258306,0A2.7386127875258306,2.7386127875258306,0,1,1,-2.7386127875258306,0A2.7386127875258306,2.7386127875258306,0,1,1,2.7386127875258306,0" stroke="#4c78a8" stroke-width="2" opacity="0.7"></path><path aria-label="x1: 4.41227814754; x2: 12.4000230424; y: 2" role="graphics-symbol" aria-roledescription="point" transform="translate(141.63290882724183,39.99974397375572)" d="M2.7386127875258306,0A2.7386127875258306,2.7386127875258306,0,1,1,-2.7386127875258306,0A2.7386127875258306,2.7386127875258306,0,1,1,2.7386127875258306,0" stroke="#f58518" stroke-width="2" opacity="0.7"></path><path aria-label="x1: -6.29404627129; x2: 0.701001026944; y: 1" role="graphics-symbol" aria-roledescription="point" transform="translate(59.27656714390825,169.988877478398)" d="M2.7386127875258306,0A2.7386127875258306,2.7386127875258306,0,1,1,-2.7386127875258306,0A2.7386127875258306,2.7386127875258306,0,1,1,2.7386127875258306,0" stroke="#4c78a8" stroke-width="2" opacity="0.7"></path><path aria-label="x1: -5.00586372429; x2: 1.42893433093; y: 1" role="graphics-symbol" aria-roledescription="point" transform="translate(69.1856636593086,161.90072965637083)" d="M2.7386127875258306,0A2.7386127875258306,2.7386127875258306,0,1,1,-2.7386127875258306,0A2.7386127875258306,2.7386127875258306,0,1,1,2.7386127875258306,0" stroke="#4c78a8" stroke-width="2" opacity="0.7"></path><path aria-label="x1: -7.00512095389; x2: 0.376238691761; y: 1" role="graphics-symbol" aria-roledescription="point" transform="translate(53.806761893118995,173.59734786932393)" d="M2.7386127875258306,0A2.7386127875258306,2.7386127875258306,0,1,1,-2.7386127875258306,0A2.7386127875258306,2.7386127875258306,0,1,1,2.7386127875258306,0" stroke="#4c78a8" stroke-width="2" opacity="0.7"></path><path aria-label="x1: -5.6401866547; x2: 0.169716541322; y: 1" role="graphics-symbol" aria-roledescription="point" transform="translate(64.30625650233249,175.89203842975425)" d="M2.7386127875258306,0A2.7386127875258306,2.7386127875258306,0,1,1,-2.7386127875258306,0A2.7386127875258306,2.7386127875258306,0,1,1,2.7386127875258306,0" stroke="#4c78a8" stroke-width="2" opacity="0.7"></path><path aria-label="x1: -7.92616877524; x2: 0.280874368137; y: 1" role="graphics-symbol" aria-roledescription="point" transform="translate(46.72177865202302,174.65695146514926)" d="M2.7386127875258306,0A2.7386127875258306,2.7386127875258306,0,1,1,-2.7386127875258306,0A2.7386127875258306,2.7386127875258306,0,1,1,2.7386127875258306,0" stroke="#4c78a8" stroke-width="2" opacity="0.7"></path><path aria-label="x1: -5.92889541776; x2: 0.506972736714; y: 1" role="graphics-symbol" aria-roledescription="point" transform="translate(62.0854198633513,172.14474736984116)" d="M2.7386127875258306,0A2.7386127875258306,2.7386127875258306,0,1,1,-2.7386127875258306,0A2.7386127875258306,2.7386127875258306,0,1,1,2.7386127875258306,0" stroke="#4c78a8" stroke-width="2" opacity="0.7"></path><path aria-label="x1: 2.35487952738; x2: 7.12506227906; y: 2" role="graphics-symbol" aria-roledescription="point" transform="translate(125.80676559526015,98.6104191215428)" d="M2.7386127875258306,0A2.7386127875258306,2.7386127875258306,0,1,1,-2.7386127875258306,0A2.7386127875258306,2.7386127875258306,0,1,1,2.7386127875258306,0" stroke="#f58518" stroke-width="2" opacity="0.7"></path><path aria-label="x1: -5.19910165131; x2: 1.16159574663; y: 1" role="graphics-symbol" aria-roledescription="point" transform="translate(67.69921806687394,164.87115837073753)" d="M2.7386127875258306,0A2.7386127875258306,2.7386127875258306,0,1,1,-2.7386127875258306,0A2.7386127875258306,2.7386127875258306,0,1,1,2.7386127875258306,0" stroke="#4c78a8" stroke-width="2" opacity="0.7"></path><path aria-label="x1: -5.84518803906; x2: 0.606214807999; y: 1" role="graphics-symbol" aria-roledescription="point" transform="translate(62.72932277644939,171.04205768890134)" d="M2.7386127875258306,0A2.7386127875258306,2.7386127875258306,0,1,1,-2.7386127875258306,0A2.7386127875258306,2.7386127875258306,0,1,1,2.7386127875258306,0" stroke="#4c78a8" stroke-width="2" opacity="0.7"></path><path aria-label="x1: 5.70646850816; x2: 10.55891457; y: 2" role="graphics-symbol" aria-roledescription="point" transform="translate(151.58821929353013,60.456504777508194)" d="M2.7386127875258306,0A2.7386127875258306,2.7386127875258306,0,1,1,-2.7386127875258306,0A2.7386127875258306,2.7386127875258306,0,1,1,2.7386127875258306,0" stroke="#f58518" stroke-width="2" opacity="0.7"></path><path aria-label="x1: 3.09197541825; x2: 9.20428561607; y: 2" role="graphics-symbol" aria-roledescription="point" transform="translate(131.47673398653444,75.5079375991869)" d="M2.7386127875258306,0A2.7386127875258306,2.7386127875258306,0,1,1,-2.7386127875258306,0A2.7386127875258306,2.7386127875258306,0,1,1,2.7386127875258306,0" stroke="#f58518" stroke-width="2" opacity="0.7"></path><path aria-label="x1: 8.02444912974; x2: 8.24945263157; y: 2" role="graphics-symbol" aria-roledescription="point" transform="translate(169.41883945950985,86.11719298253524)" d="M2.7386127875258306,0A2.7386127875258306,2.7386127875258306,0,1,1,-2.7386127875258306,0A2.7386127875258306,2.7386127875258306,0,1,1,2.7386127875258306,0" stroke="#f58518" stroke-width="2" opacity="0.7"></path><path aria-label="x1: -6.44667160134; x2: 2.48991733197; y: 1" role="graphics-symbol" aria-roledescription="point" transform="translate(58.102526143561896,150.11202964476266)" d="M2.7386127875258306,0A2.7386127875258306,2.7386127875258306,0,1,1,-2.7386127875258306,0A2.7386127875258306,2.7386127875258306,0,1,1,2.7386127875258306,0" stroke="#4c78a8" stroke-width="2" opacity="0.7"></path><path aria-label="x1: 8.88047790718; x2: 7.55418159757; y: 2" role="graphics-symbol" aria-roledescription="point" transform="translate(176.0036762090786,93.84242669364124)" d="M2.7386127875258306,0A2.7386127875258306,2.7386127875258306,0,1,1,-2.7386127875258306,0A2.7386127875258306,2.7386127875258306,0,1,1,2.7386127875258306,0" stroke="#f58518" stroke-width="2" opacity="0.7"></path><path aria-label="x1: -12.6075103346; x2: 8.61072749305; y: 1" role="graphics-symbol" aria-roledescription="point" transform="translate(10.71145896492034,82.10302785495071)" d="M2.7386127875258306,0A2.7386127875258306,2.7386127875258306,0,1,1,-2.7386127875258306,0A2.7386127875258306,2.7386127875258306,0,1,1,2.7386127875258306,0" stroke="#4c78a8" stroke-width="2" opacity="0.7"></path><path aria-label="x1: 1.0250686299; x2: 2.92454651958; y: 2" role="graphics-symbol" aria-roledescription="point" transform="translate(115.57745099924188,145.28281644911897)" d="M2.7386127875258306,0A2.7386127875258306,2.7386127875258306,0,1,1,-2.7386127875258306,0A2.7386127875258306,2.7386127875258306,0,1,1,2.7386127875258306,0" stroke="#f58518" stroke-width="2" opacity="0.7"></path><path aria-label="x1: -5.64713558982; x2: 0.246474462046; y: 1" role="graphics-symbol" aria-roledescription="point" transform="translate(64.25280315520746,175.0391726439339)" d="M2.7386127875258306,0A2.7386127875258306,2.7386127875258306,0,1,1,-2.7386127875258306,0A2.7386127875258306,2.7386127875258306,0,1,1,2.7386127875258306,0" stroke="#4c78a8" stroke-width="2" opacity="0.7"></path><path aria-label="x1: -7.69527426736; x2: -0.681081505334; y: 1" role="graphics-symbol" aria-roledescription="point" transform="translate(48.49789025109139,185.34535005927083)" d="M2.7386127875258306,0A2.7386127875258306,2.7386127875258306,0,1,1,-2.7386127875258306,0A2.7386127875258306,2.7386127875258306,0,1,1,2.7386127875258306,0" stroke="#4c78a8" stroke-width="2" opacity="0.7"></path></g><g class="mark-group role-legend" role="graphics-symbol" aria-roledescription="legend" aria-label="Symbol legend titled 'y' for stroke color with 2 values: 1, 2"><g transform="translate(218,0)"><path class="background" aria-hidden="true" d="M0,0h22v45h-22Z" pointer-events="none"></path><g><g class="mark-group role-legend-entry"><g transform="translate(0,16)"><path class="background" aria-hidden="true" d="M0,0h0v0h0Z" pointer-events="none"></path><g><g class="mark-group role-scope" role="graphics-object" aria-roledescription="group mark container"><g transform="translate(0,0)"><path class="background" aria-hidden="true" d="M0,0h22v12.5h-22Z" pointer-events="none" opacity="1"></path><g><g class="mark-symbol role-legend-symbol" pointer-events="none"><path transform="translate(6,6)" d="M5,0A5,5,0,1,1,-5,0A5,5,0,1,1,5,0" stroke="#4c78a8" stroke-width="1.5" opacity="0.7"></path></g><g class="mark-text role-legend-label" pointer-events="none"><text text-anchor="start" transform="translate(16,9)" font-family="sans-serif" font-size="10px" fill="#000" opacity="1">1</text></g></g><path class="foreground" aria-hidden="true" d="" pointer-events="none" display="none"></path></g><g transform="translate(0,16)"><path class="background" aria-hidden="true" d="M0,0h22v12.5h-22Z" pointer-events="none" opacity="1"></path><g><g class="mark-symbol role-legend-symbol" pointer-events="none"><path transform="translate(6,6)" d="M5,0A5,5,0,1,1,-5,0A5,5,0,1,1,5,0" stroke="#f58518" stroke-width="1.5" opacity="0.7"></path></g><g class="mark-text role-legend-label" pointer-events="none"><text text-anchor="start" transform="translate(16,9)" font-family="sans-serif" font-size="10px" fill="#000" opacity="1">2</text></g></g><path class="foreground" aria-hidden="true" d="" pointer-events="none" display="none"></path></g></g></g><path class="foreground" aria-hidden="true" d="" pointer-events="none" display="none"></path></g></g><g class="mark-text role-legend-title" pointer-events="none"><text text-anchor="start" transform="translate(0,9)" font-family="sans-serif" font-size="11px" font-weight="bold" fill="#000" opacity="1">y</text></g></g><path class="foreground" aria-hidden="true" d="" pointer-events="none" display="none"></path></g></g></g><path class="foreground" aria-hidden="true" d="" display="none"></path></g></g></g></svg>
