<?xml version="1.0" encoding="utf-8"?>
<!DOCTYPE svg PUBLIC "-//W3C//DTD SVG 1.1//EN" "http://www.w3.org/Graphics/SVG/1.1/DTD/svg11.dtd">
<svg class="marks" width="284" height="247" viewBox="0 0 284 247" version="1.1" xmlns="http://www.w3.org/2000/svg" xmlns:xlink="http://www.w3.org/1999/xlink"><rect width="284" height="247" fill="white"></rect><g fill="none" stroke-miterlimit="10" transform="translate(39,10)"><g class="mark-group role-frame root" role="graphics-object" aria-roledescription="group mark container"><g transform="translate(0,0)"><path class="background" aria-hidden="true" d="M0.5,0.5h200v200h-200Z" stroke="#ddd"></path><g><g class="mark-group role-axis" aria-hidden="true"><g transform="translate(0.5,200.5)"><path class="background" aria-hidden="true" d="M0,0h0v0h0Z" pointer-events="none"></path><g><g class="mark-rule role-axis-grid" pointer-events="none"><line transform="translate(31,-200)" x2="0" y2="200" stroke="#ddd" stroke-width="1" opacity="1"></line><line transform="translate(69,-200)" x2="0" y2="200" stroke="#ddd" stroke-width="1" opacity="1"></line><line transform="translate(108,-200)" x2="0" y2="200" stroke="#ddd" stroke-width="1" opacity="1"></line><line transform="translate(146,-200)" x2="0" y2="200" stroke="#ddd" stroke-width="1" opacity="1"></line><line transform="translate(185,-200)" x2="0" y2="200" stroke="#ddd" stroke-width="1" opacity="1"></line></g></g><path class="foreground" aria-hidden="true" d="" pointer-events="none" display="none"></path></g></g><g class="mark-group role-axis" aria-hidden="true"><g transform="translate(0.5,0.5)"><path class="background" aria-hidden="true" d="M0,0h0v0h0Z" pointer-events="none"></path><g><g class="mark-rule role-axis-grid" pointer-events="none"><line transform="translate(0,200)" x2="200" y2="0" stroke="#ddd" stroke-width="1" opacity="1"></line><line transform="translate(0,138)" x2="200" y2="0" stroke="#ddd" stroke-width="1" opacity="1"></line><line transform="translate(0,75)" x2="200" y2="0" stroke="#ddd" stroke-width="1" opacity="1"></line><line transform="translate(0,13)" x2="200" y2="0" stroke="#ddd" stroke-width="1" opacity="1"></line></g></g><path class="foreground" aria-hidden="true" d="" pointer-events="none" display="none"></path></g></g><g class="mark-group role-axis" role="graphics-symbol" aria-roledescription="axis" aria-label="X-axis titled 'x1' for a linear scale with values from -14 to 12"><g transform="translate(0.5,200.5)"><path class="background" aria-hidden="true" d="M0,0h0v0h0Z" pointer-events="none"></path><g><g class="mark-rule role-axis-tick" pointer-events="none"><line transform="translate(31,0)" x2="0" y2="5" stroke="#888" stroke-width="1" opacity="1"></line><line transform="translate(69,0)" x2="0" y2="5" stroke="#888" stroke-width="1" opacity="1"></line><line transform="translate(108,0)" x2="0" y2="5" stroke="#888" stroke-width="1" opacity="1"></line><line transform="translate(146,0)" x2="0" y2="5" stroke="#888" stroke-width="1" opacity="1"></line><line transform="translate(185,0)" x2="0" y2="5" stroke="#888" stroke-width="1" opacity="1"></line></g><g class="mark-text role-axis-label" pointer-events="none"><text text-anchor="middle" transform="translate(30.76923076923077,15)" font-family="sans-serif" font-size="10px" fill="#000" opacity="1">-10</text><text text-anchor="middle" transform="translate(69.23076923076923,15)" font-family="sans-serif" font-size="10px" fill="#000" opacity="1">-5</text><text text-anchor="middle" transform="translate(107.6923076923077,15)" font-family="sans-serif" font-size="10px" fill="#000" opacity="1">0</text><text text-anchor="middle" transform="translate(146.15384615384613,15)" font-family="sans-serif" font-size="10px" fill="#000" opacity="1">5</text><text text-anchor="middle" transform="translate(184.6153846153846,15)" font-family="sans-serif" font-size="10px" fill="#000" opacity="1">10</text></g><g class="mark-rule role-axis-domain" pointer-events="none"><line transform="translate(0,0)" x2="200" y2="0" stroke="#888" stroke-width="1" opacity="1"></line></g><g class="mark-text role-axis-title" pointer-events="none"><text text-anchor="middle" transform="translate(100,30)" font-family="sans-serif" font-size="11px" font-weight="bold" fill="#000" opacity="1">x1</text></g></g><path class="foreground" aria-hidden="true" d="" pointer-events="none" display="none"></path></g></g><g class="mark-group role-axis" role="graphics-symbol" aria-roledescription="axis" aria-label="Y-axis titled 'x3' for a linear scale with values from 0 to 16"><g transform="translate(0.5,0.5)"><path class="background" aria-hidden="true" d="M0,0h0v0h0Z" pointer-events="none"></path><g><g class="mark-rule role-axis-tick" pointer-events="none"><line transform="translate(0,200)" x2="-5" y2="0" stroke="#888" stroke-width="1" opacity="1"></line><line transform="translate(0,138)" x2="-5" y2="0" stroke="#888" stroke-width="1" opacity="1"></line><line transform="translate(0,75)" x2="-5" y2="0" stroke="#888" stroke-width="1" opacity="1"></line><line transform="translate(0,13)" x2="-5" y2="0" stroke="#888" stroke-width="1" opacity="1"></line></g><g class="mark-text role-axis-label" pointer-events="none"><text text-anchor="end" transform="translate(-7,203)" font-family="sans-serif" font-size="10px" fill="#000" opacity="1">0</text><text text-anchor="end" transform="translate(-7,140.5)" font-family="sans-serif" font-size="10px" fill="#000" opacity="1">5</text><text text-anchor="end" transform="translate(-7,78)" font-family="sans-serif" font-size="10px" fill="#000" opacity="1">10</text><text text-anchor="end" transform="translate(-7,15.5)" font-family="sans-serif" font-size="10px" fill="#000" opacity="1">15</text></g><g class="mark-rule role-axis-domain" pointer-events="none"><line transform="translate(0,200)" x2="0" y2="-200" stroke="#888" stroke-width="1" opacity="1"></line></g><g class="mark-text role-axis-title" pointer-events="none"><text text-anchor="middle" transform="translate(-23,100) rotate(-90) translate(0,-2)" font-family="sans-serif" font-size="11px" font-weight="bold" fill="#000" opacity="1">x3</text></g></g><path class="foreground" aria-hidden="true" d="" pointer-events="none" display="none"></path></g></g><g class="mark-symbol role-mark marks" role="graphics-object" aria-roledescription="symbol mark container"><path aria-label="x1: 5.30600502196; x3: 9.94460100046; y: 2" role="graphics-symbol" aria-roledescription="point" transform="translate(148.50773093814996,75.69248749427466)" d="M2.7386127875258306,0A2.7386127875258306,2.7386127875258306,0,1,1,-2.7386127875258306,0A2.7386127875258306,2.7386127875258306,0,1,1,2.7386127875258306,0" stroke="#f58518" stroke-width="2" opacity="0.7"></path><path aria-label="x1: 5.1475689215; x3: 8.84096305393; y: 2" role="graphics-symbol" aria-roledescription="point" transform="translate(147.288991703877,89.48796182587135)" d="M2.7386127875258306,0A2.7386127875258306,2.7386127875258306,0,1,1,-2.7386127875258306,0A2.7386127875258306,2.7386127875258306,0,1,1,2.7386127875258306,0" stroke="#f58518" stroke-width="2" opacity="0.7"></path><path aria-label="x1: 3.34118087269; x3: 12.1528841108; y: 2" role="graphics-symbol" aria-roledescription="point" transform="translate(133.39369902065667,48.08894861498065)" d="M2.7386127875258306,0A2.7386127875258306,2.7386127875258306,0,1,1,-2.7386127875258306,0A2.7386127875258306,2.7386127875258306,0,1,1,2.7386127875258306,0" stroke="#f58518" stroke-width="2" opacity="0.7"></path><path aria-label="x1: 2.69324274927; x3: 9.27081388068; y: 2" role="graphics-symbol" aria-roledescription="point" transform="translate(128.40955960980546,84.11482649150896)" d="M2.7386127875258306,0A2.7386127875258306,2.7386127875258306,0,1,1,-2.7386127875258306,0A2.7386127875258306,2.7386127875258306,0,1,1,2.7386127875258306,0" stroke="#f58518" stroke-width="2" opacity="0.7"></path><path aria-label="x1: 0.67705314372; x3: 5.08596779371; y: 2" role="graphics-symbol" aria-roledescription="point" transform="translate(112.90040879784911,136.42540257861796)" d="M2.7386127875258306,0A2.7386127875258306,2.7386127875258306,0,1,1,-2.7386127875258306,0A2.7386127875258306,2.7386127875258306,0,1,1,2.7386127875258306,0" stroke="#f58518" stroke-width="2" opacity="0.7"></path><path aria-label="x1: 5.96885219325; x3: 8.87284446614; y: 2" role="graphics-symbol" aria-roledescription="point" transform="translate(153.60655533268604,89.08944417319312)" d="M2.7386127875258306,0A2.7386127875258306,2.7386127875258306,0,1,1,-2.7386127875258306,0A2.7386127875258306,2.7386127875258306,0,1,1,2.7386127875258306,0" stroke="#f58518" stroke-width="2" opacity="0.7"></path><path aria-label="x1: -4.39743258847; x3: 2.9775513795; y: 1" role="graphics-symbol" aria-roledescription="point" transform="translate(73.8659031656073,162.78060775626946)" d="M2.7386127875258306,0A2.7386127875258306,2.7386127875258306,0,1,1,-2.7386127875258306,0A2.7386127875258306,2.7386127875258306,0,1,1,2.7386127875258306,0" stroke="#4c78a8" stroke-width="2" opacity="0.7"></path><path aria-label="x1: 4.09852883091; x3: 8.06062708712; y: 2" role="graphics-symbol" aria-roledescription="point" transform="translate(139.21945254546662,99.24216141101043)" d="M2.7386127875258306,0A2.7386127875258306,2.7386127875258306,0,1,1,-2.7386127875258306,0A2.7386127875258306,2.7386127875258306,0,1,1,2.7386127875258306,0" stroke="#f58518" stroke-width="2" opacity="0.7"></path><path aria-label="x1: -7.32436702303; x3: 2.03490681874; y: 1" role="graphics-symbol" aria-roledescription="point" transform="translate(51.351022899770705,174.56366476571702)" d="M2.7386127875258306,0A2.7386127875258306,2.7386127875258306,0,1,1,-2.7386127875258306,0A2.7386127875258306,2.7386127875258306,0,1,1,2.7386127875258306,0" stroke="#4c78a8" stroke-width="2" opacity="0.7"></path><path aria-label="x1: -8.74556135644; x3: 1.52043282424; y: 1" role="graphics-symbol" aria-roledescription="point" transform="translate(40.41875879665048,180.9945896970117)" d="M2.7386127875258306,0A2.7386127875258306,2.7386127875258306,0,1,1,-2.7386127875258306,0A2.7386127875258306,2.7386127875258306,0,1,1,2.7386127875258306,0" stroke="#4c78a8" stroke-width="2" opacity="0.7"></path><path aria-label="x1: 7.61697784785; x3: 7.17203149588; y: 2" role="graphics-symbol" aria-roledescription="point" transform="translate(166.28444498348998,110.349606301522)" d="M2.7386127875258306,0A2.7386127875258306,2.7386127875258306,0,1,1,-2.7386127875258306,0A2.7386127875258306,2.7386127875258306,0,1,1,2.7386127875258306,0" stroke="#f58518" stroke-width="2" opacity="0.7"></path><path aria-label="x1: 8.07177232637; x3: 8.55778374526; y: 2" role="graphics-symbol" aria-roledescription="point" transform="translate(169.7828640490233,93.02770318424882)" d="M2.7386127875258306,0A2.7386127875258306,2.7386127875258306,0,1,1,-2.7386127875258306,0A2.7386127875258306,2.7386127875258306,0,1,1,2.7386127875258306,0" stroke="#f58518" stroke-width="2" opacity="0.7"></path><path aria-label="x1: -7.04645015044; x3: 0.393296256052; y: 1" role="graphics-symbol" aria-roledescription="point" transform="translate(53.488844996620735,195.08379679935214)" d="M2.7386127875258306,0A2.7386127875258306,2.7386127875258306,0,1,1,-2.7386127875258306,0A2.7386127875258306,2.7386127875258306,0,1,1,2.7386127875258306,0" stroke="#4c78a8" stroke-width="2" opacity="0.7"></path><path aria-label="x1: -4.70549648834; x3: 1.9262734169; y: 1" role="graphics-symbol" aria-roledescription="point" transform="translate(71.496180858915,175.921582288773)" d="M2.7386127875258306,0A2.7386127875258306,2.7386127875258306,0,1,1,-2.7386127875258306,0A2.7386127875258306,2.7386127875258306,0,1,1,2.7386127875258306,0" stroke="#4c78a8" stroke-width="2" opacity="0.7"></path><path aria-label="x1: 11.5951525606; x3: 9.28806592856; y: 2" role="graphics-symbol" aria-roledescription="point" transform="translate(196.88578892750462,83.89917589301203)" d="M2.7386127875258306,0A2.7386127875258306,2.7386127875258306,0,1,1,-2.7386127875258306,0A2.7386127875258306,2.7386127875258306,0,1,1,2.7386127875258306,0" stroke="#f58518" stroke-width="2" opacity="0.7"></path><path aria-label="x1: -6.06942496002; x3: 1.09073809321; y: 1" role="graphics-symbol" aria-roledescription="point" transform="translate(61.004423384450455,186.36577383491826)" d="M2.7386127875258306,0A2.7386127875258306,2.7386127875258306,0,1,1,-2.7386127875258306,0A2.7386127875258306,2.7386127875258306,0,1,1,2.7386127875258306,0" stroke="#4c78a8" stroke-width="2" opacity="0.7"></path><path aria-label="x1: -5.74492778144; x3: 0.169996944382; y: 1" role="graphics-symbol" aria-roledescription="point" transform="translate(63.50055552741859,197.87503819522584)" d="M2.7386127875258306,0A2.7386127875258306,2.7386127875258306,0,1,1,-2.7386127875258306,0A2.7386127875258306,2.7386127875258306,0,1,1,2.7386127875258306,0" stroke="#4c78a8" stroke-width="2" opacity="0.7"></path><path aria-label="x1: 1.11138800319; x3: 9.21419999392; y: 2" role="graphics-symbol" aria-roledescription="point" transform="translate(116.24144617840963,84.82250007603929)" d="M2.7386127875258306,0A2.7386127875258306,2.7386127875258306,0,1,1,-2.7386127875258306,0A2.7386127875258306,2.7386127875258306,0,1,1,2.7386127875258306,0" stroke="#f58518" stroke-width="2" opacity="0.7"></path><path aria-label="x1: 6.15936148403; x3: 7.53031742922; y: 2" role="graphics-symbol" aria-roledescription="point" transform="translate(155.0720114156335,105.87103213480074)" d="M2.7386127875258306,0A2.7386127875258306,2.7386127875258306,0,1,1,-2.7386127875258306,0A2.7386127875258306,2.7386127875258306,0,1,1,2.7386127875258306,0" stroke="#f58518" stroke-width="2" opacity="0.7"></path><path aria-label="x1: -8.10534530378; x3: 1.75541793586; y: 1" role="graphics-symbol" aria-roledescription="point" transform="translate(45.343497663255825,178.05727580180024)" d="M2.7386127875258306,0A2.7386127875258306,2.7386127875258306,0,1,1,-2.7386127875258306,0A2.7386127875258306,2.7386127875258306,0,1,1,2.7386127875258306,0" stroke="#4c78a8" stroke-width="2" opacity="0.7"></path><path aria-label="x1: -6.42303289735; x3: 3.08518129909; y: 1" role="graphics-symbol" aria-roledescription="point" transform="translate(58.28436232809449,161.43523376135508)" d="M2.7386127875258306,0A2.7386127875258306,2.7386127875258306,0,1,1,-2.7386127875258306,0A2.7386127875258306,2.7386127875258306,0,1,1,2.7386127875258306,0" stroke="#4c78a8" stroke-width="2" opacity="0.7"></path><path aria-label="x1: 8.37221728871; x3: 10.8492319002; y: 2" role="graphics-symbol" aria-roledescription="point" transform="translate(172.09397914390883,64.38460124738563)" d="M2.7386127875258306,0A2.7386127875258306,2.7386127875258306,0,1,1,-2.7386127875258306,0A2.7386127875258306,2.7386127875258306,0,1,1,2.7386127875258306,0" stroke="#f58518" stroke-width="2" opacity="0.7"></path><path aria-label="x1: -5.34899338382; x3: 1.55876887047; y: 1" role="graphics-symbol" aria-roledescription="point" transform="translate(66.54620473985544,180.5153891190776)" d="M2.7386127875258306,0A2.7386127875258306,2.7386127875258306,0,1,1,-2.7386127875258306,0A2.7386127875258306,2.7386127875258306,0,1,1,2.7386127875258306,0" stroke="#4c78a8" stroke-width="2" opacity="0.7"></path><path aria-label="x1: 2.08588144501; x3: 6.05406927967; y: 2" role="graphics-symbol" aria-roledescription="point" transform="translate(123.73754957701087,124.32413400414613)" d="M2.7386127875258306,0A2.7386127875258306,2.7386127875258306,0,1,1,-2.7386127875258306,0A2.7386127875258306,2.7386127875258306,0,1,1,2.7386127875258306,0" stroke="#f58518" stroke-width="2" opacity="0.7"></path><path aria-label="x1: -9.01798726506; x3: 0.0913476444074; y: 1" role="graphics-symbol" aria-roledescription="point" transform="translate(38.32317488418404,198.8581544449076)" d="M2.7386127875258306,0A2.7386127875258306,2.7386127875258306,0,1,1,-2.7386127875258306,0A2.7386127875258306,2.7386127875258306,0,1,1,2.7386127875258306,0" stroke="#4c78a8" stroke-width="2" opacity="0.7"></path><path aria-label="x1: 9.64625340788; x3: 8.97226591094; y: 2" role="graphics-symbol" aria-roledescription="point" transform="translate(181.89425698367435,87.84667611330252)" d="M2.7386127875258306,0A2.7386127875258306,2.7386127875258306,0,1,1,-2.7386127875258306,0A2.7386127875258306,2.7386127875258306,0,1,1,2.7386127875258306,0" stroke="#f58518" stroke-width="2" opacity="0.7"></path><path aria-label="x1: 8.8647020337; x3: 8.90087768186; y: 2" role="graphics-symbol" aria-roledescription="point" transform="translate(175.88232333617415,88.73902897670527)" d="M2.7386127875258306,0A2.7386127875258306,2.7386127875258306,0,1,1,-2.7386127875258306,0A2.7386127875258306,2.7386127875258306,0,1,1,2.7386127875258306,0" stroke="#f58518" stroke-width="2" opacity="0.7"></path><path aria-label="x1: 0.181565835547; x3: 7.28501463862; y: 2" role="graphics-symbol" aria-roledescription="point" transform="translate(109.08896796574959,108.93731701721872)" d="M2.7386127875258306,0A2.7386127875258306,2.7386127875258306,0,1,1,-2.7386127875258306,0A2.7386127875258306,2.7386127875258306,0,1,1,2.7386127875258306,0" stroke="#f58518" stroke-width="2" opacity="0.7"></path><path aria-label="x1: 1.14396319886; x3: 9.46083504856; y: 2" role="graphics-symbol" aria-roledescription="point" transform="translate(116.49202460657919,81.73956189294165)" d="M2.7386127875258306,0A2.7386127875258306,2.7386127875258306,0,1,1,-2.7386127875258306,0A2.7386127875258306,2.7386127875258306,0,1,1,2.7386127875258306,0" stroke="#f58518" stroke-width="2" opacity="0.7"></path><path aria-label="x1: -6.49616231571; x3: 1.67953657423; y: 1" role="graphics-symbol" aria-roledescription="point" transform="translate(57.721828340713635,179.0057928221038)" d="M2.7386127875258306,0A2.7386127875258306,2.7386127875258306,0,1,1,-2.7386127875258306,0A2.7386127875258306,2.7386127875258306,0,1,1,2.7386127875258306,0" stroke="#4c78a8" stroke-width="2" opacity="0.7"></path><path aria-label="x1: -4.9429951886; x3: 1.22168772813; y: 1" role="graphics-symbol" aria-roledescription="point" transform="translate(69.66926778003271,184.72890339837969)" d="M2.7386127875258306,0A2.7386127875258306,2.7386127875258306,0,1,1,-2.7386127875258306,0A2.7386127875258306,2.7386127875258306,0,1,1,2.7386127875258306,0" stroke="#4c78a8" stroke-width="2" opacity="0.7"></path><path aria-label="x1: 0.992702282382; x3: 6.59138407636; y: 2" role="graphics-symbol" aria-roledescription="point" transform="translate(115.32847909524983,117.60769904552961)" d="M2.7386127875258306,0A2.7386127875258306,2.7386127875258306,0,1,1,-2.7386127875258306,0A2.7386127875258306,2.7386127875258306,0,1,1,2.7386127875258306,0" stroke="#f58518" stroke-width="2" opacity="0.7"></path><path aria-label="x1: 4.03781439174; x3: 9.53043725259; y: 2" role="graphics-symbol" aria-roledescription="point" transform="translate(138.75241839797522,80.86953434266901)" d="M2.7386127875258306,0A2.7386127875258306,2.7386127875258306,0,1,1,-2.7386127875258306,0A2.7386127875258306,2.7386127875258306,0,1,1,2.7386127875258306,0" stroke="#f58518" stroke-width="2" opacity="0.7"></path><path aria-label="x1: -7.0229982973; x3: 3.18683961371; y: 1" role="graphics-symbol" aria-roledescription="point" transform="translate(53.669243866918436,160.1645048286739)" d="M2.7386127875258306,0A2.7386127875258306,2.7386127875258306,0,1,1,-2.7386127875258306,0A2.7386127875258306,2.7386127875258306,0,1,1,2.7386127875258306,0" stroke="#4c78a8" stroke-width="2" opacity="0.7"></path><path aria-label="x1: -6.33290824567; x3: 2.52526436484; y: 1" role="graphics-symbol" aria-roledescription="point" transform="translate(58.977628879492464,168.43419543955082)" d="M2.7386127875258306,0A2.7386127875258306,2.7386127875258306,0,1,1,-2.7386127875258306,0A2.7386127875258306,2.7386127875258306,0,1,1,2.7386127875258306,0" stroke="#4c78a8" stroke-width="2" opacity="0.7"></path><path aria-label="x1: -5.88514073455; x3: 2.49386470278; y: 1" role="graphics-symbol" aria-roledescription="point" transform="translate(62.421994349609555,168.82669121522204)" d="M2.7386127875258306,0A2.7386127875258306,2.7386127875258306,0,1,1,-2.7386127875258306,0A2.7386127875258306,2.7386127875258306,0,1,1,2.7386127875258306,0" stroke="#4c78a8" stroke-width="2" opacity="0.7"></path><path aria-label="x1: -7.81322311014; x3: 2.3814224877; y: 1" role="graphics-symbol" aria-roledescription="point" transform="translate(47.590591460486124,170.23221890369254)" d="M2.7386127875258306,0A2.7386127875258306,2.7386127875258306,0,1,1,-2.7386127875258306,0A2.7386127875258306,2.7386127875258306,0,1,1,2.7386127875258306,0" stroke="#4c78a8" stroke-width="2" opacity="0.7"></path><path aria-label="x1: 8.30470695981; x3: 10.0165308963; y: 2" role="graphics-symbol" aria-roledescription="point" transform="translate(171.57466892161338,74.79336379654033)" d="M2.7386127875258306,0A2.7386127875258306,2.7386127875258306,0,1,1,-2.7386127875258306,0A2.7386127875258306,2.7386127875258306,0,1,1,2.7386127875258306,0" stroke="#f58518" stroke-width="2" opacity="0.7"></path><path aria-label="x1: -6.6034236925; x3: 0.824444144776; y: 1" role="graphics-symbol" aria-roledescription="point" transform="translate(56.89674082691576,189.69444819030227)" d="M2.7386127875258306,0A2.7386127875258306,2.7386127875258306,0,1,1,-2.7386127875258306,0A2.7386127875258306,2.7386127875258306,0,1,1,2.7386127875258306,0" stroke="#4c78a8" stroke-width="2" opacity="0.7"></path><path aria-label="x1: 5.51975488687; x3: 6.50330695898; y: 2" role="graphics-symbol" aria-roledescription="point" transform="translate(150.15196066822048,118.70866301270956)" d="M2.7386127875258306,0A2.7386127875258306,2.7386127875258306,0,1,1,-2.7386127875258306,0A2.7386127875258306,2.7386127875258306,0,1,1,2.7386127875258306,0" stroke="#f58518" stroke-width="2" opacity="0.7"></path><path aria-label="x1: 7.51485847229; x3: 9.81196352846; y: 2" role="graphics-symbol" aria-roledescription="point" transform="translate(165.49891132533904,77.35045589420093)" d="M2.7386127875258306,0A2.7386127875258306,2.7386127875258306,0,1,1,-2.7386127875258306,0A2.7386127875258306,2.7386127875258306,0,1,1,2.7386127875258306,0" stroke="#f58518" stroke-width="2" opacity="0.7"></path><path aria-label="x1: -6.12368261491; x3: 3.53551190702; y: 1" role="graphics-symbol" aria-roledescription="point" transform="translate(60.587056808365894,155.8061011622756)" d="M2.7386127875258306,0A2.7386127875258306,2.7386127875258306,0,1,1,-2.7386127875258306,0A2.7386127875258306,2.7386127875258306,0,1,1,2.7386127875258306,0" stroke="#4c78a8" stroke-width="2" opacity="0.7"></path><path aria-label="x1: -6.72619832662; x3: 2.39541146855; y: 1" role="graphics-symbol" aria-roledescription="point" transform="translate(55.95232056442979,170.0573566431062)" d="M2.7386127875258306,0A2.7386127875258306,2.7386127875258306,0,1,1,-2.7386127875258306,0A2.7386127875258306,2.7386127875258306,0,1,1,2.7386127875258306,0" stroke="#4c78a8" stroke-width="2" opacity="0.7"></path><path aria-label="x1: 5.93019431117; x3: 6.86470761327; y: 2" role="graphics-symbol" aria-roledescription="point" transform="translate(153.30918700900529,114.1911548341545)" d="M2.7386127875258306,0A2.7386127875258306,2.7386127875258306,0,1,1,-2.7386127875258306,0A2.7386127875258306,2.7386127875258306,0,1,1,2.7386127875258306,0" stroke="#f58518" stroke-width="2" opacity="0.7"></path><path aria-label="x1: 4.10620227243; x3: 8.16432577868; y: 2" role="graphics-symbol" aria-roledescription="point" transform="translate(139.27847901867668,97.94592776655446)" d="M2.7386127875258306,0A2.7386127875258306,2.7386127875258306,0,1,1,-2.7386127875258306,0A2.7386127875258306,2.7386127875258306,0,1,1,2.7386127875258306,0" stroke="#f58518" stroke-width="2" opacity="0.7"></path><path aria-label="x1: -3.31797349442; x3: 3.8953603522; y: 2" role="graphics-symbol" aria-roledescription="point" transform="translate(82.1694346582877,151.30799559754035)" d="M2.7386127875258306,0A2.7386127875258306,2.7386127875258306,0,1,1,-2.7386127875258306,0A2.7386127875258306,2.7386127875258306,0,1,1,2.7386127875258306,0" stroke="#f58518" stroke-width="2" opacity="0.7"></path><path aria-label="x1: 6.90935406295; x3: 12.0586307924; y: 2" role="graphics-symbol" aria-roledescription="point" transform="translate(160.84118509964955,49.26711509450217)" d="M2.7386127875258306,0A2.7386127875258306,2.7386127875258306,0,1,1,-2.7386127875258306,0A2.7386127875258306,2.7386127875258306,0,1,1,2.7386127875258306,0" stroke="#f58518" stroke-width="2" opacity="0.7"></path><path aria-label="x1: 3.0718701931; x3: 7.31926454176; y: 2" role="graphics-symbol" aria-roledescription="point" transform="translate(131.3220784084995,108.50919322798136)" d="M2.7386127875258306,0A2.7386127875258306,2.7386127875258306,0,1,1,-2.7386127875258306,0A2.7386127875258306,2.7386127875258306,0,1,1,2.7386127875258306,0" stroke="#f58518" stroke-width="2" opacity="0.7"></path><path aria-label="x1: -5.98461623635; x3: 2.2892600136; y: 1" role="graphics-symbol" aria-roledescription="point" transform="translate(61.65679818196139,171.3842498300043)" d="M2.7386127875258306,0A2.7386127875258306,2.7386127875258306,0,1,1,-2.7386127875258306,0A2.7386127875258306,2.7386127875258306,0,1,1,2.7386127875258306,0" stroke="#4c78a8" stroke-width="2" opacity="0.7"></path><path aria-label="x1: 5.49440038119; x3: 7.64018139476; y: 2" role="graphics-symbol" aria-roledescription="point" transform="translate(149.95692600915729,104.49773256550894)" d="M2.7386127875258306,0A2.7386127875258306,2.7386127875258306,0,1,1,-2.7386127875258306,0A2.7386127875258306,2.7386127875258306,0,1,1,2.7386127875258306,0" stroke="#f58518" stroke-width="2" opacity="0.7"></path><path aria-label="x1: 1.94809604269; x3: 1.81265018012; y: 2" role="graphics-symbol" aria-roledescription="point" transform="translate(122.6776618668166,177.34187274845254)" d="M2.7386127875258306,0A2.7386127875258306,2.7386127875258306,0,1,1,-2.7386127875258306,0A2.7386127875258306,2.7386127875258306,0,1,1,2.7386127875258306,0" stroke="#f58518" stroke-width="2" opacity="0.7"></path><path aria-label="x1: -8.01895143351; x3: 3.17146013552; y: 1" role="graphics-symbol" aria-roledescription="point" transform="translate(46.008065896043796,160.35674830596162)" d="M2.7386127875258306,0A2.7386127875258306,2.7386127875258306,0,1,1,-2.7386127875258306,0A2.7386127875258306,2.7386127875258306,0,1,1,2.7386127875258306,0" stroke="#4c78a8" stroke-width="2" opacity="0.7"></path><path aria-label="x1: 7.44551006734; x3: 12.3505962665; y: 2" role="graphics-symbol" aria-roledescription="point" transform="translate(164.96546205648278,45.61754666923923)" d="M2.7386127875258306,0A2.7386127875258306,2.7386127875258306,0,1,1,-2.7386127875258306,0A2.7386127875258306,2.7386127875258306,0,1,1,2.7386127875258306,0" stroke="#f58518" stroke-width="2" opacity="0.7"></path><path aria-label="x1: 6.79970738398; x3: 6.06242451261; y: 2" role="graphics-symbol" aria-roledescription="point" transform="translate(159.9977491075646,124.21969359241811)" d="M2.7386127875258306,0A2.7386127875258306,2.7386127875258306,0,1,1,-2.7386127875258306,0A2.7386127875258306,2.7386127875258306,0,1,1,2.7386127875258306,0" stroke="#f58518" stroke-width="2" opacity="0.7"></path><path aria-label="x1: -5.01437330203; x3: 1.0448890952; y: 1" role="graphics-symbol" aria-roledescription="point" transform="translate(69.12020536898262,186.93888631000547)" d="M2.7386127875258306,0A2.7386127875258306,2.7386127875258306,0,1,1,-2.7386127875258306,0A2.7386127875258306,2.7386127875258306,0,1,1,2.7386127875258306,0" stroke="#4c78a8" stroke-width="2" opacity="0.7"></path><path aria-label="x1: -5.69033155277; x3: 1.79385156391; y: 1" role="graphics-symbol" aria-roledescription="point" transform="translate(63.92052651713649,177.57685545111087)" d="M2.7386127875258306,0A2.7386127875258306,2.7386127875258306,0,1,1,-2.7386127875258306,0A2.7386127875258306,2.7386127875258306,0,1,1,2.7386127875258306,0" stroke="#4c78a8" stroke-width="2" opacity="0.7"></path><path aria-label="x1: -6.41678268532; x3: 1.92983358561; y: 1" role="graphics-symbol" aria-roledescription="point" transform="translate(58.33244088216533,175.8770801798145)" d="M2.7386127875258306,0A2.7386127875258306,2.7386127875258306,0,1,1,-2.7386127875258306,0A2.7386127875258306,2.7386127875258306,0,1,1,2.7386127875258306,0" stroke="#4c78a8" stroke-width="2" opacity="0.7"></path><path aria-label="x1: -6.72458162506; x3: 0.0100159386297; y: 1" role="graphics-symbol" aria-roledescription="point" transform="translate(55.964756730270416,199.87480076712828)" d="M2.7386127875258306,0A2.7386127875258306,2.7386127875258306,0,1,1,-2.7386127875258306,0A2.7386127875258306,2.7386127875258306,0,1,1,2.7386127875258306,0" stroke="#4c78a8" stroke-width="2" opacity="0.7"></path><path aria-label="x1: -4.99326690011; x3: 0.778143776426; y: 1" role="graphics-symbol" aria-roledescription="point" transform="translate(69.28256230683998,190.27320279467784)" d="M2.7386127875258306,0A2.7386127875258306,2.7386127875258306,0,1,1,-2.7386127875258306,0A2.7386127875258306,2.7386127875258306,0,1,1,2.7386127875258306,0" stroke="#4c78a8" stroke-width="2" opacity="0.7"></path><path aria-label="x1: 10.5792781793; x3: 6.61805960422; y: 2" role="graphics-symbol" aria-roledescription="point" transform="translate(189.07137060983658,117.27425494721797)" d="M2.7386127875258306,0A2.7386127875258306,2.7386127875258306,0,1,1,-2.7386127875258306,0A2.7386127875258306,2.7386127875258306,0,1,1,2.7386127875258306,0" stroke="#f58518" stroke-width="2" opacity="0.7"></path><path aria-label="x1: -6.90762247941; x3: 1.43701573318; y: 1" role="graphics-symbol" aria-roledescription="point" transform="translate(54.556750158422496,182.03730333527716)" d="M2.7386127875258306,0A2.7386127875258306,2.7386127875258306,0,1,1,-2.7386127875258306,0A2.7386127875258306,2.7386127875258306,0,1,1,2.7386127875258306,0" stroke="#4c78a8" stroke-width="2" opacity="0.7"></path><path aria-label="x1: -7.00677153307; x3: 1.29129684427; y: 1" role="graphics-symbol" aria-roledescription="point" transform="translate(53.79406513023256,183.8587894465677)" d="M2.7386127875258306,0A2.7386127875258306,2.7386127875258306,0,1,1,-2.7386127875258306,0A2.7386127875258306,2.7386127875258306,0,1,1,2.7386127875258306,0" stroke="#4c78a8" stroke-width="2" opacity="0.7"></path><path aria-label="x1: -7.41771297815; x3: 1.41539502346; y: 1" role="graphics-symbol" aria-roledescription="point" transform="translate(50.632977091115464,182.30756220677665)" d="M2.7386127875258306,0A2.7386127875258306,2.7386127875258306,0,1,1,-2.7386127875258306,0A2.7386127875258306,2.7386127875258306,0,1,1,2.7386127875258306,0" stroke="#4c78a8" stroke-width="2" opacity="0.7"></path><path aria-label="x1: 6.46170864746; x3: 3.6333771701; y: 2" role="graphics-symbol" aria-roledescription="point" transform="translate(157.3977588266368,154.5827853737237)" d="M2.7386127875258306,0A2.7386127875258306,2.7386127875258306,0,1,1,-2.7386127875258306,0A2.7386127875258306,2.7386127875258306,0,1,1,2.7386127875258306,0" stroke="#f58518" stroke-width="2" opacity="0.7"></path><path aria-label="x1: 5.80564835856; x3: 4.20149747475; y: 2" role="graphics-symbol" aria-roledescription="point" transform="translate(152.3511412197267,147.4812815656464)" d="M2.7386127875258306,0A2.7386127875258306,2.7386127875258306,0,1,1,-2.7386127875258306,0A2.7386127875258306,2.7386127875258306,0,1,1,2.7386127875258306,0" stroke="#f58518" stroke-width="2" opacity="0.7"></path><path aria-label="x1: -6.16762414759; x3: 2.19444010971; y: 1" role="graphics-symbol" aria-roledescription="point" transform="translate(60.249045018555826,172.56949862866682)" d="M2.7386127875258306,0A2.7386127875258306,2.7386127875258306,0,1,1,-2.7386127875258306,0A2.7386127875258306,2.7386127875258306,0,1,1,2.7386127875258306,0" stroke="#4c78a8" stroke-width="2" opacity="0.7"></path><path aria-label="x1: 1.0867390891; x3: 2.11449075926; y: 2" role="graphics-symbol" aria-roledescription="point" transform="translate(116.05183914689556,173.56886550927157)" d="M2.7386127875258306,0A2.7386127875258306,2.7386127875258306,0,1,1,-2.7386127875258306,0A2.7386127875258306,2.7386127875258306,0,1,1,2.7386127875258306,0" stroke="#f58518" stroke-width="2" opacity="0.7"></path><path aria-label="x1: 6.07383219656; x3: 7.2143562508; y: 2" role="graphics-symbol" aria-roledescription="point" transform="translate(154.41409381972483,109.82054686499035)" d="M2.7386127875258306,0A2.7386127875258306,2.7386127875258306,0,1,1,-2.7386127875258306,0A2.7386127875258306,2.7386127875258306,0,1,1,2.7386127875258306,0" stroke="#f58518" stroke-width="2" opacity="0.7"></path><path aria-label="x1: -7.02369179926; x3: 3.06640382727; y: 1" role="graphics-symbol" aria-roledescription="point" transform="translate(53.663909236480535,161.6699521590807)" d="M2.7386127875258306,0A2.7386127875258306,2.7386127875258306,0,1,1,-2.7386127875258306,0A2.7386127875258306,2.7386127875258306,0,1,1,2.7386127875258306,0" stroke="#4c78a8" stroke-width="2" opacity="0.7"></path><path aria-label="x1: -6.06620206121; x3: 1.76168785188; y: 1" role="graphics-symbol" aria-roledescription="point" transform="translate(61.029214913749726,177.97890185150047)" d="M2.7386127875258306,0A2.7386127875258306,2.7386127875258306,0,1,1,-2.7386127875258306,0A2.7386127875258306,2.7386127875258306,0,1,1,2.7386127875258306,0" stroke="#4c78a8" stroke-width="2" opacity="0.7"></path><path aria-label="x1: -6.96002981779; x3: 2.29580612524; y: 1" role="graphics-symbol" aria-roledescription="point" transform="translate(54.15361678624029,171.30242343447802)" d="M2.7386127875258306,0A2.7386127875258306,2.7386127875258306,0,1,1,-2.7386127875258306,0A2.7386127875258306,2.7386127875258306,0,1,1,2.7386127875258306,0" stroke="#4c78a8" stroke-width="2" opacity="0.7"></path><path aria-label="x1: -6.8381673094; x3: 2.21801033364; y: 1" role="graphics-symbol" aria-roledescription="point" transform="translate(55.09102069691119,172.27487082943912)" d="M2.7386127875258306,0A2.7386127875258306,2.7386127875258306,0,1,1,-2.7386127875258306,0A2.7386127875258306,2.7386127875258306,0,1,1,2.7386127875258306,0" stroke="#4c78a8" stroke-width="2" opacity="0.7"></path><path aria-label="x1: 9.04678614978; x3: 7.28721405799; y: 2" role="graphics-symbol" aria-roledescription="point" transform="translate(177.28297038294457,108.90982427517146)" d="M2.7386127875258306,0A2.7386127875258306,2.7386127875258306,0,1,1,-2.7386127875258306,0A2.7386127875258306,2.7386127875258306,0,1,1,2.7386127875258306,0" stroke="#f58518" stroke-width="2" opacity="0.7"></path><path aria-label="x1: 3.75726886577; x3: 6.87263241348; y: 2" role="graphics-symbol" aria-roledescription="point" transform="translate(136.5943758905217,114.09209483149647)" d="M2.7386127875258306,0A2.7386127875258306,2.7386127875258306,0,1,1,-2.7386127875258306,0A2.7386127875258306,2.7386127875258306,0,1,1,2.7386127875258306,0" stroke="#f58518" stroke-width="2" opacity="0.7"></path><path aria-label="x1: -2.73411830602; x3: 11.7514067304; y: 2" role="graphics-symbol" aria-roledescription="point" transform="translate(86.66062841522634,53.10741587045551)" d="M2.7386127875258306,0A2.7386127875258306,2.7386127875258306,0,1,1,-2.7386127875258306,0A2.7386127875258306,2.7386127875258306,0,1,1,2.7386127875258306,0" stroke="#f58518" stroke-width="2" opacity="0.7"></path><path aria-label="x1: -6.68009915274; x3: 2.09031903774; y: 1" role="graphics-symbol" aria-roledescription="point" transform="translate(56.30692959427945,173.8710120282065)" d="M2.7386127875258306,0A2.7386127875258306,2.7386127875258306,0,1,1,-2.7386127875258306,0A2.7386127875258306,2.7386127875258306,0,1,1,2.7386127875258306,0" stroke="#4c78a8" stroke-width="2" opacity="0.7"></path><path aria-label="x1: 6.83198192413; x3: 7.37685965423; y: 2" role="graphics-symbol" aria-roledescription="point" transform="translate(160.24601480100733,107.78925432216322)" d="M2.7386127875258306,0A2.7386127875258306,2.7386127875258306,0,1,1,-2.7386127875258306,0A2.7386127875258306,2.7386127875258306,0,1,1,2.7386127875258306,0" stroke="#f58518" stroke-width="2" opacity="0.7"></path><path aria-label="x1: -6.50917984106; x3: 2.21049589572; y: 1" role="graphics-symbol" aria-roledescription="point" transform="translate(57.621693530303716,172.36880130346748)" d="M2.7386127875258306,0A2.7386127875258306,2.7386127875258306,0,1,1,-2.7386127875258306,0A2.7386127875258306,2.7386127875258306,0,1,1,2.7386127875258306,0" stroke="#4c78a8" stroke-width="2" opacity="0.7"></path><path aria-label="x1: 0.113506079729; x3: 3.52846086133; y: 2" role="graphics-symbol" aria-roledescription="point" transform="translate(108.56543138253278,155.89423923342747)" d="M2.7386127875258306,0A2.7386127875258306,2.7386127875258306,0,1,1,-2.7386127875258306,0A2.7386127875258306,2.7386127875258306,0,1,1,2.7386127875258306,0" stroke="#f58518" stroke-width="2" opacity="0.7"></path><path aria-label="x1: 2.67137411295; x3: 6.57938122837; y: 2" role="graphics-symbol" aria-roledescription="point" transform="translate(128.24133933035154,117.75773464536414)" d="M2.7386127875258306,0A2.7386127875258306,2.7386127875258306,0,1,1,-2.7386127875258306,0A2.7386127875258306,2.7386127875258306,0,1,1,2.7386127875258306,0" stroke="#f58518" stroke-width="2" opacity="0.7"></path><path aria-label="x1: -5.52579042115; x3: 1.68656661958; y: 1" role="graphics-symbol" aria-roledescription="point" transform="translate(65.1862275295844,178.9179172552886)" d="M2.7386127875258306,0A2.7386127875258306,2.7386127875258306,0,1,1,-2.7386127875258306,0A2.7386127875258306,2.7386127875258306,0,1,1,2.7386127875258306,0" stroke="#4c78a8" stroke-width="2" opacity="0.7"></path><path aria-label="x1: 4.41227814754; x3: 7.62717631887; y: 2" role="graphics-symbol" aria-roledescription="point" transform="translate(141.63290882724183,104.66029601407708)" d="M2.7386127875258306,0A2.7386127875258306,2.7386127875258306,0,1,1,-2.7386127875258306,0A2.7386127875258306,2.7386127875258306,0,1,1,2.7386127875258306,0" stroke="#f58518" stroke-width="2" opacity="0.7"></path><path aria-label="x1: -6.29404627129; x3: 3.1055543813; y: 1" role="graphics-symbol" aria-roledescription="point" transform="translate(59.27656714390825,161.18057023376835)" d="M2.7386127875258306,0A2.7386127875258306,2.7386127875258306,0,1,1,-2.7386127875258306,0A2.7386127875258306,2.7386127875258306,0,1,1,2.7386127875258306,0" stroke="#4c78a8" stroke-width="2" opacity="0.7"></path><path aria-label="x1: -5.00586372429; x3: 2.03482916371; y: 1" role="graphics-symbol" aria-roledescription="point" transform="translate(69.1856636593086,174.56463545364707)" d="M2.7386127875258306,0A2.7386127875258306,2.7386127875258306,0,1,1,-2.7386127875258306,0A2.7386127875258306,2.7386127875258306,0,1,1,2.7386127875258306,0" stroke="#4c78a8" stroke-width="2" opacity="0.7"></path><path aria-label="x1: -7.00512095389; x3: 1.63885361256; y: 1" role="graphics-symbol" aria-roledescription="point" transform="translate(53.806761893118995,179.51432984297512)" d="M2.7386127875258306,0A2.7386127875258306,2.7386127875258306,0,1,1,-2.7386127875258306,0A2.7386127875258306,2.7386127875258306,0,1,1,2.7386127875258306,0" stroke="#4c78a8" stroke-width="2" opacity="0.7"></path><path aria-label="x1: -5.6401866547; x3: 3.04479354842; y: 1" role="graphics-symbol" aria-roledescription="point" transform="translate(64.30625650233249,161.94008064476128)" d="M2.7386127875258306,0A2.7386127875258306,2.7386127875258306,0,1,1,-2.7386127875258306,0A2.7386127875258306,2.7386127875258306,0,1,1,2.7386127875258306,0" stroke="#4c78a8" stroke-width="2" opacity="0.7"></path><path aria-label="x1: -7.92616877524; x3: 1.68839696522; y: 1" role="graphics-symbol" aria-roledescription="point" transform="translate(46.72177865202302,178.89503793469015)" d="M2.7386127875258306,0A2.7386127875258306,2.7386127875258306,0,1,1,-2.7386127875258306,0A2.7386127875258306,2.7386127875258306,0,1,1,2.7386127875258306,0" stroke="#4c78a8" stroke-width="2" opacity="0.7"></path><path aria-label="x1: -5.92889541776; x3: 0.963339486547; y: 1" role="graphics-symbol" aria-roledescription="point" transform="translate(62.0854198633513,187.95825641815844)" d="M2.7386127875258306,0A2.7386127875258306,2.7386127875258306,0,1,1,-2.7386127875258306,0A2.7386127875258306,2.7386127875258306,0,1,1,2.7386127875258306,0" stroke="#4c78a8" stroke-width="2" opacity="0.7"></path><path aria-label="x1: 2.35487952738; x3: 6.1132454252; y: 2" role="graphics-symbol" aria-roledescription="point" transform="translate(125.80676559526015,123.5844321849608)" d="M2.7386127875258306,0A2.7386127875258306,2.7386127875258306,0,1,1,-2.7386127875258306,0A2.7386127875258306,2.7386127875258306,0,1,1,2.7386127875258306,0" stroke="#f58518" stroke-width="2" opacity="0.7"></path><path aria-label="x1: -5.19910165131; x3: 2.21307495908; y: 1" role="graphics-symbol" aria-roledescription="point" transform="translate(67.69921806687394,172.33656301154207)" d="M2.7386127875258306,0A2.7386127875258306,2.7386127875258306,0,1,1,-2.7386127875258306,0A2.7386127875258306,2.7386127875258306,0,1,1,2.7386127875258306,0" stroke="#4c78a8" stroke-width="2" opacity="0.7"></path><path aria-label="x1: -5.84518803906; x3: 2.41242950126; y: 1" role="graphics-symbol" aria-roledescription="point" transform="translate(62.72932277644939,169.84463123422222)" d="M2.7386127875258306,0A2.7386127875258306,2.7386127875258306,0,1,1,-2.7386127875258306,0A2.7386127875258306,2.7386127875258306,0,1,1,2.7386127875258306,0" stroke="#4c78a8" stroke-width="2" opacity="0.7"></path><path aria-label="x1: 5.70646850816; x3: 4.55205245881; y: 2" role="graphics-symbol" aria-roledescription="point" transform="translate(151.58821929353013,143.09934426484133)" d="M2.7386127875258306,0A2.7386127875258306,2.7386127875258306,0,1,1,-2.7386127875258306,0A2.7386127875258306,2.7386127875258306,0,1,1,2.7386127875258306,0" stroke="#f58518" stroke-width="2" opacity="0.7"></path><path aria-label="x1: 3.09197541825; x3: 9.05819277067; y: 2" role="graphics-symbol" aria-roledescription="point" transform="translate(131.47673398653444,86.77259036663409)" d="M2.7386127875258306,0A2.7386127875258306,2.7386127875258306,0,1,1,-2.7386127875258306,0A2.7386127875258306,2.7386127875258306,0,1,1,2.7386127875258306,0" stroke="#f58518" stroke-width="2" opacity="0.7"></path><path aria-label="x1: 8.02444912974; x3: 4.69916417719; y: 2" role="graphics-symbol" aria-roledescription="point" transform="translate(169.41883945950985,141.26044778510106)" d="M2.7386127875258306,0A2.7386127875258306,2.7386127875258306,0,1,1,-2.7386127875258306,0A2.7386127875258306,2.7386127875258306,0,1,1,2.7386127875258306,0" stroke="#f58518" stroke-width="2" opacity="0.7"></path><path aria-label="x1: -6.44667160134; x3: 2.39082977808; y: 1" role="graphics-symbol" aria-roledescription="point" transform="translate(58.102526143561896,170.11462777401084)" d="M2.7386127875258306,0A2.7386127875258306,2.7386127875258306,0,1,1,-2.7386127875258306,0A2.7386127875258306,2.7386127875258306,0,1,1,2.7386127875258306,0" stroke="#4c78a8" stroke-width="2" opacity="0.7"></path><path aria-label="x1: 8.88047790718; x3: 5.5844363362; y: 2" role="graphics-symbol" aria-roledescription="point" transform="translate(176.0036762090786,130.1945457974382)" d="M2.7386127875258306,0A2.7386127875258306,2.7386127875258306,0,1,1,-2.7386127875258306,0A2.7386127875258306,2.7386127875258306,0,1,1,2.7386127875258306,0" stroke="#f58518" stroke-width="2" opacity="0.7"></path><path aria-label="x1: -12.6075103346; x3: 15.9947094027; y: 1" role="graphics-symbol" aria-roledescription="point" transform="translate(10.71145896492034,0.06613246569062703)" d="M2.7386127875258306,0A2.7386127875258306,2.7386127875258306,0,1,1,-2.7386127875258306,0A2.7386127875258306,2.7386127875258306,0,1,1,2.7386127875258306,0" stroke="#4c78a8" stroke-width="2" opacity="0.7"></path><path aria-label="x1: 1.0250686299; x3: 7.22883523097; y: 2" role="graphics-symbol" aria-roledescription="point" transform="translate(115.57745099924188,109.63955961282186)" d="M2.7386127875258306,0A2.7386127875258306,2.7386127875258306,0,1,1,-2.7386127875258306,0A2.7386127875258306,2.7386127875258306,0,1,1,2.7386127875258306,0" stroke="#f58518" stroke-width="2" opacity="0.7"></path><path aria-label="x1: -5.64713558982; x3: 1.6717810453; y: 1" role="graphics-symbol" aria-roledescription="point" transform="translate(64.25280315520746,179.10273693374072)" d="M2.7386127875258306,0A2.7386127875258306,2.7386127875258306,0,1,1,-2.7386127875258306,0A2.7386127875258306,2.7386127875258306,0,1,1,2.7386127875258306,0" stroke="#4c78a8" stroke-width="2" opacity="0.7"></path><path aria-label="x1: -7.69527426736; x3: 1.17781089401; y: 1" role="graphics-symbol" aria-roledescription="point" transform="translate(48.49789025109139,185.27736382492327)" d="M2.7386127875258306,0A2.7386127875258306,2.7386127875258306,0,1,1,-2.7386127875258306,0A2.7386127875258306,2.7386127875258306,0,1,1,2.7386127875258306,0" stroke="#4c78a8" stroke-width="2" opacity="0.7"></path></g><g class="mark-group role-legend" role="graphics-symbol" aria-roledescription="legend" aria-label="Symbol legend titled 'y' for stroke color with 2 values: 1, 2"><g transform="translate(218,0)"><path class="background" aria-hidden="true" d="M0,0h22v45h-22Z" pointer-events="none"></path><g><g class="mark-group role-legend-entry"><g transform="translate(0,16)"><path class="background" aria-hidden="true" d="M0,0h0v0h0Z" pointer-events="none"></path><g><g class="mark-group role-scope" role="graphics-object" aria-roledescription="group mark container"><g transform="translate(0,0)"><path class="background" aria-hidden="true" d="M0,0h22v12.5h-22Z" pointer-events="none" opacity="1"></path><g><g class="mark-symbol role-legend-symbol" pointer-events="none"><path transform="translate(6,6)" d="M5,0A5,5,0,1,1,-5,0A5,5,0,1,1,5,0" stroke="#4c78a8" stroke-width="1.5" opacity="0.7"></path></g><g class="mark-text role-legend-label" pointer-events="none"><text text-anchor="start" transform="translate(16,9)" font-family="sans-serif" font-size="10px" fill="#000" opacity="1">1</text></g></g><path class="foreground" aria-hidden="true" d="" pointer-events="none" display="none"></path></g><g transform="translate(0,16)"><path class="background" aria-hidden="true" d="M0,0h22v12.5h-22Z" pointer-events="none" opacity="1"></path><g><g class="mark-symbol role-legend-symbol" pointer-events="none"><path transform="translate(6,6)" d="M5,0A5,5,0,1,1,-5,0A5,5,0,1,1,5,0" stroke="#f58518" stroke-width="1.5" opacity="0.7"></path></g><g class="mark-text role-legend-label" pointer-events="none"><text text-anchor="start" transform="translate(16,9)" font-family="sans-serif" font-size="10px" fill="#000" opacity="1">2</text></g></g><path class="foreground" aria-hidden="true" d="" pointer-events="none" display="none"></path></g></g></g><path class="foreground" aria-hidden="true" d="" pointer-events="none" display="none"></path></g></g><g class="mark-text role-legend-title" pointer-events="none"><text text-anchor="start" transform="translate(0,9)" font-family="sans-serif" font-size="11px" font-weight="bold" fill="#000" opacity="1">y</text></g></g><path class="foreground" aria-hidden="true" d="" pointer-events="none" display="none"></path></g></g></g><path class="foreground" aria-hidden="true" d="" display="none"></path></g></g></g></svg>
