<?xml version="1.0" encoding="utf-8"?>
<!DOCTYPE svg PUBLIC "-//W3C//DTD SVG 1.1//EN" "http://www.w3.org/Graphics/SVG/1.1/DTD/svg11.dtd">
<svg class="marks" width="290" height="242" viewBox="0 0 290 242" version="1.1" xmlns="http://www.w3.org/2000/svg" xmlns:xlink="http://www.w3.org/1999/xlink"><rect width="290" height="242" fill="white"></rect><g fill="none" stroke-miterlimit="10" transform="translate(45,5)"><g class="mark-group role-frame root" role="graphics-object" aria-roledescription="group mark container"><g transform="translate(0,0)"><path class="background" aria-hidden="true" d="M0.5,0.5h200v200h-200Z" stroke="#ddd"></path><g><g class="mark-group role-axis" aria-hidden="true"><g transform="translate(0.5,200.5)"><path class="background" aria-hidden="true" d="M0,0h0v0h0Z" pointer-events="none"></path><g><g class="mark-rule role-axis-grid" pointer-events="none"><line transform="translate(17,-200)" x2="0" y2="200" stroke="#ddd" stroke-width="1" opacity="1"></line><line transform="translate(58,-200)" x2="0" y2="200" stroke="#ddd" stroke-width="1" opacity="1"></line><line transform="translate(100,-200)" x2="0" y2="200" stroke="#ddd" stroke-width="1" opacity="1"></line><line transform="translate(142,-200)" x2="0" y2="200" stroke="#ddd" stroke-width="1" opacity="1"></line><line transform="translate(183,-200)" x2="0" y2="200" stroke="#ddd" stroke-width="1" opacity="1"></line></g></g><path class="foreground" aria-hidden="true" d="" pointer-events="none" display="none"></path></g></g><g class="mark-group role-axis" aria-hidden="true"><g transform="translate(0.5,0.5)"><path class="background" aria-hidden="true" d="M0,0h0v0h0Z" pointer-events="none"></path><g><g class="mark-rule role-axis-grid" pointer-events="none"><line transform="translate(0,183)" x2="200" y2="0" stroke="#ddd" stroke-width="1" opacity="1"></line><line transform="translate(0,142)" x2="200" y2="0" stroke="#ddd" stroke-width="1" opacity="1"></line><line transform="translate(0,100)" x2="200" y2="0" stroke="#ddd" stroke-width="1" opacity="1"></line><line transform="translate(0,58)" x2="200" y2="0" stroke="#ddd" stroke-width="1" opacity="1"></line><line transform="translate(0,17)" x2="200" y2="0" stroke="#ddd" stroke-width="1" opacity="1"></line></g></g><path class="foreground" aria-hidden="true" d="" pointer-events="none" display="none"></path></g></g><g class="mark-group role-axis" role="graphics-symbol" aria-roledescription="axis" aria-label="X-axis titled 'x1' for a linear scale with values from -1.2 to 1.2"><g transform="translate(0.5,200.5)"><path class="background" aria-hidden="true" d="M0,0h0v0h0Z" pointer-events="none"></path><g><g class="mark-rule role-axis-tick" pointer-events="none"><line transform="translate(17,0)" x2="0" y2="5" stroke="#888" stroke-width="1" opacity="1"></line><line transform="translate(58,0)" x2="0" y2="5" stroke="#888" stroke-width="1" opacity="1"></line><line transform="translate(100,0)" x2="0" y2="5" stroke="#888" stroke-width="1" opacity="1"></line><line transform="translate(142,0)" x2="0" y2="5" stroke="#888" stroke-width="1" opacity="1"></line><line transform="translate(183,0)" x2="0" y2="5" stroke="#888" stroke-width="1" opacity="1"></line></g><g class="mark-text role-axis-label" pointer-events="none"><text text-anchor="middle" transform="translate(16.666666666666664,15)" font-family="sans-serif" font-size="10px" fill="#000" opacity="1">-1.0</text><text text-anchor="middle" transform="translate(58.333333333333336,15)" font-family="sans-serif" font-size="10px" fill="#000" opacity="1">-0.5</text><text text-anchor="middle" transform="translate(100,15)" font-family="sans-serif" font-size="10px" fill="#000" opacity="1">0.0</text><text text-anchor="middle" transform="translate(141.66666666666669,15)" font-family="sans-serif" font-size="10px" fill="#000" opacity="1">0.5</text><text text-anchor="middle" transform="translate(183.33333333333334,15)" font-family="sans-serif" font-size="10px" fill="#000" opacity="1">1.0</text></g><g class="mark-rule role-axis-domain" pointer-events="none"><line transform="translate(0,0)" x2="200" y2="0" stroke="#888" stroke-width="1" opacity="1"></line></g><g class="mark-text role-axis-title" pointer-events="none"><text text-anchor="middle" transform="translate(100,30)" font-family="sans-serif" font-size="11px" font-weight="bold" fill="#000" opacity="1">x1</text></g></g><path class="foreground" aria-hidden="true" d="" pointer-events="none" display="none"></path></g></g><g class="mark-group role-axis" role="graphics-symbol" aria-roledescription="axis" aria-label="Y-axis titled 'x2' for a linear scale with values from -1.2 to 1.2"><g transform="translate(0.5,0.5)"><path class="background" aria-hidden="true" d="M0,0h0v0h0Z" pointer-events="none"></path><g><g class="mark-rule role-axis-tick" pointer-events="none"><line transform="translate(0,183)" x2="-5" y2="0" stroke="#888" stroke-width="1" opacity="1"></line><line transform="translate(0,142)" x2="-5" y2="0" stroke="#888" stroke-width="1" opacity="1"></line><line transform="translate(0,100)" x2="-5" y2="0" stroke="#888" stroke-width="1" opacity="1"></line><line transform="translate(0,58)" x2="-5" y2="0" stroke="#888" stroke-width="1" opacity="1"></line><line transform="translate(0,17)" x2="-5" y2="0" stroke="#888" stroke-width="1" opacity="1"></line></g><g class="mark-text role-axis-label" pointer-events="none"><text text-anchor="end" transform="translate(-7,186.33333333333334)" font-family="sans-serif" font-size="10px" fill="#000" opacity="1">-1.0</text><text text-anchor="end" transform="translate(-7,144.66666666666666)" font-family="sans-serif" font-size="10px" fill="#000" opacity="1">-0.5</text><text text-anchor="end" transform="translate(-7,103)" font-family="sans-serif" font-size="10px" fill="#000" opacity="1">0.0</text><text text-anchor="end" transform="translate(-7,61.33333333333333)" font-family="sans-serif" font-size="10px" fill="#000" opacity="1">0.5</text><text text-anchor="end" transform="translate(-7,19.66666666666665)" font-family="sans-serif" font-size="10px" fill="#000" opacity="1">1.0</text></g><g class="mark-rule role-axis-domain" pointer-events="none"><line transform="translate(0,200)" x2="0" y2="-200" stroke="#888" stroke-width="1" opacity="1"></line></g><g class="mark-text role-axis-title" pointer-events="none"><text text-anchor="middle" transform="translate(-29,100) rotate(-90) translate(0,-2)" font-family="sans-serif" font-size="11px" font-weight="bold" fill="#000" opacity="1">x2</text></g></g><path class="foreground" aria-hidden="true" d="" pointer-events="none" display="none"></path></g></g><g class="mark-symbol role-mark marks" role="graphics-object" aria-roledescription="symbol mark container"><path aria-label="x1: -0.342997328999; x2: -0.00629956356294; y: 0" role="graphics-symbol" aria-roledescription="circle" transform="translate(71.41688925011019,100.52496363024494)" d="M2.7386127875258306,0A2.7386127875258306,2.7386127875258306,0,1,1,-2.7386127875258306,0A2.7386127875258306,2.7386127875258306,0,1,1,2.7386127875258306,0" fill="#4c78a8" stroke-width="2" opacity="0.7"></path><path aria-label="x1: 1.02085109709; x2: 0.0437287962949; y: 1" role="graphics-symbol" aria-roledescription="circle" transform="translate(185.07092475708976,96.355933642088)" d="M2.7386127875258306,0A2.7386127875258306,2.7386127875258306,0,1,1,-2.7386127875258306,0A2.7386127875258306,2.7386127875258306,0,1,1,2.7386127875258306,0" fill="#f58518" stroke-width="2" opacity="0.7"></path><path aria-label="x1: -0.218679852152; x2: 0.958060850885; y: 1" role="graphics-symbol" aria-roledescription="circle" transform="translate(81.77667898730216,20.161595759543083)" d="M2.7386127875258306,0A2.7386127875258306,2.7386127875258306,0,1,1,-2.7386127875258306,0A2.7386127875258306,2.7386127875258306,0,1,1,2.7386127875258306,0" fill="#f58518" stroke-width="2" opacity="0.7"></path><path aria-label="x1: 0.962564031141; x2: 0.210845535371; y: 1" role="graphics-symbol" aria-roledescription="circle" transform="translate(180.21366926177257,82.42953871906306)" d="M2.7386127875258306,0A2.7386127875258306,2.7386127875258306,0,1,1,-2.7386127875258306,0A2.7386127875258306,2.7386127875258306,0,1,1,2.7386127875258306,0" fill="#f58518" stroke-width="2" opacity="0.7"></path><path aria-label="x1: -0.237438958713; x2: 0.980325585471; y: 1" role="graphics-symbol" aria-roledescription="circle" transform="translate(80.21342010726843,18.306201210721973)" d="M2.7386127875258306,0A2.7386127875258306,2.7386127875258306,0,1,1,-2.7386127875258306,0A2.7386127875258306,2.7386127875258306,0,1,1,2.7386127875258306,0" fill="#f58518" stroke-width="2" opacity="0.7"></path><path aria-label="x1: -0.245958288489; x2: 0.911132968691; y: 1" role="graphics-symbol" aria-roledescription="circle" transform="translate(79.50347595923462,24.07225260908352)" d="M2.7386127875258306,0A2.7386127875258306,2.7386127875258306,0,1,1,-2.7386127875258306,0A2.7386127875258306,2.7386127875258306,0,1,1,2.7386127875258306,0" fill="#f58518" stroke-width="2" opacity="0.7"></path><path aria-label="x1: -0.615357310013; x2: -0.717477731204; y: 1" role="graphics-symbol" aria-roledescription="circle" transform="translate(48.720224165590736,159.78981093369927)" d="M2.7386127875258306,0A2.7386127875258306,2.7386127875258306,0,1,1,-2.7386127875258306,0A2.7386127875258306,2.7386127875258306,0,1,1,2.7386127875258306,0" fill="#f58518" stroke-width="2" opacity="0.7"></path><path aria-label="x1: 0.299836814908; x2: -0.163932666408; y: 0" role="graphics-symbol" aria-roledescription="circle" transform="translate(124.9864012423326,113.6610555340114)" d="M2.7386127875258306,0A2.7386127875258306,2.7386127875258306,0,1,1,-2.7386127875258306,0A2.7386127875258306,2.7386127875258306,0,1,1,2.7386127875258306,0" fill="#4c78a8" stroke-width="2" opacity="0.7"></path><path aria-label="x1: -0.663246371637; x2: -0.800110968917; y: 1" role="graphics-symbol" aria-roledescription="circle" transform="translate(44.72946903026315,166.67591407641083)" d="M2.7386127875258306,0A2.7386127875258306,2.7386127875258306,0,1,1,-2.7386127875258306,0A2.7386127875258306,2.7386127875258306,0,1,1,2.7386127875258306,0" fill="#f58518" stroke-width="2" opacity="0.7"></path><path aria-label="x1: -1.01006566964; x2: 0.0943533673791; y: 1" role="graphics-symbol" aria-roledescription="circle" transform="translate(15.827860863368645,92.13721938507487)" d="M2.7386127875258306,0A2.7386127875258306,2.7386127875258306,0,1,1,-2.7386127875258306,0A2.7386127875258306,2.7386127875258306,0,1,1,2.7386127875258306,0" fill="#f58518" stroke-width="2" opacity="0.7"></path><path aria-label="x1: -0.089362779402; x2: 0.310829082692; y: 0" role="graphics-symbol" aria-roledescription="circle" transform="translate(92.55310171649766,74.09757644231078)" d="M2.7386127875258306,0A2.7386127875258306,2.7386127875258306,0,1,1,-2.7386127875258306,0A2.7386127875258306,2.7386127875258306,0,1,1,2.7386127875258306,0" fill="#4c78a8" stroke-width="2" opacity="0.7"></path><path aria-label="x1: 0.00146162994879; x2: 0.291251859577; y: 0" role="graphics-symbol" aria-roledescription="circle" transform="translate(100.12180249573255,75.72901170191845)" d="M2.7386127875258306,0A2.7386127875258306,2.7386127875258306,0,1,1,-2.7386127875258306,0A2.7386127875258306,2.7386127875258306,0,1,1,2.7386127875258306,0" fill="#4c78a8" stroke-width="2" opacity="0.7"></path><path aria-label="x1: 0.327948518387; x2: 0.00982268552859; y: 0" role="graphics-symbol" aria-roledescription="circle" transform="translate(127.32904319895741,99.18144287261745)" d="M2.7386127875258306,0A2.7386127875258306,2.7386127875258306,0,1,1,-2.7386127875258306,0A2.7386127875258306,2.7386127875258306,0,1,1,2.7386127875258306,0" fill="#4c78a8" stroke-width="2" opacity="0.7"></path><path aria-label="x1: 0.17351832881; x2: 0.302145733278; y: 0" role="graphics-symbol" aria-roledescription="circle" transform="translate(114.45986073414971,74.82118889352203)" d="M2.7386127875258306,0A2.7386127875258306,2.7386127875258306,0,1,1,-2.7386127875258306,0A2.7386127875258306,2.7386127875258306,0,1,1,2.7386127875258306,0" fill="#4c78a8" stroke-width="2" opacity="0.7"></path><path aria-label="x1: 0.227167685914; x2: -0.117749228363; y: 0" role="graphics-symbol" aria-roledescription="circle" transform="translate(118.93064049286535,109.81243569693457)" d="M2.7386127875258306,0A2.7386127875258306,2.7386127875258306,0,1,1,-2.7386127875258306,0A2.7386127875258306,2.7386127875258306,0,1,1,2.7386127875258306,0" fill="#4c78a8" stroke-width="2" opacity="0.7"></path><path aria-label="x1: -0.679973863644; x2: 0.722140163228; y: 1" role="graphics-symbol" aria-roledescription="circle" transform="translate(43.33551136297267,39.821653064298346)" d="M2.7386127875258306,0A2.7386127875258306,2.7386127875258306,0,1,1,-2.7386127875258306,0A2.7386127875258306,2.7386127875258306,0,1,1,2.7386127875258306,0" fill="#f58518" stroke-width="2" opacity="0.7"></path><path aria-label="x1: 0.952001212471; x2: 0.253462043601; y: 1" role="graphics-symbol" aria-roledescription="circle" transform="translate(179.33343437254388,78.87816303320902)" d="M2.7386127875258306,0A2.7386127875258306,2.7386127875258306,0,1,1,-2.7386127875258306,0A2.7386127875258306,2.7386127875258306,0,1,1,2.7386127875258306,0" fill="#f58518" stroke-width="2" opacity="0.7"></path><path aria-label="x1: -0.294648545612; x2: -0.156854356527; y: 0" role="graphics-symbol" aria-roledescription="circle" transform="translate(75.4459545323283,113.07119637727847)" d="M2.7386127875258306,0A2.7386127875258306,2.7386127875258306,0,1,1,-2.7386127875258306,0A2.7386127875258306,2.7386127875258306,0,1,1,2.7386127875258306,0" fill="#4c78a8" stroke-width="2" opacity="0.7"></path><path aria-label="x1: 0.27009826665; x2: 0.00888445334085; y: 0" role="graphics-symbol" aria-roledescription="circle" transform="translate(122.50818888749613,99.25962888826227)" d="M2.7386127875258306,0A2.7386127875258306,2.7386127875258306,0,1,1,-2.7386127875258306,0A2.7386127875258306,2.7386127875258306,0,1,1,2.7386127875258306,0" fill="#4c78a8" stroke-width="2" opacity="0.7"></path><path aria-label="x1: 0.185929930136; x2: 0.0911520483266; y: 0" role="graphics-symbol" aria-roledescription="circle" transform="translate(115.49416084468737,92.40399597278748)" d="M2.7386127875258306,0A2.7386127875258306,2.7386127875258306,0,1,1,-2.7386127875258306,0A2.7386127875258306,2.7386127875258306,0,1,1,2.7386127875258306,0" fill="#4c78a8" stroke-width="2" opacity="0.7"></path><path aria-label="x1: -0.293508043332; x2: 0.141275146372; y: 0" role="graphics-symbol" aria-roledescription="circle" transform="translate(75.54099638900887,88.22707113568569)" d="M2.7386127875258306,0A2.7386127875258306,2.7386127875258306,0,1,1,-2.7386127875258306,0A2.7386127875258306,2.7386127875258306,0,1,1,2.7386127875258306,0" fill="#4c78a8" stroke-width="2" opacity="0.7"></path><path aria-label="x1: 0.79781918529; x2: 0.616281319491; y: 1" role="graphics-symbol" aria-roledescription="circle" transform="translate(166.48493210747426,48.64322337576428)" d="M2.7386127875258306,0A2.7386127875258306,2.7386127875258306,0,1,1,-2.7386127875258306,0A2.7386127875258306,2.7386127875258306,0,1,1,2.7386127875258306,0" fill="#f58518" stroke-width="2" opacity="0.7"></path><path aria-label="x1: -0.222546887682; x2: 0.160550715222; y: 0" role="graphics-symbol" aria-roledescription="circle" transform="translate(81.45442602648875,86.62077373149488)" d="M2.7386127875258306,0A2.7386127875258306,2.7386127875258306,0,1,1,-2.7386127875258306,0A2.7386127875258306,2.7386127875258306,0,1,1,2.7386127875258306,0" fill="#4c78a8" stroke-width="2" opacity="0.7"></path><path aria-label="x1: -0.158811804002; x2: -0.98224454123; y: 1" role="graphics-symbol" aria-roledescription="circle" transform="translate(86.76568299984181,181.8537117692042)" d="M2.7386127875258306,0A2.7386127875258306,2.7386127875258306,0,1,1,-2.7386127875258306,0A2.7386127875258306,2.7386127875258306,0,1,1,2.7386127875258306,0" fill="#f58518" stroke-width="2" opacity="0.7"></path><path aria-label="x1: -0.85630206057; x2: -0.4352740379; y: 1" role="graphics-symbol" aria-roledescription="circle" transform="translate(28.641494952495407,136.27283649164937)" d="M2.7386127875258306,0A2.7386127875258306,2.7386127875258306,0,1,1,-2.7386127875258306,0A2.7386127875258306,2.7386127875258306,0,1,1,2.7386127875258306,0" fill="#f58518" stroke-width="2" opacity="0.7"></path><path aria-label="x1: 0.329781894814; x2: -0.978987545831; y: 1" role="graphics-symbol" aria-roledescription="circle" transform="translate(127.48182456786338,181.58229548588375)" d="M2.7386127875258306,0A2.7386127875258306,2.7386127875258306,0,1,1,-2.7386127875258306,0A2.7386127875258306,2.7386127875258306,0,1,1,2.7386127875258306,0" fill="#f58518" stroke-width="2" opacity="0.7"></path><path aria-label="x1: -0.770667023759; x2: 0.606821111399; y: 1" role="graphics-symbol" aria-roledescription="circle" transform="translate(35.77774802005218,49.43157405011074)" d="M2.7386127875258306,0A2.7386127875258306,2.7386127875258306,0,1,1,-2.7386127875258306,0A2.7386127875258306,2.7386127875258306,0,1,1,2.7386127875258306,0" fill="#f58518" stroke-width="2" opacity="0.7"></path><path aria-label="x1: -0.465947728981; x2: 0.943504381441; y: 1" role="graphics-symbol" aria-roledescription="circle" transform="translate(61.17102258487844,21.37463487994806)" d="M2.7386127875258306,0A2.7386127875258306,2.7386127875258306,0,1,1,-2.7386127875258306,0A2.7386127875258306,2.7386127875258306,0,1,1,2.7386127875258306,0" fill="#f58518" stroke-width="2" opacity="0.7"></path><path aria-label="x1: -0.110036847053; x2: -0.968964045611; y: 1" role="graphics-symbol" aria-roledescription="circle" transform="translate(90.83026274558925,180.74700380095337)" d="M2.7386127875258306,0A2.7386127875258306,2.7386127875258306,0,1,1,-2.7386127875258306,0A2.7386127875258306,2.7386127875258306,0,1,1,2.7386127875258306,0" fill="#f58518" stroke-width="2" opacity="0.7"></path><path aria-label="x1: -0.231071832829; x2: 0.0599539329475; y: 0" role="graphics-symbol" aria-roledescription="circle" transform="translate(80.74401393094746,95.0038389210448)" d="M2.7386127875258306,0A2.7386127875258306,2.7386127875258306,0,1,1,-2.7386127875258306,0A2.7386127875258306,2.7386127875258306,0,1,1,2.7386127875258306,0" fill="#4c78a8" stroke-width="2" opacity="0.7"></path><path aria-label="x1: 0.633055754878; x2: -0.862654095315; y: 1" role="graphics-symbol" aria-roledescription="circle" transform="translate(152.75464623984587,171.88784127629137)" d="M2.7386127875258306,0A2.7386127875258306,2.7386127875258306,0,1,1,-2.7386127875258306,0A2.7386127875258306,2.7386127875258306,0,1,1,2.7386127875258306,0" fill="#f58518" stroke-width="2" opacity="0.7"></path><path aria-label="x1: 0.424278026142; x2: 0.920108859596; y: 1" role="graphics-symbol" aria-roledescription="circle" transform="translate(135.35650217846208,23.324261700372496)" d="M2.7386127875258306,0A2.7386127875258306,2.7386127875258306,0,1,1,-2.7386127875258306,0A2.7386127875258306,2.7386127875258306,0,1,1,2.7386127875258306,0" fill="#f58518" stroke-width="2" opacity="0.7"></path><path aria-label="x1: -0.514767022501; x2: -0.842291406477; y: 1" role="graphics-symbol" aria-roledescription="circle" transform="translate(57.10274812489998,170.19095053978234)" d="M2.7386127875258306,0A2.7386127875258306,2.7386127875258306,0,1,1,-2.7386127875258306,0A2.7386127875258306,2.7386127875258306,0,1,1,2.7386127875258306,0" fill="#f58518" stroke-width="2" opacity="0.7"></path><path aria-label="x1: -0.019939208668; x2: 0.282216048123; y: 0" role="graphics-symbol" aria-roledescription="circle" transform="translate(98.33839927766962,76.48199598973082)" d="M2.7386127875258306,0A2.7386127875258306,2.7386127875258306,0,1,1,-2.7386127875258306,0A2.7386127875258306,2.7386127875258306,0,1,1,2.7386127875258306,0" fill="#4c78a8" stroke-width="2" opacity="0.7"></path><path aria-label="x1: 0.709895106743; x2: -0.615724014795; y: 1" role="graphics-symbol" aria-roledescription="circle" transform="translate(159.15792556187785,151.3103345662458)" d="M2.7386127875258306,0A2.7386127875258306,2.7386127875258306,0,1,1,-2.7386127875258306,0A2.7386127875258306,2.7386127875258306,0,1,1,2.7386127875258306,0" fill="#f58518" stroke-width="2" opacity="0.7"></path><path aria-label="x1: 0.206556710505; x2: -0.0876634096687; y: 0" role="graphics-symbol" aria-roledescription="circle" transform="translate(117.21305920878126,107.30528413906195)" d="M2.7386127875258306,0A2.7386127875258306,2.7386127875258306,0,1,1,-2.7386127875258306,0A2.7386127875258306,2.7386127875258306,0,1,1,2.7386127875258306,0" fill="#4c78a8" stroke-width="2" opacity="0.7"></path><path aria-label="x1: 0.448038257365; x2: 0.955499542981; y: 1" role="graphics-symbol" aria-roledescription="circle" transform="translate(137.33652144704502,20.37503808492609)" d="M2.7386127875258306,0A2.7386127875258306,2.7386127875258306,0,1,1,-2.7386127875258306,0A2.7386127875258306,2.7386127875258306,0,1,1,2.7386127875258306,0" fill="#f58518" stroke-width="2" opacity="0.7"></path><path aria-label="x1: -0.250800816828; x2: -0.944931472392; y: 1" role="graphics-symbol" aria-roledescription="circle" transform="translate(79.09993193096334,178.7442893660013)" d="M2.7386127875258306,0A2.7386127875258306,2.7386127875258306,0,1,1,-2.7386127875258306,0A2.7386127875258306,2.7386127875258306,0,1,1,2.7386127875258306,0" fill="#f58518" stroke-width="2" opacity="0.7"></path><path aria-label="x1: -0.150465931004; x2: -0.29935140872; y: 0" role="graphics-symbol" aria-roledescription="circle" transform="translate(87.46117241630674,124.94595072669283)" d="M2.7386127875258306,0A2.7386127875258306,2.7386127875258306,0,1,1,-2.7386127875258306,0A2.7386127875258306,2.7386127875258306,0,1,1,2.7386127875258306,0" fill="#4c78a8" stroke-width="2" opacity="0.7"></path><path aria-label="x1: 0.910300620657; x2: -0.473092827125; y: 1" role="graphics-symbol" aria-roledescription="circle" transform="translate(175.85838505471423,139.4244022604536)" d="M2.7386127875258306,0A2.7386127875258306,2.7386127875258306,0,1,1,-2.7386127875258306,0A2.7386127875258306,2.7386127875258306,0,1,1,2.7386127875258306,0" fill="#f58518" stroke-width="2" opacity="0.7"></path><path aria-label="x1: 0.248759439629; x2: 0.939531619271; y: 1" role="graphics-symbol" aria-roledescription="circle" transform="translate(120.72995330244692,21.705698394084806)" d="M2.7386127875258306,0A2.7386127875258306,2.7386127875258306,0,1,1,-2.7386127875258306,0A2.7386127875258306,2.7386127875258306,0,1,1,2.7386127875258306,0" fill="#f58518" stroke-width="2" opacity="0.7"></path><path aria-label="x1: 0.556504488053; x2: 0.854708131875; y: 1" role="graphics-symbol" aria-roledescription="circle" transform="translate(146.37537400440863,28.774322343767935)" d="M2.7386127875258306,0A2.7386127875258306,2.7386127875258306,0,1,1,-2.7386127875258306,0A2.7386127875258306,2.7386127875258306,0,1,1,2.7386127875258306,0" fill="#f58518" stroke-width="2" opacity="0.7"></path><path aria-label="x1: 0.162690852891; x2: 0.274777182183; y: 0" role="graphics-symbol" aria-roledescription="circle" transform="translate(113.55757107421942,77.10190148472506)" d="M2.7386127875258306,0A2.7386127875258306,2.7386127875258306,0,1,1,-2.7386127875258306,0A2.7386127875258306,2.7386127875258306,0,1,1,2.7386127875258306,0" fill="#4c78a8" stroke-width="2" opacity="0.7"></path><path aria-label="x1: -0.962975639887; x2: 0.0820182213652; y: 1" role="graphics-symbol" aria-roledescription="circle" transform="translate(19.75203000940329,93.16514821956842)" d="M2.7386127875258306,0A2.7386127875258306,2.7386127875258306,0,1,1,-2.7386127875258306,0A2.7386127875258306,2.7386127875258306,0,1,1,2.7386127875258306,0" fill="#f58518" stroke-width="2" opacity="0.7"></path><path aria-label="x1: -0.105631046577; x2: -0.237037091303; y: 0" role="graphics-symbol" aria-roledescription="circle" transform="translate(91.19741278529158,119.75309094192164)" d="M2.7386127875258306,0A2.7386127875258306,2.7386127875258306,0,1,1,-2.7386127875258306,0A2.7386127875258306,2.7386127875258306,0,1,1,2.7386127875258306,0" fill="#4c78a8" stroke-width="2" opacity="0.7"></path><path aria-label="x1: 0.875478754586; x2: -0.502162770687; y: 1" role="graphics-symbol" aria-roledescription="circle" transform="translate(172.95656288214923,141.84689755723235)" d="M2.7386127875258306,0A2.7386127875258306,2.7386127875258306,0,1,1,-2.7386127875258306,0A2.7386127875258306,2.7386127875258306,0,1,1,2.7386127875258306,0" fill="#f58518" stroke-width="2" opacity="0.7"></path><path aria-label="x1: 0.975066388068; x2: -0.0836811113437; y: 1" role="graphics-symbol" aria-roledescription="circle" transform="translate(181.25553233898515,106.97342594530568)" d="M2.7386127875258306,0A2.7386127875258306,2.7386127875258306,0,1,1,-2.7386127875258306,0A2.7386127875258306,2.7386127875258306,0,1,1,2.7386127875258306,0" fill="#f58518" stroke-width="2" opacity="0.7"></path><path aria-label="x1: 1.01823787006; x2: 0.362298633532; y: 1" role="graphics-symbol" aria-roledescription="circle" transform="translate(184.85315583862936,69.80844720570612)" d="M2.7386127875258306,0A2.7386127875258306,2.7386127875258306,0,1,1,-2.7386127875258306,0A2.7386127875258306,2.7386127875258306,0,1,1,2.7386127875258306,0" fill="#f58518" stroke-width="2" opacity="0.7"></path><path aria-label="x1: -0.315687363785; x2: 0.202797795254; y: 0" role="graphics-symbol" aria-roledescription="circle" transform="translate(73.6927196846085,83.10018372883978)" d="M2.7386127875258306,0A2.7386127875258306,2.7386127875258306,0,1,1,-2.7386127875258306,0A2.7386127875258306,2.7386127875258306,0,1,1,2.7386127875258306,0" fill="#4c78a8" stroke-width="2" opacity="0.7"></path><path aria-label="x1: -0.283195607054; x2: -0.1592405085; y: 0" role="graphics-symbol" aria-roledescription="circle" transform="translate(76.40036607883167,113.27004237503007)" d="M2.7386127875258306,0A2.7386127875258306,2.7386127875258306,0,1,1,-2.7386127875258306,0A2.7386127875258306,2.7386127875258306,0,1,1,2.7386127875258306,0" fill="#4c78a8" stroke-width="2" opacity="0.7"></path><path aria-label="x1: 0.1602699702; x2: 0.31023859758; y: 0" role="graphics-symbol" aria-roledescription="circle" transform="translate(113.35583085002744,74.14678353501137)" d="M2.7386127875258306,0A2.7386127875258306,2.7386127875258306,0,1,1,-2.7386127875258306,0A2.7386127875258306,2.7386127875258306,0,1,1,2.7386127875258306,0" fill="#4c78a8" stroke-width="2" opacity="0.7"></path><path aria-label="x1: 0.607225820608; x2: -0.791281837249; y: 1" role="graphics-symbol" aria-roledescription="circle" transform="translate(150.6021517173257,165.94015310410506)" d="M2.7386127875258306,0A2.7386127875258306,2.7386127875258306,0,1,1,-2.7386127875258306,0A2.7386127875258306,2.7386127875258306,0,1,1,2.7386127875258306,0" fill="#f58518" stroke-width="2" opacity="0.7"></path><path aria-label="x1: -0.205356944667; x2: -0.256568508463; y: 0" role="graphics-symbol" aria-roledescription="circle" transform="translate(82.88692127777097,121.38070903858011)" d="M2.7386127875258306,0A2.7386127875258306,2.7386127875258306,0,1,1,-2.7386127875258306,0A2.7386127875258306,2.7386127875258306,0,1,1,2.7386127875258306,0" fill="#4c78a8" stroke-width="2" opacity="0.7"></path><path aria-label="x1: -0.964149934439; x2: -0.140492085161; y: 1" role="graphics-symbol" aria-roledescription="circle" transform="translate(19.65417213006937,111.70767376338968)" d="M2.7386127875258306,0A2.7386127875258306,2.7386127875258306,0,1,1,-2.7386127875258306,0A2.7386127875258306,2.7386127875258306,0,1,1,2.7386127875258306,0" fill="#f58518" stroke-width="2" opacity="0.7"></path><path aria-label="x1: -0.611266153175; x2: -0.871532160081; y: 1" role="graphics-symbol" aria-roledescription="circle" transform="translate(49.061153902043216,172.62768000675638)" d="M2.7386127875258306,0A2.7386127875258306,2.7386127875258306,0,1,1,-2.7386127875258306,0A2.7386127875258306,2.7386127875258306,0,1,1,2.7386127875258306,0" fill="#f58518" stroke-width="2" opacity="0.7"></path><path aria-label="x1: -0.0829349834407; x2: -0.412973636064; y: 0" role="graphics-symbol" aria-roledescription="circle" transform="translate(93.08875137994052,134.41446967199232)" d="M2.7386127875258306,0A2.7386127875258306,2.7386127875258306,0,1,1,-2.7386127875258306,0A2.7386127875258306,2.7386127875258306,0,1,1,2.7386127875258306,0" fill="#4c78a8" stroke-width="2" opacity="0.7"></path><path aria-label="x1: 1.0385999791; x2: -0.140170005377; y: 1" role="graphics-symbol" aria-roledescription="circle" transform="translate(186.54999825823734,111.6808337814332)" d="M2.7386127875258306,0A2.7386127875258306,2.7386127875258306,0,1,1,-2.7386127875258306,0A2.7386127875258306,2.7386127875258306,0,1,1,2.7386127875258306,0" fill="#f58518" stroke-width="2" opacity="0.7"></path><path aria-label="x1: -1.00766413249; x2: 0.0273353323498; y: 1" role="graphics-symbol" aria-roledescription="circle" transform="translate(16.027988958998137,97.7220556375173)" d="M2.7386127875258306,0A2.7386127875258306,2.7386127875258306,0,1,1,-2.7386127875258306,0A2.7386127875258306,2.7386127875258306,0,1,1,2.7386127875258306,0" fill="#f58518" stroke-width="2" opacity="0.7"></path><path aria-label="x1: 0.298174248223; x2: 0.0428635562555; y: 0" role="graphics-symbol" aria-roledescription="circle" transform="translate(124.84785401857256,96.42803697870568)" d="M2.7386127875258306,0A2.7386127875258306,2.7386127875258306,0,1,1,-2.7386127875258306,0A2.7386127875258306,2.7386127875258306,0,1,1,2.7386127875258306,0" fill="#4c78a8" stroke-width="2" opacity="0.7"></path><path aria-label="x1: 0.0132312455374; x2: 0.201474882976; y: 0" role="graphics-symbol" aria-roledescription="circle" transform="translate(101.10260379478142,83.2104264186759)" d="M2.7386127875258306,0A2.7386127875258306,2.7386127875258306,0,1,1,-2.7386127875258306,0A2.7386127875258306,2.7386127875258306,0,1,1,2.7386127875258306,0" fill="#4c78a8" stroke-width="2" opacity="0.7"></path><path aria-label="x1: 0.366842112229; x2: -0.0455798133155; y: 0" role="graphics-symbol" aria-roledescription="circle" transform="translate(130.57017601907728,103.79831777629491)" d="M2.7386127875258306,0A2.7386127875258306,2.7386127875258306,0,1,1,-2.7386127875258306,0A2.7386127875258306,2.7386127875258306,0,1,1,2.7386127875258306,0" fill="#4c78a8" stroke-width="2" opacity="0.7"></path><path aria-label="x1: -0.374010011844; x2: 0.920353040131; y: 1" role="graphics-symbol" aria-roledescription="circle" transform="translate(68.83249901296993,23.303913322441126)" d="M2.7386127875258306,0A2.7386127875258306,2.7386127875258306,0,1,1,-2.7386127875258306,0A2.7386127875258306,2.7386127875258306,0,1,1,2.7386127875258306,0" fill="#f58518" stroke-width="2" opacity="0.7"></path><path aria-label="x1: -0.92673442708; x2: 0.179309102002; y: 1" role="graphics-symbol" aria-roledescription="circle" transform="translate(22.77213107666859,85.05757483315797)" d="M2.7386127875258306,0A2.7386127875258306,2.7386127875258306,0,1,1,-2.7386127875258306,0A2.7386127875258306,2.7386127875258306,0,1,1,2.7386127875258306,0" fill="#f58518" stroke-width="2" opacity="0.7"></path><path aria-label="x1: 0.0269544174095; x2: 0.333100437655; y: 0" role="graphics-symbol" aria-roledescription="circle" transform="translate(102.24620145079302,72.24163019543698)" d="M2.7386127875258306,0A2.7386127875258306,2.7386127875258306,0,1,1,-2.7386127875258306,0A2.7386127875258306,2.7386127875258306,0,1,1,2.7386127875258306,0" fill="#4c78a8" stroke-width="2" opacity="0.7"></path><path aria-label="x1: -0.182682047472; x2: 0.238566624831; y: 0" role="graphics-symbol" aria-roledescription="circle" transform="translate(84.77649604401945,80.11944793078361)" d="M2.7386127875258306,0A2.7386127875258306,2.7386127875258306,0,1,1,-2.7386127875258306,0A2.7386127875258306,2.7386127875258306,0,1,1,2.7386127875258306,0" fill="#4c78a8" stroke-width="2" opacity="0.7"></path><path aria-label="x1: -0.189417395083; x2: -0.144742477856; y: 0" role="graphics-symbol" aria-roledescription="circle" transform="translate(84.21521707645691,112.06187315470366)" d="M2.7386127875258306,0A2.7386127875258306,2.7386127875258306,0,1,1,-2.7386127875258306,0A2.7386127875258306,2.7386127875258306,0,1,1,2.7386127875258306,0" fill="#4c78a8" stroke-width="2" opacity="0.7"></path><path aria-label="x1: -0.542517653324; x2: -0.80594650035; y: 1" role="graphics-symbol" aria-roledescription="circle" transform="translate(54.79019555634381,167.16220836250008)" d="M2.7386127875258306,0A2.7386127875258306,2.7386127875258306,0,1,1,-2.7386127875258306,0A2.7386127875258306,2.7386127875258306,0,1,1,2.7386127875258306,0" fill="#f58518" stroke-width="2" opacity="0.7"></path><path aria-label="x1: -0.965076902479; x2: -0.0223222000148; y: 1" role="graphics-symbol" aria-roledescription="circle" transform="translate(19.576924793429225,101.86018333456386)" d="M2.7386127875258306,0A2.7386127875258306,2.7386127875258306,0,1,1,-2.7386127875258306,0A2.7386127875258306,2.7386127875258306,0,1,1,2.7386127875258306,0" fill="#f58518" stroke-width="2" opacity="0.7"></path><path aria-label="x1: 0.711270652763; x2: -0.721159266057; y: 1" role="graphics-symbol" aria-roledescription="circle" transform="translate(159.2725543969026,160.09660550476644)" d="M2.7386127875258306,0A2.7386127875258306,2.7386127875258306,0,1,1,-2.7386127875258306,0A2.7386127875258306,2.7386127875258306,0,1,1,2.7386127875258306,0" fill="#f58518" stroke-width="2" opacity="0.7"></path><path aria-label="x1: -0.284918152768; x2: -0.0705459615909; y: 0" role="graphics-symbol" aria-roledescription="circle" transform="translate(76.25682060265669,105.87883013257712)" d="M2.7386127875258306,0A2.7386127875258306,2.7386127875258306,0,1,1,-2.7386127875258306,0A2.7386127875258306,2.7386127875258306,0,1,1,2.7386127875258306,0" fill="#4c78a8" stroke-width="2" opacity="0.7"></path><path aria-label="x1: 0.275607909435; x2: 0.202355361264; y: 0" role="graphics-symbol" aria-roledescription="circle" transform="translate(122.96732578625303,83.13705322796407)" d="M2.7386127875258306,0A2.7386127875258306,2.7386127875258306,0,1,1,-2.7386127875258306,0A2.7386127875258306,2.7386127875258306,0,1,1,2.7386127875258306,0" fill="#4c78a8" stroke-width="2" opacity="0.7"></path><path aria-label="x1: 0.224070319333; x2: 0.951965787998; y: 1" role="graphics-symbol" aria-roledescription="circle" transform="translate(118.67252661104446,20.66951766679763)" d="M2.7386127875258306,0A2.7386127875258306,2.7386127875258306,0,1,1,-2.7386127875258306,0A2.7386127875258306,2.7386127875258306,0,1,1,2.7386127875258306,0" fill="#f58518" stroke-width="2" opacity="0.7"></path><path aria-label="x1: 0.951945402713; x2: -0.453571979695; y: 1" role="graphics-symbol" aria-roledescription="circle" transform="translate(179.32878355939508,137.79766497455915)" d="M2.7386127875258306,0A2.7386127875258306,2.7386127875258306,0,1,1,-2.7386127875258306,0A2.7386127875258306,2.7386127875258306,0,1,1,2.7386127875258306,0" fill="#f58518" stroke-width="2" opacity="0.7"></path><path aria-label="x1: -0.333324469509; x2: -0.207789501573; y: 0" role="graphics-symbol" aria-roledescription="circle" transform="translate(72.22296087425259,117.31579179773559)" d="M2.7386127875258306,0A2.7386127875258306,2.7386127875258306,0,1,1,-2.7386127875258306,0A2.7386127875258306,2.7386127875258306,0,1,1,2.7386127875258306,0" fill="#4c78a8" stroke-width="2" opacity="0.7"></path><path aria-label="x1: 0.143650135777; x2: 0.0571677262595; y: 0" role="graphics-symbol" aria-roledescription="circle" transform="translate(111.97084464804479,95.23602281170685)" d="M2.7386127875258306,0A2.7386127875258306,2.7386127875258306,0,1,1,-2.7386127875258306,0A2.7386127875258306,2.7386127875258306,0,1,1,2.7386127875258306,0" fill="#4c78a8" stroke-width="2" opacity="0.7"></path><path aria-label="x1: -0.265002388387; x2: 0.0227925901296; y: 0" role="graphics-symbol" aria-roledescription="circle" transform="translate(77.91646763438736,98.10061748919941)" d="M2.7386127875258306,0A2.7386127875258306,2.7386127875258306,0,1,1,-2.7386127875258306,0A2.7386127875258306,2.7386127875258306,0,1,1,2.7386127875258306,0" fill="#4c78a8" stroke-width="2" opacity="0.7"></path><path aria-label="x1: 0.206355963436; x2: -0.0134253052282; y: 0" role="graphics-symbol" aria-roledescription="circle" transform="translate(117.19633028631146,101.11877543568588)" d="M2.7386127875258306,0A2.7386127875258306,2.7386127875258306,0,1,1,-2.7386127875258306,0A2.7386127875258306,2.7386127875258306,0,1,1,2.7386127875258306,0" fill="#4c78a8" stroke-width="2" opacity="0.7"></path><path aria-label="x1: 0.055374276624; x2: 0.246139588831; y: 0" role="graphics-symbol" aria-roledescription="circle" transform="translate(104.61452305199734,79.48836759742876)" d="M2.7386127875258306,0A2.7386127875258306,2.7386127875258306,0,1,1,-2.7386127875258306,0A2.7386127875258306,2.7386127875258306,0,1,1,2.7386127875258306,0" fill="#4c78a8" stroke-width="2" opacity="0.7"></path><path aria-label="x1: -0.250478951386; x2: -0.119262899972; y: 0" role="graphics-symbol" aria-roledescription="circle" transform="translate(79.12675405117895,109.93857499769209)" d="M2.7386127875258306,0A2.7386127875258306,2.7386127875258306,0,1,1,-2.7386127875258306,0A2.7386127875258306,2.7386127875258306,0,1,1,2.7386127875258306,0" fill="#4c78a8" stroke-width="2" opacity="0.7"></path><path aria-label="x1: -0.301354952829; x2: 0.186164736478; y: 0" role="graphics-symbol" aria-roledescription="circle" transform="translate(74.8870872642116,84.48627196015697)" d="M2.7386127875258306,0A2.7386127875258306,2.7386127875258306,0,1,1,-2.7386127875258306,0A2.7386127875258306,2.7386127875258306,0,1,1,2.7386127875258306,0" fill="#4c78a8" stroke-width="2" opacity="0.7"></path><path aria-label="x1: 0.145321091944; x2: -1.04089567774; y: 1" role="graphics-symbol" aria-roledescription="circle" transform="translate(112.11009099533875,186.741306478256)" d="M2.7386127875258306,0A2.7386127875258306,2.7386127875258306,0,1,1,-2.7386127875258306,0A2.7386127875258306,2.7386127875258306,0,1,1,2.7386127875258306,0" fill="#f58518" stroke-width="2" opacity="0.7"></path><path aria-label="x1: 0.708106266034; x2: 0.687460776231; y: 1" role="graphics-symbol" aria-roledescription="circle" transform="translate(159.00885550281808,42.71160198075656)" d="M2.7386127875258306,0A2.7386127875258306,2.7386127875258306,0,1,1,-2.7386127875258306,0A2.7386127875258306,2.7386127875258306,0,1,1,2.7386127875258306,0" fill="#f58518" stroke-width="2" opacity="0.7"></path><path aria-label="x1: 0.839017404506; x2: 0.462099920363; y: 1" role="graphics-symbol" aria-roledescription="circle" transform="translate(169.91811704214976,61.49167330312102)" d="M2.7386127875258306,0A2.7386127875258306,2.7386127875258306,0,1,1,-2.7386127875258306,0A2.7386127875258306,2.7386127875258306,0,1,1,2.7386127875258306,0" fill="#f58518" stroke-width="2" opacity="0.7"></path><path aria-label="x1: -0.226524088354; x2: 0.168546370468; y: 0" role="graphics-symbol" aria-roledescription="circle" transform="translate(81.12299263718864,85.95446912766423)" d="M2.7386127875258306,0A2.7386127875258306,2.7386127875258306,0,1,1,-2.7386127875258306,0A2.7386127875258306,2.7386127875258306,0,1,1,2.7386127875258306,0" fill="#4c78a8" stroke-width="2" opacity="0.7"></path><path aria-label="x1: 0.197405258486; x2: 0.130726256501; y: 0" role="graphics-symbol" aria-roledescription="circle" transform="translate(116.4504382071414,89.1061452915459)" d="M2.7386127875258306,0A2.7386127875258306,2.7386127875258306,0,1,1,-2.7386127875258306,0A2.7386127875258306,2.7386127875258306,0,1,1,2.7386127875258306,0" fill="#4c78a8" stroke-width="2" opacity="0.7"></path><path aria-label="x1: 0.267326841376; x2: -0.137195147973; y: 0" role="graphics-symbol" aria-roledescription="circle" transform="translate(122.27723678133704,111.432928997711)" d="M2.7386127875258306,0A2.7386127875258306,2.7386127875258306,0,1,1,-2.7386127875258306,0A2.7386127875258306,2.7386127875258306,0,1,1,2.7386127875258306,0" fill="#4c78a8" stroke-width="2" opacity="0.7"></path><path aria-label="x1: 0.311605648432; x2: 0.0649842083503; y: 0" role="graphics-symbol" aria-roledescription="circle" transform="translate(125.96713736931929,94.58464930414033)" d="M2.7386127875258306,0A2.7386127875258306,2.7386127875258306,0,1,1,-2.7386127875258306,0A2.7386127875258306,2.7386127875258306,0,1,1,2.7386127875258306,0" fill="#4c78a8" stroke-width="2" opacity="0.7"></path><path aria-label="x1: -0.249602794151; x2: 0.0566366071225; y: 0" role="graphics-symbol" aria-roledescription="circle" transform="translate(79.19976715405512,95.28028273978913)" d="M2.7386127875258306,0A2.7386127875258306,2.7386127875258306,0,1,1,-2.7386127875258306,0A2.7386127875258306,2.7386127875258306,0,1,1,2.7386127875258306,0" fill="#4c78a8" stroke-width="2" opacity="0.7"></path><path aria-label="x1: -0.235827536687; x2: 0.184120662908; y: 0" role="graphics-symbol" aria-roledescription="circle" transform="translate(80.34770527606216,84.65661142434008)" d="M2.7386127875258306,0A2.7386127875258306,2.7386127875258306,0,1,1,-2.7386127875258306,0A2.7386127875258306,2.7386127875258306,0,1,1,2.7386127875258306,0" fill="#4c78a8" stroke-width="2" opacity="0.7"></path><path aria-label="x1: -0.234033244299; x2: 0.84033814802; y: 1" role="graphics-symbol" aria-roledescription="circle" transform="translate(80.49722964173523,29.971820998369214)" d="M2.7386127875258306,0A2.7386127875258306,2.7386127875258306,0,1,1,-2.7386127875258306,0A2.7386127875258306,2.7386127875258306,0,1,1,2.7386127875258306,0" fill="#f58518" stroke-width="2" opacity="0.7"></path><path aria-label="x1: 0.878473359724; x2: 0.660786589146; y: 1" role="graphics-symbol" aria-roledescription="circle" transform="translate(173.20611331034206,44.934450904499656)" d="M2.7386127875258306,0A2.7386127875258306,2.7386127875258306,0,1,1,-2.7386127875258306,0A2.7386127875258306,2.7386127875258306,0,1,1,2.7386127875258306,0" fill="#f58518" stroke-width="2" opacity="0.7"></path><path aria-label="x1: -0.267515051351; x2: -0.227332194267; y: 0" role="graphics-symbol" aria-roledescription="circle" transform="translate(77.70707905412054,118.9443495222581)" d="M2.7386127875258306,0A2.7386127875258306,2.7386127875258306,0,1,1,-2.7386127875258306,0A2.7386127875258306,2.7386127875258306,0,1,1,2.7386127875258306,0" fill="#4c78a8" stroke-width="2" opacity="0.7"></path><path aria-label="x1: 0.13987364887; x2: -0.32668574207; y: 0" role="graphics-symbol" aria-roledescription="circle" transform="translate(111.65613740584703,127.22381183919236)" d="M2.7386127875258306,0A2.7386127875258306,2.7386127875258306,0,1,1,-2.7386127875258306,0A2.7386127875258306,2.7386127875258306,0,1,1,2.7386127875258306,0" fill="#4c78a8" stroke-width="2" opacity="0.7"></path><path aria-label="x1: 0.346092174575; x2: -1.01549289034; y: 1" role="graphics-symbol" aria-roledescription="circle" transform="translate(128.8410145479082,184.62440752841363)" d="M2.7386127875258306,0A2.7386127875258306,2.7386127875258306,0,1,1,-2.7386127875258306,0A2.7386127875258306,2.7386127875258306,0,1,1,2.7386127875258306,0" fill="#f58518" stroke-width="2" opacity="0.7"></path><path aria-label="x1: 0.165201447298; x2: 1.034839139; y: 1" role="graphics-symbol" aria-roledescription="circle" transform="translate(113.76678727487175,13.763405083165981)" d="M2.7386127875258306,0A2.7386127875258306,2.7386127875258306,0,1,1,-2.7386127875258306,0A2.7386127875258306,2.7386127875258306,0,1,1,2.7386127875258306,0" fill="#f58518" stroke-width="2" opacity="0.7"></path><path aria-label="x1: 0.248830056828; x2: 0.086596666705; y: 0" role="graphics-symbol" aria-roledescription="circle" transform="translate(120.73583806903036,92.78361110791383)" d="M2.7386127875258306,0A2.7386127875258306,2.7386127875258306,0,1,1,-2.7386127875258306,0A2.7386127875258306,2.7386127875258306,0,1,1,2.7386127875258306,0" fill="#4c78a8" stroke-width="2" opacity="0.7"></path><path aria-label="x1: 0.0207337541986; x2: -0.273474754725; y: 0" role="graphics-symbol" aria-roledescription="circle" transform="translate(101.72781284988544,122.7895628937659)" d="M2.7386127875258306,0A2.7386127875258306,2.7386127875258306,0,1,1,-2.7386127875258306,0A2.7386127875258306,2.7386127875258306,0,1,1,2.7386127875258306,0" fill="#4c78a8" stroke-width="2" opacity="0.7"></path><path aria-label="x1: -0.0686998276384; x2: 0.251732261987; y: 0" role="graphics-symbol" aria-roledescription="circle" transform="translate(94.2750143634658,79.0223115010907)" d="M2.7386127875258306,0A2.7386127875258306,2.7386127875258306,0,1,1,-2.7386127875258306,0A2.7386127875258306,2.7386127875258306,0,1,1,2.7386127875258306,0" fill="#4c78a8" stroke-width="2" opacity="0.7"></path><path aria-label="x1: -1.01780826145; x2: 0.302980139654; y: 1" role="graphics-symbol" aria-roledescription="circle" transform="translate(15.182644879193502,74.75165502885895)" d="M2.7386127875258306,0A2.7386127875258306,2.7386127875258306,0,1,1,-2.7386127875258306,0A2.7386127875258306,2.7386127875258306,0,1,1,2.7386127875258306,0" fill="#f58518" stroke-width="2" opacity="0.7"></path><path aria-label="x1: -0.0148476350934; x2: 0.221434666319; y: 0" role="graphics-symbol" aria-roledescription="circle" transform="translate(98.7626970755534,81.54711114007995)" d="M2.7386127875258306,0A2.7386127875258306,2.7386127875258306,0,1,1,-2.7386127875258306,0A2.7386127875258306,2.7386127875258306,0,1,1,2.7386127875258306,0" fill="#4c78a8" stroke-width="2" opacity="0.7"></path></g><g class="mark-group role-legend" role="graphics-symbol" aria-roledescription="legend" aria-label="Symbol legend titled 'y' for fill color with 2 values: 0, 1"><g transform="translate(218,0)"><path class="background" aria-hidden="true" d="M0,0h22v40h-22Z" pointer-events="none"></path><g><g class="mark-group role-legend-entry"><g transform="translate(0,16)"><path class="background" aria-hidden="true" d="M0,0h0v0h0Z" pointer-events="none"></path><g><g class="mark-group role-scope" role="graphics-object" aria-roledescription="group mark container"><g transform="translate(0,0)"><path class="background" aria-hidden="true" d="M0,0h22v11h-22Z" pointer-events="none" opacity="1"></path><g><g class="mark-symbol role-legend-symbol" pointer-events="none"><path transform="translate(6,6)" d="M5,0A5,5,0,1,1,-5,0A5,5,0,1,1,5,0" fill="#4c78a8" stroke-width="1.5" opacity="0.7"></path></g><g class="mark-text role-legend-label" pointer-events="none"><text text-anchor="start" transform="translate(16,9)" font-family="sans-serif" font-size="10px" fill="#000" opacity="1">0</text></g></g><path class="foreground" aria-hidden="true" d="" pointer-events="none" display="none"></path></g><g transform="translate(0,13)"><path class="background" aria-hidden="true" d="M0,0h22v11h-22Z" pointer-events="none" opacity="1"></path><g><g class="mark-symbol role-legend-symbol" pointer-events="none"><path transform="translate(6,6)" d="M5,0A5,5,0,1,1,-5,0A5,5,0,1,1,5,0" fill="#f58518" stroke-width="1.5" opacity="0.7"></path></g><g class="mark-text role-legend-label" pointer-events="none"><text text-anchor="start" transform="translate(16,9)" font-family="sans-serif" font-size="10px" fill="#000" opacity="1">1</text></g></g><path class="foreground" aria-hidden="true" d="" pointer-events="none" display="none"></path></g></g></g><path class="foreground" aria-hidden="true" d="" pointer-events="none" display="none"></path></g></g><g class="mark-text role-legend-title" pointer-events="none"><text text-anchor="start" transform="translate(0,9)" font-family="sans-serif" font-size="11px" font-weight="bold" fill="#000" opacity="1">y</text></g></g><path class="foreground" aria-hidden="true" d="" pointer-events="none" display="none"></path></g></g></g><path class="foreground" aria-hidden="true" d="" display="none"></path></g></g></g></svg>
