<svg version="1.1" id="Layer_1" xmlns="http://www.w3.org/2000/svg" x="0" y="0" viewBox="0 0 200 160" xml:space="preserve"><style>.st0{fill:none;stroke:#4c65af;stroke-width:5;stroke-miterlimit:10}.st1{fill:#4c65af}.st3{fill:#fff}</style><path class="st0" d="M167.9 76.1h18.2"/><path class="st1" d="M183.9 83.6l12.9-7.5-12.9-7.5z"/><path class="st0" d="M74.7 44.9l32 14.2"/><path class="st1" d="M101.7 65l14.9-1.6-8.8-12.1z"/><path class="st0" d="M74.7 114.3l32.7-19.8"/><path class="st1" d="M109.4 102l7.2-13.1-14.9.3z"/><circle cx="52.9" cy="28.7" r="27.2" fill="#399846" stroke="#399846" stroke-miterlimit="10"/><path class="st3" d="M57.8 26.3L58 22h-.2l-4.5 7.3h-1L47.7 22h-.2l.2 3.9v15.4h-5.2v-28h5.6l4.8 7.8h.1l4.8-7.8h5.5v28h-5.5v-15z"/><circle cx="52.9" cy="130.5" r="27.2" fill="#cb3c33" stroke="#cb3c33" stroke-miterlimit="10"/><path class="st3" d="M57.5 131.3h5v11.4H44v-28h5.5v23.1h8v-6.5z"/><circle cx="140.7" cy="76.1" r="27.2" fill="#925aa5" stroke="#925aa4" stroke-miterlimit="10"/><path class="st3" d="M132.3 61.2H149V79c0 1.5-.2 2.9-.6 4.3-.4 1.3-1.1 2.5-2.1 3.6-.6.6-1.3 1.1-2.1 1.5-.7.4-1.4.7-2.1.8s-1.3.3-2 .4c-.6.1-1.1.1-1.5.1-1.3 0-2.5-.1-3.7-.4-1.2-.3-2.4-.8-3.6-1.5l2-4.4c1 .6 1.9 1 2.6 1.2s1.6.3 2.5.3c.6 0 1.2-.1 1.9-.3.7-.2 1.3-.6 1.8-1.1.9-1 1.4-2.4 1.4-4.2V66h-11.2v-4.8z"/><path class="st0" d="M1.5 28.7h13.4"/><path class="st1" d="M12.7 36.1l13-7.4-13-7.5z"/><path class="st0" d="M1.5 130.5h13.4"/><path class="st1" d="M12.7 138l13-7.5-13-7.4z"/></svg>